<svg xmlns="http://www.w3.org/2000/svg" width="394.21" height="18.081" viewBox="0 0 394.21 18.081"><path d="M271.435.458q.987-.086,2.526-.086a8.078,8.078,0,0,1,2.06-.16q1.03.053,2.06.053,0,.106-.172.213a.351.351,0,0,0-.172.319q5.149.106,10.3-.053t9.954-.266l-.343-.106a27.722,27.722,0,0,0,6.865,0,31.035,31.035,0,0,1,9.611,0q2.4-.213,4.462-.319A13.58,13.58,0,0,1,322.7.479a38.447,38.447,0,0,1,7.037-.426q3.6.106,8.066.106-1.03.106-1.373.16l-1.03.16a8.945,8.945,0,0,0,3.433,0,12.115,12.115,0,0,1,2.746-.426q1.03.106,1.888.213a22.8,22.8,0,0,0,2.574.106,39.159,39.159,0,0,1,5.149-.319q2.746,0,5.835.213,4.806.106,9.783.053t9.783-.266q0,.106.343.106h.686q1.716.532,4.291,1.064a25.818,25.818,0,0,1,4.634,1.383,7.461,7.461,0,0,1,1.716.745,6.257,6.257,0,0,1,2.746,1.224,5.921,5.921,0,0,1,1.03,1.33q.687.638-1.716,1.17-1.716.532-1.03,1.17a1.95,1.95,0,0,1,.343,1.064q0,.532,1.373,1.064,1.03.958-.343,1.49l-2.06.638q-2.4-.106-4.462-.16t-3.776-.266a7.221,7.221,0,0,0-1.545-.053,7.22,7.22,0,0,1-1.545-.053q-3.776-.213-7.38-.319t-7.38-.319q-2.746-.106-4.806-.106a40.052,40.052,0,0,1-4.119-.213q-6.522,0-12.872-.106t-12.872-.319l-20.767-.213q-10.469-.106-21.453-.106H282.37q-1.545,0-3.261.106h-3.433q-1.716,0-3.433-.106-4.462-.106-8.753-.16t-8.753.053h-9.1q-4.291,0-9.1.106-7.552.106-14.588.213t-14.245.106q-4.806.106-9.783.106t-9.783.106q-2.4.106-4.806.16t-5.149.053q-7.895.213-16.3.372t-16.3.372q-3.776.106-7.208.106t-7.208.213q-7.208.319-14.76.585t-15.446.585q-2.06.106-4.462.16t-4.462.266q-4.462.213-9.1.372t-9.44.479q-4.119.319-7.895.372t-7.895.053q-1.716-.106-3.261-.16a22.011,22.011,0,0,1-3.261-.372q-1.03-.213-2.4-.372T45.7,13.673q-4.806.426-10.641.8T23.727,15.481q-1.373.213-4.806.426-9.954.638-15.79-1.064Q.386,14.311.043,13.46t2.06-1.6q0-.319,1.373-.319a29.672,29.672,0,0,0,4.806-.532,38.853,38.853,0,0,1,4.806-.638q5.149-.319,10.3-.958,2.746-.213,5.492-.372t5.835-.372Q41.577,8.246,48.1,7.82t13.387-.745q15.79-.958,31.236-1.6,4.462-.213,8.581-.426t7.895-.426q4.119-.213,8.41-.426t8.753-.319h2.231a11.026,11.026,0,0,0,2.231-.213q3.776-.213,7.208-.266t7.208-.16a16.767,16.767,0,0,1,3.776,0,7.959,7.959,0,0,0,1.716-.106,13.739,13.739,0,0,1,3.947-.319,34.11,34.11,0,0,0,4.634-.106q2.746,0,4.119.106a2.925,2.925,0,0,1,.308.014,2.656,2.656,0,0,1,.55-.121,8.045,8.045,0,0,0,.858-.106,10.076,10.076,0,0,1,4.806.319q.687-.106,1.716-.213l2.06-.213q.686,0,1.716.053a13.321,13.321,0,0,0,2.06-.053q4.806-.106,9.611-.053t9.611-.266a21.78,21.78,0,0,1,2.231-.106h2.231a9.6,9.6,0,0,1,1.373-.319l1.373-.213q1.03.106,3.089.532a5.941,5.941,0,0,1,1.716-.638,9.23,9.23,0,0,1,2.4-.213,14.125,14.125,0,0,1,2.746.213,11.523,11.523,0,0,0,3.776.319q3.089-.106,6.35-.16t6.007-.16q1.716,0,3.6-.053t3.947-.053q-.343-.106.687-.638h5.149q.687,0,.515.319t1.545,0a13.523,13.523,0,0,1,2.4,0,73.7,73.7,0,0,0,8.925.106,49.588,49.588,0,0,1,11.327.213,11,11,0,0,0,1.716-.479q.686-.266,1.373-.479a1.38,1.38,0,0,1,.22.086Z" transform="translate(1.016 1)" fill="none" stroke="#5f5f5f" stroke-width="2"/></svg>