<svg xmlns="http://www.w3.org/2000/svg" width="42.517" height="33.784" viewBox="0 0 42.517 33.784"><path d="M44,6.059a21.048,21.048,0,0,0-6.651,1.736,1.131,1.131,0,0,1-1.672-.959,3.843,3.843,0,0,1,.361-2.009A64.4,64.4,0,0,0,.6,9.573c-.452.2-.85-.426-.4-.679A55.181,55.181,0,0,1,36.774,2.961a17.659,17.659,0,0,0,.6-2.375.711.711,0,0,1,1.1-.479,1.157,1.157,0,0,1,.554.122A37.742,37.742,0,0,1,44.8,4.117C45.672,4.788,44.854,5.978,44,6.059Z" transform="matrix(-0.819, 0.574, -0.574, -0.819, 42.517, 7.873)" fill="#222"/></svg>