<svg xmlns="http://www.w3.org/2000/svg" width="113" height="19" viewBox="0 0 113 19"><g transform="translate(-144 -2787)"><rect width="113" height="19" rx="9.5" transform="translate(144 2787)" fill="#e8ecee"/><path d="M-33.732,0h1.21V-5.588L-29.475,0h1.331V-7.7h-1.21v5.588L-32.4-7.7h-1.331ZM-25.6,0h4.444V-1.133h-3.179V-3.256h3.179V-4.389h-3.179V-6.567h3.179V-7.7H-25.6Zm6.875,0h4.444V-1.133h-3.179V-3.256h3.179V-4.389h-3.179V-6.567h3.179V-7.7h-4.444Zm6.875,0h2.607A3.694,3.694,0,0,0-5.363-3.85,3.694,3.694,0,0,0-9.246-7.7h-2.607Zm1.265-1.133V-6.567h1.232a2.544,2.544,0,0,1,2.7,2.717,2.544,2.544,0,0,1-2.7,2.717ZM.324,0H1.589V-3.256H4.768V0H6.033V-7.7H4.768v3.311H1.589V-7.7H.324Zm8.25,0h4.444V-1.133H9.839V-3.256h3.179V-4.389H9.839V-6.567h3.179V-7.7H8.574Zm6.875,0H19.8V-1.188H16.714V-7.7H15.449ZM24.8-7.7H21.961V0h1.265V-2.31H24.8a2.568,2.568,0,0,0,2.64-2.7A2.568,2.568,0,0,0,24.8-7.7Zm-.077,4.257h-1.5V-6.567h1.5a1.465,1.465,0,0,1,1.452,1.562A1.465,1.465,0,0,1,24.722-3.443Zm6.366,2.326h1.069V0H31.088Zm-1.81-4.3a2.635,2.635,0,0,1,.655-1.866,2.334,2.334,0,0,1,1.8-.706,2.36,2.36,0,0,1,1.695.6,2.036,2.036,0,0,1,.636,1.544,1.651,1.651,0,0,1-.234.924,7.354,7.354,0,0,1-.943,1.042,3.015,3.015,0,0,0-.669.846,2.641,2.641,0,0,0-.153,1.023h-.956a3.482,3.482,0,0,1,.183-1.238,3.336,3.336,0,0,1,.8-1.077l.43-.424a1.778,1.778,0,0,0,.312-.381,1.365,1.365,0,0,0,.215-.725,1.4,1.4,0,0,0-.314-.913,1.265,1.265,0,0,0-1.039-.387,1.271,1.271,0,0,0-1.241.666,2.583,2.583,0,0,0-.22,1.069Z" transform="translate(201 2800)"/></g></svg>