<svg height="49" viewBox="0 0 49 49" width="49" xmlns="http://www.w3.org/2000/svg"><rect fill="#f8f8f8" height="49" rx="20" width="49"/><g transform="translate(11 10.863)"><path d="m0 0h28.91v28.91h-28.91z" fill="none"/><g fill-rule="evenodd"><path d="m23.66 16.55-.84 5.041v.017a1.2 1.2 0 0 1 -1.4.97l-13.699-2.49a1.2 1.2 0 0 1 -.943-.854l-2.2-7.693a1.2 1.2 0 0 1 1.158-1.535h16.537l.739-3.166a1.421 1.421 0 0 1 1.384-1.1h2.487a1.421 1.421 0 1 1 0 2.843h-1.36z" opacity=".3" transform="translate(-1.803 -2.283)"/><path d="m11.807 39.614a1.807 1.807 0 1 1 1.807-1.807 1.807 1.807 0 0 1 -1.807 1.807zm10.841 0a1.807 1.807 0 1 1 1.807-1.807 1.807 1.807 0 0 1 -1.807 1.807z" transform="translate(-3.977 -14.318)"/></g></g></svg>