<svg height="49" viewBox="0 0 49 49" width="49" xmlns="http://www.w3.org/2000/svg"><rect fill="#f8f8f8" height="49" rx="20" width="49"/><g transform="translate(8 7.721)"><path d="m0 0h34.052v34.052h-34.052z" fill="none"/><g fill-rule="evenodd" transform="translate(-2.325 -2.325)"><path d="m10.128 8h5.672a2.128 2.128 0 0 1 2.128 2.128v1.419a2.128 2.128 0 0 1 -2.128 2.128h-5.672a2.128 2.128 0 0 1 -2.128-2.128v-1.419a2.128 2.128 0 0 1 2.128-2.128zm12.772 17.026h5.675a2.128 2.128 0 0 1 2.125 2.128v1.419a2.128 2.128 0 0 1 -2.127 2.127h-5.673a2.128 2.128 0 0 1 -2.128-2.128v-1.418a2.128 2.128 0 0 1 2.128-2.128z"/><path d="m10.128 16.513h5.672a2.128 2.128 0 0 1 2.128 2.128v9.932a2.128 2.128 0 0 1 -2.128 2.127h-5.672a2.128 2.128 0 0 1 -2.128-2.127v-9.932a2.128 2.128 0 0 1 2.128-2.128zm12.772-8.513h5.675a2.128 2.128 0 0 1 2.125 2.128v9.932a2.128 2.128 0 0 1 -2.128 2.128h-5.672a2.128 2.128 0 0 1 -2.13-2.128v-9.932a2.128 2.128 0 0 1 2.13-2.128z" opacity=".3"/></g></g></svg>