<svg xmlns="http://www.w3.org/2000/svg" width="113" height="19" viewBox="0 0 113 19"><g transform="translate(-144 -2787)"><rect width="113" height="19" rx="9.5" transform="translate(144 2787)" fill="#1d4563"/><path d="M-46.18-.95A2.1,2.1,0,0,0-45.05-1.2a.82.82,0,0,0,.4-.735.771.771,0,0,0-.22-.57,1.37,1.37,0,0,0-.57-.33,7.61,7.61,0,0,0-.77-.195q-.42-.085-.845-.21a3.607,3.607,0,0,1-.775-.325,1.5,1.5,0,0,1-.57-.6,2.009,2.009,0,0,1-.22-.98,1.909,1.909,0,0,1,.695-1.49,2.7,2.7,0,0,1,1.845-.61,2.594,2.594,0,0,1,1.885.655A2.323,2.323,0,0,1-43.5-4.9h-1.19a1.251,1.251,0,0,0-.37-.905,1.391,1.391,0,0,0-1.02-.355,1.663,1.663,0,0,0-.985.255.84.84,0,0,0-.355.725.674.674,0,0,0,.22.515,1.418,1.418,0,0,0,.575.31q.355.105.78.19a7.969,7.969,0,0,1,.85.22,3.607,3.607,0,0,1,.78.35,1.594,1.594,0,0,1,.575.62,2.039,2.039,0,0,1,.22.985,1.843,1.843,0,0,1-.77,1.55,3.325,3.325,0,0,1-2.05.58,2.6,2.6,0,0,1-1.97-.69,2.442,2.442,0,0,1-.69-1.67h1.2a1.293,1.293,0,0,0,.43.93A1.605,1.605,0,0,0-46.18-.95Zm9.88-.17V0h-4.99V-7.1h4.99v1.12h-3.78v1.82h3.61v1.12h-3.61v1.92Zm1.79-2.44a3.669,3.669,0,0,1,.995-2.66A3.4,3.4,0,0,1-30.96-7.25a3.516,3.516,0,0,1,2.26.74,3.151,3.151,0,0,1,1.15,2h-1.29a1.974,1.974,0,0,0-.745-1.16,2.24,2.24,0,0,0-1.375-.42,2.107,2.107,0,0,0-1.665.685,2.687,2.687,0,0,0-.6,1.845,2.706,2.706,0,0,0,.6,1.85,2.1,2.1,0,0,0,1.665.69,2.24,2.24,0,0,0,1.375-.42A1.974,1.974,0,0,0-28.84-2.6h1.29a3.151,3.151,0,0,1-1.15,2,3.516,3.516,0,0,1-2.26.74A3.4,3.4,0,0,1-33.515-.89,3.682,3.682,0,0,1-34.51-3.56ZM-21.3-7.1v1.15h-2.06V0h-1.21V-5.95h-2.06V-7.1Zm2.93,0V0h-1.21V-7.1Zm4.05,1.71a2.55,2.55,0,0,0-.67,1.84,2.55,2.55,0,0,0,.67,1.84,2.276,2.276,0,0,0,1.72.7,2.276,2.276,0,0,0,1.72-.7,2.55,2.55,0,0,0,.67-1.84,2.55,2.55,0,0,0-.67-1.84,2.276,2.276,0,0,0-1.72-.7A2.276,2.276,0,0,0-14.32-5.39ZM-15.24-.9a3.651,3.651,0,0,1-1.03-2.65,3.634,3.634,0,0,1,1.03-2.645A3.529,3.529,0,0,1-12.6-7.25,3.529,3.529,0,0,1-9.96-6.195,3.634,3.634,0,0,1-8.93-3.55,3.634,3.634,0,0,1-9.96-.9,3.529,3.529,0,0,1-12.6.15,3.538,3.538,0,0,1-15.24-.9Zm9.6-4.2V0H-6.83V-7.1H-5.6l3.45,5.11V-7.1H-.96V0H-2.2ZM7.92,0H4.94V-7.1H7.81a2.56,2.56,0,0,1,1.76.53,1.791,1.791,0,0,1,.59,1.4,1.7,1.7,0,0,1-.275.97,1.648,1.648,0,0,1-.755.61,1.677,1.677,0,0,1,.84.6,1.643,1.643,0,0,1,.31,1A1.829,1.829,0,0,1,9.67-.525,2.607,2.607,0,0,1,7.92,0ZM7.91-3.04H6.13V-1.1H7.9q1.16,0,1.16-.97a.887.887,0,0,0-.3-.715A1.275,1.275,0,0,0,7.91-3.04ZM7.82-6H6.13v1.85H7.82q1.12,0,1.12-.92a.862.862,0,0,0-.28-.685A1.245,1.245,0,0,0,7.82-6Zm9.11,4.88V0h-4.5V-7.1h1.21v5.98Zm2.99-4.27a2.55,2.55,0,0,0-.67,1.84,2.55,2.55,0,0,0,.67,1.84,2.276,2.276,0,0,0,1.72.7,2.276,2.276,0,0,0,1.72-.7,2.55,2.55,0,0,0,.67-1.84,2.55,2.55,0,0,0-.67-1.84,2.276,2.276,0,0,0-1.72-.7A2.276,2.276,0,0,0,19.92-5.39ZM19-.9a3.651,3.651,0,0,1-1.03-2.65A3.634,3.634,0,0,1,19-6.195,3.529,3.529,0,0,1,21.64-7.25a3.529,3.529,0,0,1,2.64,1.055A3.634,3.634,0,0,1,25.31-3.55,3.634,3.634,0,0,1,24.28-.9,3.529,3.529,0,0,1,21.64.15,3.538,3.538,0,0,1,19-.9Zm8.02-2.66a3.669,3.669,0,0,1,.995-2.66A3.4,3.4,0,0,1,30.57-7.25a3.516,3.516,0,0,1,2.26.74,3.151,3.151,0,0,1,1.15,2H32.69a1.974,1.974,0,0,0-.745-1.16,2.24,2.24,0,0,0-1.375-.42,2.107,2.107,0,0,0-1.665.685,2.687,2.687,0,0,0-.6,1.845,2.706,2.706,0,0,0,.6,1.85,2.1,2.1,0,0,0,1.665.69,2.24,2.24,0,0,0,1.375-.42A1.974,1.974,0,0,0,32.69-2.6h1.29a3.151,3.151,0,0,1-1.15,2,3.516,3.516,0,0,1-2.26.74A3.4,3.4,0,0,1,28.015-.89,3.682,3.682,0,0,1,27.02-3.56ZM42.24,0H40.73L38.46-3.24,37.22-1.95V0H36.01V-7.1h1.21v3.62L40.51-7.1H42.1L39.3-4.15Zm3.82-.95A2.1,2.1,0,0,0,47.19-1.2a.82.82,0,0,0,.4-.735.771.771,0,0,0-.22-.57,1.37,1.37,0,0,0-.57-.33,7.61,7.61,0,0,0-.77-.195q-.42-.085-.845-.21a3.607,3.607,0,0,1-.775-.325,1.5,1.5,0,0,1-.57-.6,2.009,2.009,0,0,1-.22-.98,1.909,1.909,0,0,1,.695-1.49,2.7,2.7,0,0,1,1.845-.61,2.594,2.594,0,0,1,1.885.655,2.323,2.323,0,0,1,.695,1.7H47.55a1.251,1.251,0,0,0-.37-.905,1.391,1.391,0,0,0-1.02-.355,1.663,1.663,0,0,0-.985.255.84.84,0,0,0-.355.725.674.674,0,0,0,.22.515,1.418,1.418,0,0,0,.575.31q.355.105.78.19a7.969,7.969,0,0,1,.85.22,3.607,3.607,0,0,1,.78.35,1.594,1.594,0,0,1,.575.62,2.039,2.039,0,0,1,.22.985,1.843,1.843,0,0,1-.77,1.55A3.325,3.325,0,0,1,46,.14a2.6,2.6,0,0,1-1.97-.69,2.442,2.442,0,0,1-.69-1.67h1.2a1.293,1.293,0,0,0,.43.93A1.605,1.605,0,0,0,46.06-.95Z" transform="translate(201 2800)" fill="#fff"/></g></svg>