<svg height="19" viewBox="0 0 52 19" width="52" xmlns="http://www.w3.org/2000/svg"><rect fill="#e8ecee" height="19" rx="9.5" width="52"/><path d="m-11.355.17a2.064 2.064 0 0 0 2.32-2.01 1.919 1.919 0 0 0 -1.32-1.93l-1.03-.42c-.82-.33-1.16-.65-1.16-1.13 0-.53.38-.87 1.04-.87a1.089 1.089 0 0 1 1.2 1.21h1.15a2.123 2.123 0 0 0 -2.31-2.19 2 2 0 0 0 -2.235 1.92 1.885 1.885 0 0 0 1.34 1.86l1.14.46c.79.32 1.04.59 1.04 1.12 0 .63-.42.98-1.18.98a1.313 1.313 0 0 1 -1.39-1.46h-1.15a2.278 2.278 0 0 0 2.545 2.46zm4.23-.17h1.15v-2.96h2.89v2.96h1.15v-7h-1.15v3.01h-2.89v-3.01h-1.15zm10.725.17a3.5 3.5 0 0 0 3.615-3.67 3.5 3.5 0 0 0 -3.615-3.67 3.5 3.5 0 0 0 -3.625 3.67 3.5 3.5 0 0 0 3.625 3.67zm0-1.03a2.4 2.4 0 0 1 -2.415-2.64 2.4 2.4 0 0 1 2.415-2.64 2.4 2.4 0 0 1 2.405 2.64 2.4 2.4 0 0 1 -2.405 2.64zm8.1-6.14h-2.575v7h1.15v-2.1h1.425a2.335 2.335 0 0 0 2.4-2.45 2.335 2.335 0 0 0 -2.4-2.45zm-.07 3.87h-1.36v-2.84h1.36a1.332 1.332 0 0 1 1.32 1.42 1.332 1.332 0 0 1 -1.315 1.42z" transform="translate(27 13)"/></svg>