<svg xmlns="http://www.w3.org/2000/svg" width="108" height="18.001" viewBox="0 0 108 18.001"><path d="M92.736,18v0L94.3,11.333,89.16,6.85l6.771-.592L98.58,0l2.65,6.258L108,6.85l-5.117,4.483L104.422,18,98.58,14.45,92.738,18Zm-22.29,0v0l1.564-6.666L66.87,6.85l6.771-.592L76.29,0l2.649,6.258,6.771.592-5.117,4.483L82.132,18,76.29,14.45,70.448,18ZM48.156,18v0l1.564-6.666L44.58,6.85l6.771-.592L54,0l2.65,6.258,6.771.592L58.3,11.333,59.841,18,54,14.45,48.158,18Zm-22.29,0v0l1.564-6.666L22.29,6.85l6.771-.592L31.71,0l2.65,6.258,6.771.592-5.117,4.483L37.552,18,31.71,14.45,25.868,18ZM3.575,18v0L5.14,11.333,0,6.85l6.771-.592L9.42,0l2.649,6.258,6.771.592-5.117,4.483L15.262,18,9.42,14.45,3.578,18Z" fill="#3cd278"/></svg>