<svg xmlns="http://www.w3.org/2000/svg" width="68.601" height="10.12" viewBox="0 0 68.601 10.12"><path d="M-31.644-8c-1.661,0-2.75.913-2.75,2.244,0,1.639,1.232,2,2.717,2.376,1.2.3,1.771.473,1.771,1.265,0,.737-.572,1.188-1.551,1.188a1.5,1.5,0,0,1-1.7-1.661h-1.353c0,1.793,1.155,2.75,3.047,2.75,1.76,0,2.926-.946,2.926-2.4,0-1.65-1.232-2.035-2.706-2.4-1.254-.308-1.793-.528-1.793-1.243,0-.638.528-1.045,1.375-1.045a1.375,1.375,0,0,1,1.573,1.5h1.331C-28.762-7.106-29.741-8-31.644-8Zm6.966,7.238c-.781,0-1.419-.517-1.463-1.782h4.1a4.4,4.4,0,0,0-.154-1.309,2.466,2.466,0,0,0-2.508-1.9A2.639,2.639,0,0,0-27.384-2.86c0,1.8,1,3.025,2.706,3.025A2.439,2.439,0,0,0-22.1-1.683h-1.287A1.2,1.2,0,0,1-24.678-.759Zm-.022-4.07a1.4,1.4,0,0,1,1.408,1.463h-2.827C-26.009-4.334-25.459-4.829-24.7-4.829ZM-19.3,0V-7.832H-20.55V0Zm3.127,0V-7.832h-1.254V0ZM-6.9-2.123-6.174,0h1.386L-7.637-7.832H-9.408L-12.257,0h1.386l.726-2.123Zm-.4-1.144H-9.749l.209-.616c.363-1.045.682-2.068,1-3.113h.022c.319,1.045.66,2.068,1.012,3.113Zm6.5-2.453a2,2,0,0,0-1.672.858h-.022v-.726H-3.674V0H-2.42V-3.1c0-1.067.561-1.606,1.276-1.606s1.133.4,1.133,1.4V0H1.243V-3.421C1.243-4.95.473-5.72-.792-5.72Zm8.264.132h-1.3L4.733-1.43H4.711l-1.4-4.158H1.972L4.018.044c-.264.77-.561,1.023-1.243,1.023A1.845,1.845,0,0,1,2.247.99V2.013a2.5,2.5,0,0,0,.627.077c1.3,0,1.914-.429,2.442-1.848ZM10.94-.957c-.55,0-.759-.253-.759-.88V-4.631H11.27v-.957H10.181v-1.4H8.927v1.4H7.992v.957h.935V-1.65c0,1.221.517,1.716,1.694,1.716a2.788,2.788,0,0,0,.7-.1v-.979A1.243,1.243,0,0,1,10.94-.957Zm3.006-3.971v-2.9H12.693V0h1.254V-3.1c0-1.067.561-1.606,1.276-1.606s1.133.4,1.133,1.4V0H17.61V-3.421c0-1.529-.77-2.3-2.035-2.3a1.935,1.935,0,0,0-1.606.792Zm6.735-1.7v-1.2H19.428v1.2Zm0,6.633V-5.588H19.428V0Zm4.755-5.72a2,2,0,0,0-1.672.858h-.022v-.726H22.555V0h1.254V-3.1c0-1.067.561-1.606,1.276-1.606s1.133.4,1.133,1.4V0h1.254V-3.421C27.472-4.95,26.7-5.72,25.437-5.72Zm5.811-.022c-1.43,0-2.343,1.111-2.343,2.838s.9,2.838,2.321,2.838a1.839,1.839,0,0,0,1.617-.88h.022V-.4c0,1.166-.462,1.595-1.3,1.595-.7,0-1.133-.308-1.166-.847H29.147c.055,1.1.9,1.771,2.4,1.771A2.258,2.258,0,0,0,34.086-.352V-5.588H32.9v.781h-.022A1.83,1.83,0,0,0,31.248-5.742ZM31.534-4.7c.847,0,1.375.7,1.375,1.793s-.528,1.8-1.375,1.8c-.8,0-1.32-.7-1.32-1.8S30.731-4.7,31.534-4.7Z" transform="translate(34.515 7.997)"/></svg>