<svg xmlns="http://www.w3.org/2000/svg" width="36.227" height="29.834" viewBox="0 0 36.227 29.834"><g transform="translate(-4.955 -8.258)"><path d="M9.2,14H19.852a3.2,3.2,0,0,1,0,6.393H9.2A3.2,3.2,0,0,1,9.2,14ZM28.376,31.048H39.031a3.2,3.2,0,0,1,0,6.393H28.376a3.2,3.2,0,1,1,0-6.393Z" transform="translate(-1.045 -1.48)" fill="#28af60" fill-rule="evenodd" opacity="0.3"/><path d="M35.834,22.786a6.393,6.393,0,1,1,6.393-6.393A6.393,6.393,0,0,1,35.834,22.786ZM12.393,39.834a6.393,6.393,0,1,1,6.393-6.393A6.393,6.393,0,0,1,12.393,39.834Z" transform="translate(-1.045 -1.742)" fill="#28af60" fill-rule="evenodd"/></g></svg>