<svg xmlns="http://www.w3.org/2000/svg" width="35.798" height="29.532" viewBox="0 0 35.798 29.532"><g transform="translate(-4.955 -8.258)"><path d="M27.229,9.848a37.1,37.1,0,0,1,3.564,4.279S22.657,26.06,12.894,26.06q-.927,0-1.8-.078Z" transform="translate(9.959 8.052)" fill="#28af60"/><path d="M25.881,6.984,20.9,11.966a5.966,5.966,0,0,0-5.966,5.966L8.025,24.84A21.717,21.717,0,0,1,3,17.933S7.881,6,20.9,6A13.821,13.821,0,0,1,25.881,6.984Z" transform="translate(1.955 4.247)" fill="#28af60"/><rect width="37.786" height="3.978" transform="translate(9.131 34.977) rotate(-45)" fill="#28af60" opacity="0.3"/></g></svg>