<svg xmlns="http://www.w3.org/2000/svg" width="39.077" height="30.286" viewBox="0 0 39.077 30.286"><g transform="translate(-1.509 -5.625)"><path d="M31.608,37.128,42.313,21.07a1.373,1.373,0,0,0-1.142-2.134H32.754V8.827a1.373,1.373,0,0,0-2.515-.761L19.533,24.123a1.373,1.373,0,0,0,1.142,2.134h8.417V36.367a1.373,1.373,0,0,0,2.515.761Z" transform="translate(-1.958 -1.829)" fill="#28af60" fill-rule="evenodd"/><path d="M8.406,10h9.152a2.746,2.746,0,0,1,0,5.491H8.406a2.746,2.746,0,1,1,0-5.491Zm0,21.965h9.152a2.746,2.746,0,1,1,0,5.491H8.406a2.746,2.746,0,1,1,0-5.491ZM4.746,20.982h7.322a2.746,2.746,0,0,1,0,5.491H4.746a2.746,2.746,0,0,1,0-5.491Z" transform="translate(-0.491 -2.045)" fill="#28af60" fill-rule="evenodd" opacity="0.3"/></g></svg>