<svg xmlns="http://www.w3.org/2000/svg" width="35.693" height="62.852" viewBox="0 0 35.693 62.852"><path d="M1159.565,640.065h4.4l-2.372-11.6,1.936-.395,2.453,12h3.4l2.453-12,1.936.395-2.372,11.6h4.4l6.812-13.31a8.673,8.673,0,0,0,.94-3.979,11.637,11.637,0,0,0-2.127-6.458,15.717,15.717,0,0,0-5.855-5.109,17.616,17.616,0,0,0-15.767,0,15.711,15.711,0,0,0-5.853,5.107,11.634,11.634,0,0,0-2.126,6.456,8.682,8.682,0,0,0,.941,3.984l6.811,13.31Zm17.81,1.235v5.063c.68,3.545,1.246,7.336,1.692,10.935.56,4.517.939,8.773,1.125,11.868l.063,1.049H1155.1l.063-1.049c.186-3.095.564-7.351,1.125-11.868.447-3.6,1.012-7.39,1.692-10.936V641.3L1151,627.653a10.642,10.642,0,0,1-1.165-4.882,13.609,13.609,0,0,1,2.475-7.564,17.689,17.689,0,0,1,6.588-5.757,19.521,19.521,0,0,1,17.564,0,17.7,17.7,0,0,1,6.59,5.76,13.613,13.613,0,0,1,2.476,7.565,10.628,10.628,0,0,1-1.164,4.878l-6.984,13.647Zm-1.669,6.917h-16.059c-.546,3.044-1.012,6.246-1.394,9.321-.5,4.015-.85,7.782-1.05,10.695h20.947c-.2-2.913-.552-6.68-1.05-10.695-.382-3.075-.848-6.277-1.394-9.321Zm-.314-6.17h-15.431v4.187h15.431Z" transform="translate(-1149.83 -607.363)" fill="#9a6e49" fill-rule="evenodd"/></svg>