<?xml version="1.0" encoding="utf-8"?>
<!-- Generator: Adobe Illustrator 19.2.1, SVG Export Plug-In . SVG Version: 6.00 Build 0)  -->
<svg xmlns="http://www.w3.org/2000/svg" xmlns:xlink="http://www.w3.org/1999/xlink" version="1.1" id="Layer" x="0px" y="0px" width="512" height="512" viewBox="0 0 64 64" enable-background="new 0 0 64 64" xml:space="preserve">
<polygon fill="#CCE4FF" points="22,26 22,30 42,30 50,38 50,30 54,30 54,10 22,10 "/>
<path fill="#007AFF" d="M54,9H22c-0.553,0-1,0.448-1,1v15H10c-0.553,0-1,0.448-1,1v20c0,0.553,0.447,1,1,1h3v7  c0,0.404,0.243,0.77,0.617,0.924C13.741,54.976,13.871,55,14,55c0.26,0,0.516-0.102,0.707-0.293L22.414,47H42c0.553,0,1-0.447,1-1  V32.414l6.293,6.293C49.484,38.898,49.74,39,50,39c0.129,0,0.259-0.024,0.383-0.076C50.757,38.77,51,38.404,51,38v-7h3  c0.553,0,1-0.448,1-1V10C55,9.448,54.553,9,54,9z M22,45c-0.266,0-0.52,0.105-0.707,0.293L15,51.586V46c0-0.553-0.447-1-1-1h-3V27  h10v3c0,0.552,0.447,1,1,1h19v14H22z M53,29h-3c-0.553,0-1,0.448-1,1v5.586l-6.292-6.292c-0.092-0.092-0.201-0.165-0.323-0.216  C42.264,29.027,42.134,29,42,29H23V11h30V29z"/>
</svg>
