<?xml version="1.0" encoding="UTF-8"?>
<svg xmlns="http://www.w3.org/2000/svg" width="101" height="48" viewBox="0 0 101 48"><g transform="translate(-602 -2569)"><rect width="101" height="48" rx="5" transform="translate(602 2569)" fill="#fff"/><path d="M-29.68-16.259h3.453a5.036,5.036,0,0,0,4.565-2.991l5.49-10.969S-15.149-32-17.2-32h-3.227c-1.023,0-1.3.846-1.85,1.781l-3.611,7.329A2.222,2.222,0,0,1-27.958-21.6a2.222,2.222,0,0,1-2.076-1.289l-3.611-7.329C-34.2-31.144-34.471-32-35.494-32h-3.227c-2.046,0-1.023,1.781-1.023,1.781l5.5,10.969A5.052,5.052,0,0,0-29.68-16.259Zm38.86,0h3.463a5.036,5.036,0,0,0,4.565-2.991l5.5-10.969S23.73-32,21.684-32H18.447c-1.023,0-1.3.846-1.85,1.781l-3.62,7.329A2.222,2.222,0,0,1,10.9-21.6,2.222,2.222,0,0,1,8.826-22.89L5.215-30.219C4.664-31.144,4.389-32,3.366-32H.139c-2.046,0-1.023,1.781-1.023,1.781l5.5,10.969A5.052,5.052,0,0,0,9.18-16.259ZM-6.787-32H-10.24a5.036,5.036,0,0,0-4.565,2.991L-20.3-18.04s-1.023,1.781,1.023,1.781h3.237c1.023,0,1.3-.856,1.85-1.781l3.611-7.329a2.222,2.222,0,0,1,2.076-1.289,2.222,2.222,0,0,1,2.076,1.289l3.611,7.329c.551.925.826,1.781,1.85,1.781H2.254c2.046,0,1.023-1.781,1.023-1.781l-5.5-10.969A5.052,5.052,0,0,0-6.787-32Z" transform="translate(661 2617)" fill="#1e2f69"/></g></svg>