<?xml version="1.0" encoding="utf-8"?>
<svg xmlns="http://www.w3.org/2000/svg" width="40.152" height="60.879" viewBox="0 0 40.152 60.879"><path d="M16.978,21.514h6.2A35.4,35.4,0,0,1,22.3,17.26a38.315,38.315,0,0,1-.334-3.983H18.192a38.321,38.321,0,0,1-.338,3.983,35.8,35.8,0,0,1-.875,4.253Zm6.4,1.853h-6.6V55.727a3.3,3.3,0,0,0,6.609,0V23.366Zm.432-10.089a35.962,35.962,0,0,0,.323,3.729,34.6,34.6,0,0,0,1.058,4.86l.041.138V55.727a5.151,5.151,0,1,1-10.3,0V22.013l.039-.138a34.892,34.892,0,0,0,1.059-4.86,37.063,37.063,0,0,0,.323-3.738H0V3.517A3.178,3.178,0,0,1,3.517,0H36.636a3.182,3.182,0,0,1,3.517,3.517v9.761H23.808ZM36.638,1.851H3.517c-1.229,0-1.666.437-1.666,1.666V5.95H38.3V3.517c0-1.232-.434-1.666-1.666-1.666ZM1.851,7.8v3.624H38.3V7.8Z" fill="#9a6e49" fill-rule="evenodd"/></svg>