<svg xmlns="http://www.w3.org/2000/svg" width="50" height="50" viewBox="0 0 50 50"><defs xmlns="http://www.w3.org/2000/svg"><linearGradient gradientUnits="userSpaceOnUse" id="grad965411" x1="0%" y1="0%" x2="0%" y2="100%"><stop offset="0%" stop-color="#f42958"/><stop offset="100%" stop-color="#f42958"/></linearGradient></defs><path d="M22.9-15.625a2.078,2.078,0,0,1,1.538.562A2.078,2.078,0,0,1,25-13.525v8.3A8.048,8.048,0,0,1,22.559.684,8.048,8.048,0,0,1,16.65,3.125h-37.5A4,4,0,0,1-23.779,1.9,4,4,0,0,1-25-1.025v-41.7a4,4,0,0,1,1.221-2.93,4,4,0,0,1,2.93-1.221H0v2.1H-20.85a2.013,2.013,0,0,0-1.489.562,2.013,2.013,0,0,0-.562,1.489v10.449H14.6V-42.725a1.967,1.967,0,0,0-.586-1.489,2.1,2.1,0,0,0-1.514-.562v-2.1a4,4,0,0,1,2.93,1.221,4,4,0,0,1,1.221,2.93v14.6H14.6v-2.1H-22.9v16.7H-4.15v2.051H-22.9V-1.025A2.013,2.013,0,0,0-22.339.464a2.013,2.013,0,0,0,1.489.562H2.93A7.078,7.078,0,0,1,.757-1.685,8.327,8.327,0,0,1,0-5.225v-8.3a2.078,2.078,0,0,1,.562-1.538A2.078,2.078,0,0,1,2.1-15.625H4.15v-2.1a7.952,7.952,0,0,1,2.466-5.859A8.072,8.072,0,0,1,12.5-26.025a8.072,8.072,0,0,1,5.884,2.441,7.952,7.952,0,0,1,2.466,5.859v2.1Zm-16.65,0h12.5v-2.1a6.04,6.04,0,0,0-1.807-4.443A6.04,6.04,0,0,0,12.5-23.975a6.04,6.04,0,0,0-4.443,1.807A6.04,6.04,0,0,0,6.25-17.725Zm16.65,2.1H2.1v8.3A6.06,6.06,0,0,0,3.882-.757,6.06,6.06,0,0,0,8.35,1.025h8.3A6.06,6.06,0,0,0,21.118-.757,6.06,6.06,0,0,0,22.9-5.225ZM12.5-9.375a2.1,2.1,0,0,1,1.514.562A2.03,2.03,0,0,1,14.6-7.275v2.051a2.03,2.03,0,0,1-.586,1.538,2.1,2.1,0,0,1-1.514.562,2.1,2.1,0,0,1-1.514-.562A2.03,2.03,0,0,1,10.4-5.225V-7.275a2.03,2.03,0,0,1,.586-1.538A2.1,2.1,0,0,1,12.5-9.375Zm-31.25-31.25h4.15v2.1h-4.15Zm8.35,0h4.15v2.1H-10.4Zm-8.35,16.65h4.15v2.1h-4.15Zm8.35,0h4.15v2.1H-10.4Zm-8.35,16.7h4.15v2.051h-4.15Zm22.9-39.6h4.2v2.1H4.15Z" transform="translate(25 46.875)" fill="#0f144e"/></svg>