<?xml version="1.0" encoding="utf-8"?>
<svg xmlns="http://www.w3.org/2000/svg" width="38.051" height="65.02" viewBox="0 0 38.051 65.02"><path d="M22.951,56.714a12.87,12.87,0,0,0,.763,3.006,14.022,14.022,0,0,0,1.5,2.837l.742,1.085L24.7,64.06a17.915,17.915,0,0,1-4.42.928,9.694,9.694,0,0,1-6.126-1.42,9.2,9.2,0,0,1-3.594-4.915,15.657,15.657,0,0,1-.734-3.866l1.984-.132a13.541,13.541,0,0,0,.627,3.366,7.222,7.222,0,0,0,2.8,3.889A7.794,7.794,0,0,0,20.139,63a14.555,14.555,0,0,0,2.718-.464,15.785,15.785,0,0,1-1-2.105,14.729,14.729,0,0,1-.886-3.481l1.974-.24ZM12.729,46.7a8.958,8.958,0,0,1-2.254-.347,10.139,10.139,0,0,1-2.164-.909l-.918-.518.569-.886A9.106,9.106,0,0,1,13.085,40.1a8.751,8.751,0,0,1,5.94.523,8.751,8.751,0,0,1,5.94-.523,9.062,9.062,0,0,1,5.122,3.943l.569.886-.918.518a10.14,10.14,0,0,1-2.164.909,8.958,8.958,0,0,1-2.254.347l-.046-1.982a7.085,7.085,0,0,0,1.756-.278c.238-.069.477-.151.709-.243a6.778,6.778,0,0,0-3.31-2.178,6.969,6.969,0,0,0-4.974.6l-.431.209-.431-.209a6.86,6.86,0,0,0-4.974-.6,6.778,6.778,0,0,0-3.31,2.189c.232.092.47.174.709.243a7.085,7.085,0,0,0,1.756.278l-.046,1.982ZM5.1,58.727a14.885,14.885,0,0,1-2.751-6.416,29.312,29.312,0,0,1-.209-8.572,36.731,36.731,0,0,0,.209-5.108,56.852,56.852,0,0,0-.544-6.017l1.967-.266a58.536,58.536,0,0,1,.564,6.236,38.4,38.4,0,0,1-.22,5.373A27.309,27.309,0,0,0,4.3,51.941a13.1,13.1,0,0,0,2.371,5.567L5.1,58.729ZM36.239,32.614l-1.967-.266a58.537,58.537,0,0,0-.564,6.236,38.4,38.4,0,0,0,.22,5.373A23.333,23.333,0,0,1,33.09,54.2a11.777,11.777,0,0,1-4.867,6.228L29.281,62.1a13.668,13.668,0,0,0,5.682-7.248A25.156,25.156,0,0,0,35.9,43.737a36.731,36.731,0,0,1-.209-5.108,57.409,57.409,0,0,1,.548-6.015Zm-12.1-20.162A14.158,14.158,0,0,1,17.155,16.1a14.028,14.028,0,0,1-6.642-.261,13.488,13.488,0,0,1-8.336,10.5l-1.1.381L.871,25.565a38.077,38.077,0,0,1-.794-9.676A9.262,9.262,0,0,1,3.269,9.151C3.38,5.67,5.778,3.414,8.87,2.007A25.883,25.883,0,0,1,18.188.019c.355-.013.627-.019.836-.019,5.191,0,9.939,1.238,13.407,4.016,3.109,2.494,5.166,6.195,5.557,11.306a30.191,30.191,0,0,1-.054,4.553c-.142,1.846-.408,3.8-.734,5.685l-.178,1.045L36,26.37c-3.071-.709-5.039-4.668-5.045-4.679l1.773-.9A9.2,9.2,0,0,0,35.446,24c.224-1.436.4-2.885.51-4.267A28.2,28.2,0,0,0,36,15.471c-.343-4.51-2.124-7.748-4.819-9.908C28.1,3.092,23.789,1.99,19.024,1.99c-.314,0-.573,0-.771.01A23.926,23.926,0,0,0,9.681,3.82C7.172,4.957,5.251,6.747,5.251,9.4l.017.734-.418.307a7.322,7.322,0,0,0-2.8,5.63,32.3,32.3,0,0,0,.567,7.888A11.72,11.72,0,0,0,8.7,14.426l.13-1.3,1.213.46a12.072,12.072,0,0,0,6.719.562,12.176,12.176,0,0,0,6-3.136l1.369,1.43Zm9.287,1.6-1.436-1.376a12.074,12.074,0,0,1-8.014,3.694l.117,1.984a14.058,14.058,0,0,0,9.329-4.3Z" transform="translate(0.001)" fill="#9a6e49" fill-rule="evenodd"/></svg>