<svg xmlns="http://www.w3.org/2000/svg" xmlns:xlink="http://www.w3.org/1999/xlink" width="173.186" height="173.186" viewBox="0 0 173.186 173.186"><defs><linearGradient id="a" x1="0.5" x2="0.5" y2="0.436" gradientUnits="objectBoundingBox"><stop offset="0" stop-color="#35485c"/><stop offset="0.945" stop-color="#f4f5f6"/><stop offset="1" stop-color="#fff"/></linearGradient></defs><g transform="translate(25.325 25.325)" opacity="0.153"><path d="M61.268,0a61.268,61.268,0,1,0,61.268,61.268A61.268,61.268,0,0,0,61.268,0Zm0,118.451a57.183,57.183,0,1,1,57.183-57.183A57.184,57.184,0,0,1,61.268,118.451Zm0,0" transform="translate(58.244 -25.325) rotate(43)" fill="url(#a)"/><path d="M194.888,136.506h-14.3V114.041a2.043,2.043,0,0,0-3.742-1.134l-24.507,36.761a2.043,2.043,0,0,0,1.7,3.176h14.3v22.465a2.043,2.043,0,0,0,3.741,1.134l24.507-36.761a2.043,2.043,0,0,0-1.7-3.176ZM172.423,168.57V150.8a2.042,2.042,0,0,0-2.042-2.042H157.859l18.648-27.979v17.768a2.042,2.042,0,0,0,2.042,2.042H191.07Zm0,0" transform="translate(-113.197 -83.407)" fill="#35485c"/></g></svg>