<?xml version="1.0" encoding="utf-8"?>
<svg xmlns="http://www.w3.org/2000/svg" width="56.847" height="65.136" viewBox="0 0 56.847 65.136"><path d="M48.719,8.578a105.083,105.083,0,0,1,5.9,24.014A85.647,85.647,0,0,1,54.224,57.1c-.693,4.156-3.087,6.7-5.641,7.62A5.839,5.839,0,0,1,43,64.044c-1.736-1.3-2.8-3.734-2.277-7.269a131.869,131.869,0,0,0,1.3-24.217,113.863,113.863,0,0,0-2.554-20.32,56.3,56.3,0,0,0-5.491,2.591c-1.508.815-3.1,1.769-4.791,2.912l4.6,10.816.333.778-.672.517-22.686,17.5c-2.113,1.642-4.632,1.155-6.717-.381a10.52,10.52,0,0,1-3.484-4.51C-.406,40-.232,37.612,1.9,35.862L24.611,18.338a61.742,61.742,0,0,1,8.326-5.449,58.612,58.612,0,0,1,6.022-2.819l-.044-.18A5.3,5.3,0,0,1,40.044,4.74,4.45,4.45,0,0,1,41.91,3.609a4.641,4.641,0,0,1,2.177-.125,5.339,5.339,0,0,1,3.821,3.05,16.925,16.925,0,0,0,3.332-2.113A17.2,17.2,0,0,0,54.972,0l1.873,1.155a19.4,19.4,0,0,1-4.2,4.96,19.269,19.269,0,0,1-3.925,2.464ZM31.441,28.632l-4.089-9.608q-.693.5-1.4,1.048L3.231,37.6c-1.293,1-1.155,2.688-.623,4.062A8.236,8.236,0,0,0,5.344,45.2c1.339.979,2.889,1.348,4.089.418Zm21.012,4.214A102.821,102.821,0,0,0,46.128,7.908a3.346,3.346,0,0,0-2.418-2.274,2.461,2.461,0,0,0-1.155.067,2.228,2.228,0,0,0-.947.573,3.26,3.26,0,0,0-.563,3.078,114.112,114.112,0,0,1,3.177,23.134,134.157,134.157,0,0,1-1.323,24.6c-.388,2.628.284,4.35,1.418,5.2a3.716,3.716,0,0,0,3.526.372c1.893-.693,3.676-2.665,4.226-5.927a83.609,83.609,0,0,0,.374-23.889Z" transform="translate(0.002 0)" fill="#9a6e49" fill-rule="evenodd"/></svg>