<svg height="32.28" viewBox="0 0 33.293 32.28" width="33.293" xmlns="http://www.w3.org/2000/svg"><g fill="#28af60" transform="translate(-7.89 -8)"><path d="m15.234 23.166-6.934-3.696a.781.781 0 0 1 .613-1.43l9.958 3.306zm9.81 5.232 7.1-2.648 4.418 1.467a6.832 6.832 0 1 1 -8.095 3zm9.307 2.361a2.928 2.928 0 1 0 2.928 2.928 2.928 2.928 0 0 0 -2.929-2.928z" opacity=".3" transform="translate(0 -.24)"/><path d="m34.35 17.76a2.928 2.928 0 1 0 -2.928-2.928 2.928 2.928 0 0 0 2.928 2.928zm-5.889.538a6.832 6.832 0 1 1 8.095 3l-27.639 9.182a.781.781 0 0 1 -.617-1.43z"/></g></svg>