<svg xmlns="http://www.w3.org/2000/svg" width="124.15" height="70.198" viewBox="0 0 124.15 70.198"><g transform="translate(-230.692 -5088.766)"><path d="M3.536-.048a4.059,4.059,0,0,0,1.856-.48A3.379,3.379,0,0,0,7.136-3.2a4.1,4.1,0,0,0,.048-.608A3.677,3.677,0,0,0,5.9-6.592.271.271,0,0,1,5.792-6.7.789.789,0,0,0,5.6-7.016q-.144-.152-.192-.2a2.215,2.215,0,0,0-1.632-.656,2.978,2.978,0,0,0-2.416,1.1A5.394,5.394,0,0,0,.3-4.512a6.329,6.329,0,0,0-.144,1.2,2.774,2.774,0,0,0,.032.5A2.861,2.861,0,0,0,1.136-.992a3.926,3.926,0,0,0,1.28.752A3.435,3.435,0,0,0,3.536-.048Zm.016-1.536a2.126,2.126,0,0,1-1.408-.544A1.229,1.229,0,0,1,1.7-3.1a3.918,3.918,0,0,1,.88-2.736A1.638,1.638,0,0,1,3.6-6.368h.112a.178.178,0,0,0,.08.016l.048.112a.776.776,0,0,0,.528.464.585.585,0,0,1,.224.08A2.348,2.348,0,0,1,5.664-3.648a1.971,1.971,0,0,1-.608,1.472A2.072,2.072,0,0,1,3.552-1.584ZM14.24-.192a.689.689,0,0,0,.528-.224.77.77,0,0,0,.208-.544,3.182,3.182,0,0,0-.016-.368l-.016-.352V-3.328a16.106,16.106,0,0,0-.16-2.064,3.451,3.451,0,0,0-.5-1.376,1.891,1.891,0,0,0-1.04-.848,2.485,2.485,0,0,0-.816-.144,2.153,2.153,0,0,0-1.264.432,3.732,3.732,0,0,0-.64.592,9.684,9.684,0,0,0-.608.8q-.048.08-.128.192L9.76-5.872l-.048-.656A2.585,2.585,0,0,0,9.7-6.864.815.815,0,0,0,9.44-7.3a.659.659,0,0,0-.448-.168.765.765,0,0,0-.5.168.653.653,0,0,0-.24.456,2.517,2.517,0,0,0-.016.64l.048.5a6.844,6.844,0,0,1,.1.928q.16,1.792.224,2.688L8.688-.96a.858.858,0,0,0,.24.52.665.665,0,0,0,.5.216.709.709,0,0,0,.52-.216.787.787,0,0,0,.232-.536,2.419,2.419,0,0,0,.016-.32q0-.112.008-.28t.04-.392q.192-1.12.32-1.664A4.636,4.636,0,0,1,11.632-5.76a2.1,2.1,0,0,1,.5-.416.71.71,0,0,1,.352-.112.644.644,0,0,1,.328.088.691.691,0,0,1,.248.248,1.428,1.428,0,0,1,.192.464,8.607,8.607,0,0,1,.144,1.072q.048.912.048,1.808.016.208.016.608,0,.32.032.992a.955.955,0,0,0,.048.3.729.729,0,0,0,.272.376A.73.73,0,0,0,14.24-.192Zm5.424.176a2.873,2.873,0,0,0,1.7-.472,3.408,3.408,0,0,0,1.08-1.336l.032-.1a.673.673,0,0,0,.016-.16.671.671,0,0,0-.224-.512A.813.813,0,0,0,21.7-2.8a.824.824,0,0,0-.688.368l-.32.5a.923.923,0,0,1-.64.4,2.292,2.292,0,0,1-.448.048,2.1,2.1,0,0,1-1.328-.5,1.645,1.645,0,0,1-.48-.664,3.37,3.37,0,0,1-.192-.888q.224,0,.672.032.544.032.8.032a6.059,6.059,0,0,0,.944-.064,4.608,4.608,0,0,0,1.584-.5,1.624,1.624,0,0,0,.9-1.488,1.773,1.773,0,0,0-.544-1.232,3.908,3.908,0,0,0-1.472-.992,3.17,3.17,0,0,0-1.072-.208,3.4,3.4,0,0,0-.384.032,4.8,4.8,0,0,0-1.072.272A2.826,2.826,0,0,0,16.16-5.776a5.415,5.415,0,0,0-.224,1.584,5.931,5.931,0,0,0,.3,1.888,3.168,3.168,0,0,0,1.3,1.664A3.773,3.773,0,0,0,19.664-.016ZM19.04-4.944q-.8-.032-1.216-.064l-.208-.016a2.5,2.5,0,0,1,.256-.736.372.372,0,0,1,.064-.1.251.251,0,0,0,.048-.064,1.54,1.54,0,0,1,.624-.4,2.225,2.225,0,0,1,.8-.16,1.064,1.064,0,0,1,.336.048,2.21,2.21,0,0,1,1.024.672.4.4,0,0,1,.1.16.355.355,0,0,1,.016.112.27.27,0,0,1-.16.224,2.358,2.358,0,0,1-.96.272A5.564,5.564,0,0,1,19.04-4.944Zm13.7,4.832a2.438,2.438,0,0,0,2.4-1.376.871.871,0,0,0,.08-.32.711.711,0,0,0-.128-.4.892.892,0,0,0-.352-.3.985.985,0,0,0-.416-.1.968.968,0,0,0-.424.1.858.858,0,0,0-.328.272,1.108,1.108,0,0,0-.1.152,1.108,1.108,0,0,1-.1.152.529.529,0,0,1-.256.176,1.333,1.333,0,0,1-.352.048,1.024,1.024,0,0,1-.352-.064,1.46,1.46,0,0,1-1.04-.976,4.873,4.873,0,0,1-.176-1.264,4.234,4.234,0,0,1,.064-.784,5.164,5.164,0,0,1,.48-1.44.727.727,0,0,1,.64-.384,1.92,1.92,0,0,1,.272.032,2.548,2.548,0,0,1,.528.176.867.867,0,0,1,.592.56,1.182,1.182,0,0,0,.128.208.933.933,0,0,0,.672.3,1,1,0,0,0,.528-.136.753.753,0,0,0,.32-.392.54.54,0,0,0,.064-.272.645.645,0,0,0-.048-.256,1.887,1.887,0,0,0-.672-.992A3.888,3.888,0,0,0,32.4-8.208a2.422,2.422,0,0,0-2.176,1.1l-.256.464a6.36,6.36,0,0,0-.592,2.56,7.15,7.15,0,0,0,.3,1.9,2.5,2.5,0,0,0,.656,1.032,3.691,3.691,0,0,0,1.12.752A3.171,3.171,0,0,0,32.736-.112Zm5.392-.016a.775.775,0,0,0,.52-.184A.687.687,0,0,0,38.9-.768V-.9a1.76,1.76,0,0,0-.016-.272q0-.48-.032-1.5-.032-2.848-.064-4.24l-.064-3.536a3.38,3.38,0,0,1,.032-.368l.016-.128a.728.728,0,0,0-.232-.544.807.807,0,0,0-.584-.224.885.885,0,0,0-.44.112.784.784,0,0,0-.312.32,2.049,2.049,0,0,0-.112.368q-.016.256-.016.8,0,.944.064,2.8,0,.448.032,1.344H37.2v3.84q0,.32.032.96a1.556,1.556,0,0,0,.128.608.879.879,0,0,0,.336.32A.9.9,0,0,0,38.128-.128ZM41.264-8.5a.924.924,0,0,0,.384-.1l.24-.112a.867.867,0,0,0,.376-.328A.869.869,0,0,0,42.4-9.5a.881.881,0,0,0-.28-.656.9.9,0,0,0-.648-.272,1.179,1.179,0,0,0-.792.3.924.924,0,0,0-.344.728.889.889,0,0,0,.264.64A.887.887,0,0,0,41.264-8.5Zm.1,8.352a.725.725,0,0,0,.256.048.765.765,0,0,0,.36-.088.78.78,0,0,0,.28-.248A.7.7,0,0,0,42.4-.864a.681.681,0,0,0-.176-.448.7.7,0,0,1-.176-.432V-4.256h-.032V-4.7q0-.7-.032-2.08a.561.561,0,0,0-.016-.16.67.67,0,0,0-.232-.432.671.671,0,0,0-.456-.176.716.716,0,0,0-.5.184.666.666,0,0,0-.216.472q-.016.224-.016.7v.72q0,.208.032.624l.016.608v2.224a4.2,4.2,0,0,0,.048.624,1.807,1.807,0,0,0,.3.88A1.043,1.043,0,0,0,41.36-.144Zm5.36.032a2.438,2.438,0,0,0,2.4-1.376.871.871,0,0,0,.08-.32.711.711,0,0,0-.128-.4.892.892,0,0,0-.352-.3.985.985,0,0,0-.416-.1.968.968,0,0,0-.424.1.858.858,0,0,0-.328.272,1.108,1.108,0,0,0-.1.152,1.108,1.108,0,0,1-.1.152.529.529,0,0,1-.256.176,1.333,1.333,0,0,1-.352.048,1.024,1.024,0,0,1-.352-.064,1.46,1.46,0,0,1-1.04-.976,4.873,4.873,0,0,1-.176-1.264,4.234,4.234,0,0,1,.064-.784,5.164,5.164,0,0,1,.48-1.44.727.727,0,0,1,.64-.384,1.92,1.92,0,0,1,.272.032,2.548,2.548,0,0,1,.528.176.867.867,0,0,1,.592.56,1.182,1.182,0,0,0,.128.208.933.933,0,0,0,.672.3,1,1,0,0,0,.528-.136.753.753,0,0,0,.32-.392.54.54,0,0,0,.064-.272.645.645,0,0,0-.048-.256,1.887,1.887,0,0,0-.672-.992,3.888,3.888,0,0,0-2.352-.816,2.422,2.422,0,0,0-2.176,1.1l-.256.464a6.36,6.36,0,0,0-.592,2.56,7.15,7.15,0,0,0,.3,1.9,2.5,2.5,0,0,0,.656,1.032,3.691,3.691,0,0,0,1.12.752A3.171,3.171,0,0,0,46.72-.112Zm5.088.08A.713.713,0,0,0,52.3-.208a.842.842,0,0,0,.264-.464.656.656,0,0,0,0-.288l-.1-1.984v-.24l.128.1a6.527,6.527,0,0,0,1.488.96q.864.448,1.3.656l.416.24a.852.852,0,0,0,.384.1.853.853,0,0,0,.192-.016.71.71,0,0,0,.56-.752.677.677,0,0,0-.32-.576,2.915,2.915,0,0,0-.512-.288l-1.488-.768a6.059,6.059,0,0,1-1.056-.7,1.305,1.305,0,0,1-.4-.48.377.377,0,0,1-.048-.16.29.29,0,0,1,.1-.208,6.72,6.72,0,0,1,1.232-1.1l1.184-.816a1.661,1.661,0,0,0,.4-.368.688.688,0,0,0,.128-.416.7.7,0,0,0-.24-.56.706.706,0,0,0-.5-.192.786.786,0,0,0-.5.192l-.208.144q-.864.576-1.328.912a6.737,6.737,0,0,0-.9.784l-.048.032-.016-.1L52.4-9.648a1.536,1.536,0,0,1,.1-.544.9.9,0,0,0,.032-.208.75.75,0,0,0-.24-.544.786.786,0,0,0-.576-.24.7.7,0,0,0-.408.128.82.82,0,0,0-.28.336,1.489,1.489,0,0,0-.08.368l-.016.336q-.032.448-.032.656v3.52q0,1.472.128,4.352a7.656,7.656,0,0,0,.064.816.729.729,0,0,0,.248.456A.786.786,0,0,0,51.808-.032ZM64.736-8.5a.924.924,0,0,0,.384-.1l.24-.112a.867.867,0,0,0,.376-.328.869.869,0,0,0,.136-.472.881.881,0,0,0-.28-.656.9.9,0,0,0-.648-.272,1.179,1.179,0,0,0-.792.3.924.924,0,0,0-.344.728.889.889,0,0,0,.264.64A.887.887,0,0,0,64.736-8.5Zm.1,8.352a.725.725,0,0,0,.256.048.765.765,0,0,0,.36-.088.78.78,0,0,0,.28-.248.7.7,0,0,0,.144-.432.681.681,0,0,0-.176-.448.7.7,0,0,1-.176-.432V-4.256h-.032V-4.7q0-.7-.032-2.08a.561.561,0,0,0-.016-.16.67.67,0,0,0-.232-.432.671.671,0,0,0-.456-.176.716.716,0,0,0-.5.184.666.666,0,0,0-.216.472q-.016.224-.016.7v.72q0,.208.032.624l.016.608v2.224a4.2,4.2,0,0,0,.048.624,1.807,1.807,0,0,0,.3.88A1.043,1.043,0,0,0,64.832-.144Zm8.336-.048A.689.689,0,0,0,73.7-.416.77.77,0,0,0,73.9-.96a3.183,3.183,0,0,0-.016-.368l-.016-.352V-3.328a16.106,16.106,0,0,0-.16-2.064,3.451,3.451,0,0,0-.5-1.376,1.891,1.891,0,0,0-1.04-.848,2.485,2.485,0,0,0-.816-.144,2.153,2.153,0,0,0-1.264.432,3.732,3.732,0,0,0-.64.592,9.684,9.684,0,0,0-.608.8q-.048.08-.128.192l-.032-.128-.048-.656a2.586,2.586,0,0,0-.016-.336.815.815,0,0,0-.256-.44.659.659,0,0,0-.448-.168.765.765,0,0,0-.5.168.654.654,0,0,0-.24.456,2.517,2.517,0,0,0-.016.64l.048.5a6.846,6.846,0,0,1,.1.928q.16,1.792.224,2.688l.08,1.136a.858.858,0,0,0,.24.52.665.665,0,0,0,.5.216.709.709,0,0,0,.52-.216A.787.787,0,0,0,69.1-.976a2.419,2.419,0,0,0,.016-.32q0-.112.008-.28t.04-.392q.192-1.12.32-1.664A4.636,4.636,0,0,1,70.56-5.76a2.1,2.1,0,0,1,.5-.416.71.71,0,0,1,.352-.112.644.644,0,0,1,.328.088.691.691,0,0,1,.248.248,1.428,1.428,0,0,1,.192.464,8.607,8.607,0,0,1,.144,1.072q.048.912.048,1.808.016.208.016.608,0,.32.032.992a.955.955,0,0,0,.048.3.728.728,0,0,0,.272.376A.73.73,0,0,0,73.168-.192Zm4.384.224A2.227,2.227,0,0,0,78.9-.352a1.991,1.991,0,0,0,.912-1.68,1.9,1.9,0,0,0-.016-.288,2.894,2.894,0,0,0-1.808-2.512q-.848-.336-.976-.384a.865.865,0,0,1-.544-.592.9.9,0,0,1-.032-.208.5.5,0,0,1,.216-.416.931.931,0,0,1,.568-.16,2.036,2.036,0,0,1,.544.08.4.4,0,0,1,.24.128.753.753,0,0,0,.5.208.6.6,0,0,0,.24-.048.649.649,0,0,0,.5-.56.485.485,0,0,0,.016-.144.781.781,0,0,0-.144-.416,1.122,1.122,0,0,0-.592-.432,3.634,3.634,0,0,0-1.3-.256,3.037,3.037,0,0,0-.528.048,2.236,2.236,0,0,0-1.248.7,1.823,1.823,0,0,0-.48,1.256,2.046,2.046,0,0,0,.064.528,2.313,2.313,0,0,0,1.392,1.6l1.008.4a1.231,1.231,0,0,1,.664.576,1.669,1.669,0,0,1,.232.816.724.724,0,0,1-.152.464.593.593,0,0,1-.408.224,1.761,1.761,0,0,1-.272.016,1.98,1.98,0,0,1-.512-.064.844.844,0,0,1-.44-.3.752.752,0,0,1-.168-.472.81.81,0,0,0-.2-.56.664.664,0,0,0-.52-.224.714.714,0,0,0-.36.1.857.857,0,0,0-.28.256.85.85,0,0,0-.144.5A2.3,2.3,0,0,0,75.52-.72a1.934,1.934,0,0,0,.864.56A3.311,3.311,0,0,0,77.552.032Zm6.5-.24a.978.978,0,0,0,.768-.4.6.6,0,0,0,.16-.416.565.565,0,0,0-.048-.224.675.675,0,0,0-.28-.368.8.8,0,0,0-.44-.128,1.357,1.357,0,0,0-.336.064.377.377,0,0,1-.16.048q-.064,0-.16-.112a.5.5,0,0,1-.128-.176,5.018,5.018,0,0,1-.176-.48,7.385,7.385,0,0,1-.192-1.5l-.032-3.168.016-.144.208-.016.816-.128a.9.9,0,0,0,.5-.208.667.667,0,0,0,.256-.512.67.67,0,0,0-.16-.456.8.8,0,0,0-.432-.248A.485.485,0,0,0,84.08-8.8a1.377,1.377,0,0,0-.256.032l-.36.048q-.232.032-.408.048v-.16l.064-1.04.016-.416a.689.689,0,0,0-.224-.528.75.75,0,0,0-.528-.208.682.682,0,0,0-.24.032.676.676,0,0,0-.544.608q-.048.32-.08,1.024,0,.064-.048.832h-.384a2.108,2.108,0,0,1-.288.016,2.108,2.108,0,0,0-.288.016.726.726,0,0,0-.5.224.691.691,0,0,0-.2.5.627.627,0,0,0,.184.448.745.745,0,0,0,.472.224,2.369,2.369,0,0,0,.336.016h.656v1.536A21.1,21.1,0,0,0,81.6-2.784a4.535,4.535,0,0,0,.368,1.36,2.385,2.385,0,0,0,.528.752,1.761,1.761,0,0,0,1.216.5A2.608,2.608,0,0,0,84.048-.208Zm7.824.256a.721.721,0,0,0,.48-.176.816.816,0,0,0,.272-.448,2.586,2.586,0,0,0,.016-.336l-.016-1.136q-.032-1.5-.032-2.288l.016-1.744a2.033,2.033,0,0,0-.016-.232.721.721,0,0,1,0-.216.864.864,0,0,0-.32-.72,2.36,2.36,0,0,0-.7-.416,4.248,4.248,0,0,0-1.1-.24,3.843,3.843,0,0,0-.4-.016,4.16,4.16,0,0,0-2.976,1.232,4.629,4.629,0,0,0-1.472,3.456,5.449,5.449,0,0,0,.048.7,2.627,2.627,0,0,0,.88,1.7,2.532,2.532,0,0,0,1.712.656A2.628,2.628,0,0,0,89.632-.56a5.857,5.857,0,0,0,.976-.752,2.054,2.054,0,0,1,.2-.176,2.055,2.055,0,0,0,.2-.176l.032.736q0,.064.008.16a1.432,1.432,0,0,0,.04.224.758.758,0,0,0,.28.424A.8.8,0,0,0,91.872.048Zm-3.616-1.84a1,1,0,0,1-.592-.192.865.865,0,0,1-.352-.512,2.846,2.846,0,0,1-.1-.72,3.436,3.436,0,0,1,.032-.4,3.286,3.286,0,0,1,.608-1.536A2.9,2.9,0,0,1,89.84-6.32a1.208,1.208,0,0,1,.224-.016,3.589,3.589,0,0,1,.864.144l-.128.768a9.2,9.2,0,0,1-.416,1.584,3.741,3.741,0,0,1-1.232,1.68,2.837,2.837,0,0,1-.44.272A1.041,1.041,0,0,1,88.256-1.792Zm6.72,1.664a.775.775,0,0,0,.52-.184.687.687,0,0,0,.248-.456V-.9a1.761,1.761,0,0,0-.016-.272q0-.48-.032-1.5-.032-2.848-.064-4.24l-.064-3.536a3.381,3.381,0,0,1,.032-.368l.016-.128a.728.728,0,0,0-.232-.544.807.807,0,0,0-.584-.224.885.885,0,0,0-.44.112.784.784,0,0,0-.312.32,2.049,2.049,0,0,0-.112.368q-.016.256-.016.8,0,.944.064,2.8,0,.448.032,1.344h.032v3.84q0,.32.032.96a1.556,1.556,0,0,0,.128.608.879.879,0,0,0,.336.32A.9.9,0,0,0,94.976-.128Zm3.264,0a.775.775,0,0,0,.52-.184.687.687,0,0,0,.248-.456V-.9a1.761,1.761,0,0,0-.016-.272q0-.48-.032-1.5-.032-2.848-.064-4.24l-.064-3.536a3.381,3.381,0,0,1,.032-.368l.016-.128a.728.728,0,0,0-.232-.544.807.807,0,0,0-.584-.224.885.885,0,0,0-.44.112.784.784,0,0,0-.312.32,2.049,2.049,0,0,0-.112.368q-.016.256-.016.8,0,.944.064,2.8,0,.448.032,1.344h.032v3.84q0,.32.032.96a1.556,1.556,0,0,0,.128.608.879.879,0,0,0,.336.32A.9.9,0,0,0,98.24-.128Zm8.224.176a.721.721,0,0,0,.48-.176.816.816,0,0,0,.272-.448,2.586,2.586,0,0,0,.016-.336l-.016-1.136q-.032-1.5-.032-2.288L107.2-6.08a2.033,2.033,0,0,0-.016-.232.721.721,0,0,1,0-.216.864.864,0,0,0-.32-.72,2.36,2.36,0,0,0-.7-.416,4.248,4.248,0,0,0-1.1-.24,3.843,3.843,0,0,0-.4-.016,4.16,4.16,0,0,0-2.976,1.232,4.629,4.629,0,0,0-1.472,3.456,5.449,5.449,0,0,0,.048.7,2.627,2.627,0,0,0,.88,1.7,2.532,2.532,0,0,0,1.712.656,2.628,2.628,0,0,0,1.376-.384,5.857,5.857,0,0,0,.976-.752,2.054,2.054,0,0,1,.2-.176,2.055,2.055,0,0,0,.2-.176l.032.736q0,.064.008.16a1.432,1.432,0,0,0,.04.224.758.758,0,0,0,.28.424A.8.8,0,0,0,106.464.048Zm-3.616-1.84a1,1,0,0,1-.592-.192A.865.865,0,0,1,101.9-2.5a2.846,2.846,0,0,1-.1-.72,3.436,3.436,0,0,1,.032-.4,3.286,3.286,0,0,1,.608-1.536,2.9,2.9,0,0,1,1.984-1.168,1.208,1.208,0,0,1,.224-.016,3.589,3.589,0,0,1,.864.144l-.128.768a9.2,9.2,0,0,1-.416,1.584,3.741,3.741,0,0,1-1.232,1.68,2.837,2.837,0,0,1-.44.272A1.041,1.041,0,0,1,102.848-1.792Zm9.264,1.584a.978.978,0,0,0,.768-.4.6.6,0,0,0,.16-.416.565.565,0,0,0-.048-.224.675.675,0,0,0-.28-.368.8.8,0,0,0-.44-.128,1.357,1.357,0,0,0-.336.064.377.377,0,0,1-.16.048q-.064,0-.16-.112a.5.5,0,0,1-.128-.176,5.018,5.018,0,0,1-.176-.48,7.385,7.385,0,0,1-.192-1.5l-.032-3.168.016-.144.208-.016.816-.128a.9.9,0,0,0,.5-.208.667.667,0,0,0,.256-.512.67.67,0,0,0-.16-.456.8.8,0,0,0-.432-.248.485.485,0,0,0-.144-.016,1.377,1.377,0,0,0-.256.032l-.36.048q-.232.032-.408.048v-.16l.064-1.04.016-.416a.689.689,0,0,0-.224-.528.75.75,0,0,0-.528-.208.682.682,0,0,0-.24.032.676.676,0,0,0-.544.608q-.048.32-.08,1.024,0,.064-.048.832h-.384a2.108,2.108,0,0,1-.288.016,2.108,2.108,0,0,0-.288.016.726.726,0,0,0-.5.224.691.691,0,0,0-.2.5.627.627,0,0,0,.184.448.745.745,0,0,0,.472.224,2.369,2.369,0,0,0,.336.016h.656v1.536a21.1,21.1,0,0,0,.144,2.768,4.535,4.535,0,0,0,.368,1.36,2.385,2.385,0,0,0,.528.752,1.761,1.761,0,0,0,1.216.5A2.608,2.608,0,0,0,112.112-.208Zm2.5-8.288a.924.924,0,0,0,.384-.1l.24-.112a.867.867,0,0,0,.376-.328.869.869,0,0,0,.136-.472.881.881,0,0,0-.28-.656.9.9,0,0,0-.648-.272,1.179,1.179,0,0,0-.792.3.924.924,0,0,0-.344.728.889.889,0,0,0,.264.64A.887.887,0,0,0,114.608-8.5Zm.1,8.352a.725.725,0,0,0,.256.048.765.765,0,0,0,.36-.088.78.78,0,0,0,.28-.248.7.7,0,0,0,.144-.432.681.681,0,0,0-.176-.448.7.7,0,0,1-.176-.432V-4.256h-.032V-4.7q0-.7-.032-2.08a.561.561,0,0,0-.016-.16.67.67,0,0,0-.232-.432.671.671,0,0,0-.456-.176.716.716,0,0,0-.5.184.666.666,0,0,0-.216.472q-.016.224-.016.7v.72q0,.208.032.624l.016.608v2.224a4.2,4.2,0,0,0,.048.624,1.807,1.807,0,0,0,.3.88A1.043,1.043,0,0,0,114.7-.144Zm5.536.1a4.059,4.059,0,0,0,1.856-.48A3.379,3.379,0,0,0,123.84-3.2a4.105,4.105,0,0,0,.048-.608,3.677,3.677,0,0,0-1.28-2.784A.271.271,0,0,1,122.5-6.7a.789.789,0,0,0-.192-.312q-.144-.152-.192-.2a2.215,2.215,0,0,0-1.632-.656,2.978,2.978,0,0,0-2.416,1.1,5.394,5.394,0,0,0-1.056,2.256,6.329,6.329,0,0,0-.144,1.2,2.774,2.774,0,0,0,.032.5,2.861,2.861,0,0,0,.944,1.824,3.926,3.926,0,0,0,1.28.752A3.435,3.435,0,0,0,120.24-.048Zm.016-1.536a2.126,2.126,0,0,1-1.408-.544A1.229,1.229,0,0,1,118.4-3.1a3.918,3.918,0,0,1,.88-2.736,1.638,1.638,0,0,1,1.024-.528h.112a.178.178,0,0,0,.08.016l.048.112a.776.776,0,0,0,.528.464.585.585,0,0,1,.224.08,2.348,2.348,0,0,1,1.072,2.048,1.971,1.971,0,0,1-.608,1.472A2.072,2.072,0,0,1,120.256-1.584ZM130.944-.192a.689.689,0,0,0,.528-.224.77.77,0,0,0,.208-.544,3.182,3.182,0,0,0-.016-.368l-.016-.352V-3.328a16.107,16.107,0,0,0-.16-2.064,3.451,3.451,0,0,0-.5-1.376,1.891,1.891,0,0,0-1.04-.848,2.485,2.485,0,0,0-.816-.144,2.153,2.153,0,0,0-1.264.432,3.732,3.732,0,0,0-.64.592,9.684,9.684,0,0,0-.608.8q-.048.08-.128.192l-.032-.128-.048-.656a2.586,2.586,0,0,0-.016-.336.815.815,0,0,0-.256-.44.659.659,0,0,0-.448-.168.765.765,0,0,0-.5.168.654.654,0,0,0-.24.456,2.517,2.517,0,0,0-.016.64l.048.5a6.846,6.846,0,0,1,.1.928q.16,1.792.224,2.688l.08,1.136a.858.858,0,0,0,.24.52.665.665,0,0,0,.5.216.709.709,0,0,0,.52-.216.787.787,0,0,0,.232-.536,2.419,2.419,0,0,0,.016-.32q0-.112.008-.28t.04-.392q.192-1.12.32-1.664a4.636,4.636,0,0,1,1.072-2.128,2.1,2.1,0,0,1,.5-.416.71.71,0,0,1,.352-.112.644.644,0,0,1,.328.088.691.691,0,0,1,.248.248,1.427,1.427,0,0,1,.192.464,8.606,8.606,0,0,1,.144,1.072q.048.912.048,1.808.016.208.016.608,0,.32.032.992a.955.955,0,0,0,.048.3.728.728,0,0,0,.272.376A.729.729,0,0,0,130.944-.192Z" transform="matrix(0.891, -0.454, 0.454, 0.891, 235.867, 5158.982)" fill="#162c35"/><path d="M44,3.552a21.048,21.048,0,0,1-6.651-1.736,1.131,1.131,0,0,0-1.672.959,3.843,3.843,0,0,0,.361,2.009A64.4,64.4,0,0,1,.6.038c-.452-.2-.85.426-.4.679A55.18,55.18,0,0,0,36.774,6.65a17.66,17.66,0,0,1,.6,2.375.711.711,0,0,0,1.1.479,1.157,1.157,0,0,0,.554-.122A37.742,37.742,0,0,0,44.8,5.494C45.672,4.823,44.854,3.633,44,3.552Z" transform="translate(312.668 5133.802) rotate(21)" fill="#222"/></g></svg>