<?xml version="1.0" encoding="utf-8"?>
<!-- Generator: Adobe Illustrator 19.2.1, SVG Export Plug-In . SVG Version: 6.00 Build 0)  -->
<svg xmlns="http://www.w3.org/2000/svg" xmlns:xlink="http://www.w3.org/1999/xlink" version="1.1" id="Layer" x="0px" y="0px" width="512" height="512" viewBox="0 0 64 64" enable-background="new 0 0 64 64" xml:space="preserve">
<circle fill="#CCE4FF" cx="32" cy="32" r="6"/>
<path fill="#CCE4FF" d="M32,10c-12.15,0-22,9.85-22,22c0,8.55,4.88,15.96,12,19.6V44c0-0.35,0.03-0.7,0.09-1.03  c0.02-0.14,0.05-0.28,0.09-0.41c0.03-0.16,0.08-0.31,0.13-0.46C19.65,39.55,18,35.97,18,32c0-7.73,6.27-14,14-14s14,6.27,14,14  c0,3.97-1.65,7.55-4.31,10.1c0.05,0.15,0.1,0.3,0.13,0.46c0.04,0.13,0.07,0.27,0.09,0.41C41.97,43.3,42,43.65,42,44v7.6  c7.12-3.64,12-11.05,12-19.6C54,19.85,44.15,10,32,10z"/>
<path fill="#007AFF" d="M32,9C19.318,9,9,19.317,9,32c0,8.475,4.587,16.145,12,20.188V54c0,0.553,0.448,1,1,1h20  c0.552,0,1-0.447,1-1v-1.813C50.413,48.145,55,40.475,55,32C55,19.317,44.682,9,32,9z M41.956,40.353  c-0.07-0.115-0.126-0.233-0.203-0.346c-0.006-0.008-0.012-0.016-0.018-0.024c0,0,0,0,0,0c-0.001-0.001-0.001-0.001-0.002-0.002  c-0.084-0.115-0.173-0.232-0.276-0.365c-0.015-0.019-0.032-0.045-0.048-0.063c-0.002-0.003-0.005-0.005-0.008-0.008  c-0.005-0.006-0.008-0.011-0.013-0.017c-0.135-0.157-0.281-0.314-0.441-0.476c-0.005-0.005-0.01-0.009-0.015-0.013  c-0.004-0.003-0.007-0.008-0.01-0.011c-0.002-0.002-0.005-0.003-0.008-0.005c-0.398-0.392-0.847-0.743-1.359-1.052  c-0.126-0.075-0.254-0.148-0.332-0.182c-0.007-0.004-0.014-0.005-0.021-0.009c-0.014-0.007-0.026-0.015-0.04-0.021  c-0.008-0.004-0.016-0.002-0.024-0.006c-0.288-0.149-0.589-0.282-0.904-0.383c-0.022-0.009-0.037-0.01-0.058-0.018  c-0.001,0-0.002-0.001-0.003-0.002c-0.035-0.011-0.07-0.02-0.104-0.031c-0.055-0.016-0.117-0.039-0.164-0.05  c-0.126-0.045-0.246-0.077-0.32-0.089c-0.008-0.002-0.013-0.003-0.021-0.005c-0.023-0.006-0.057-0.013-0.091-0.02  c-0.077-0.017-0.154-0.03-0.209-0.036c0,0-0.001,0-0.001,0c-0.02-0.003-0.039-0.008-0.06-0.011c-0.003,0-0.005,0.001-0.008,0.001  c-0.12-0.022-0.243-0.038-0.366-0.053C38.163,35.78,39,33.987,39,32c0-3.859-3.14-7-7-7s-7,3.141-7,7  c0,1.987,0.836,3.78,2.171,5.055c-0.127,0.016-0.256,0.03-0.372,0.053c0,0-0.001,0-0.001,0c-0.006,0.001-0.013,0.002-0.019,0.003  c-0.122,0.016-0.241,0.035-0.261,0.045c-0.012,0.002-0.023,0.007-0.035,0.009c-0.048,0.01-0.097,0.022-0.123,0.029  c-0.074,0.019-0.145,0.04-0.216,0.062c-0.016,0.005-0.033,0.008-0.049,0.013c-0.048,0.011-0.112,0.035-0.168,0.051  c-0.042,0.013-0.079,0.022-0.125,0.038l0,0.001c-0.013,0.005-0.023,0.006-0.036,0.011c-0.345,0.11-0.675,0.25-0.928,0.389  c-0.138,0.063-0.266,0.137-0.414,0.225c-0.489,0.296-0.936,0.646-1.336,1.039c-0.003,0.002-0.006,0.003-0.009,0.005  c-0.005,0.004-0.008,0.009-0.012,0.013c-0.005,0.005-0.011,0.009-0.016,0.014c-0.067,0.067-0.134,0.146-0.199,0.216  c-0.082,0.088-0.175,0.175-0.244,0.261c-0.005,0.006-0.011,0.015-0.016,0.021c-0.003,0.003-0.005,0.005-0.008,0.009  c-0.05,0.064-0.099,0.133-0.147,0.196c-0.062,0.082-0.122,0.155-0.189,0.249l0.001,0.001c-0.005,0.007-0.01,0.012-0.015,0.02  c-0.071,0.104-0.125,0.217-0.19,0.325C20.074,38.018,19,35.101,19,32c0-7.168,5.832-13,13-13s13,5.832,13,13  C45,35.101,43.926,38.019,41.956,40.353z M27,32c0-2.757,2.243-5,5-5s5,2.243,5,5s-2.243,5-5,5S27,34.757,27,32z M41,53H23v-9  c0-0.292,0.025-0.586,0.08-0.889c0.012-0.082,0.03-0.164,0.053-0.242c0.006-0.023,0.01-0.041,0.017-0.066  c0.032-0.128,0.064-0.249,0.104-0.37c0.002-0.006,0.003-0.012,0.005-0.018c0.15-0.45,0.355-0.863,0.614-1.243  c0.049-0.069,0.091-0.122,0.137-0.183c0.041-0.055,0.078-0.108,0.128-0.168c0.103-0.119,0.213-0.237,0.328-0.354  c0.292-0.291,0.625-0.551,1.002-0.778c0.058-0.035,0.117-0.07,0.18-0.1c0.025-0.013,0.044-0.024,0.076-0.039  c0.213-0.115,0.444-0.212,0.685-0.287c0.036-0.011,0.149-0.041,0.184-0.056c0.054-0.012,0.196-0.051,0.248-0.072l0.057-0.015  c0.04-0.006,0.079-0.014,0.117-0.021l0.049-0.009c0.021-0.003,0.037-0.016,0.058-0.02l0.004,0.009C27.398,39.026,27.684,39,28,39h8  c0.316,0,0.602,0.026,0.957,0.094l0.025,0.005c0.001,0,0.002,0.001,0.004,0.001c0.039,0.008,0.078,0.016,0.117,0.021l0.146,0.038  c0.052,0.021,0.105,0.037,0.159,0.049c0.049,0.011,0.098,0.028,0.147,0.044c0,0,0.026,0.009,0.027,0.009  c0.001,0,0.002,0,0.003,0.001c0.002,0.001,0.004,0.002,0.006,0.002c0.241,0.075,0.472,0.172,0.746,0.317  c0.069,0.031,0.132,0.07,0.206,0.115c0.366,0.221,0.699,0.48,0.988,0.769c0.058,0.058,0.097,0.103,0.148,0.157  c0.059,0.062,0.119,0.119,0.181,0.196c0.092,0.118,0.177,0.229,0.25,0.329c0,0,0.003,0.005,0.006,0.009  c0.271,0.399,0.476,0.811,0.626,1.261c0.028,0.083,0.053,0.169,0.075,0.255c0.015,0.056,0.03,0.111,0.048,0.18  c0.025,0.082,0.044,0.171,0.063,0.296C40.975,43.414,41,43.708,41,44V53z M43,49.886V44c0-0.416-0.036-0.822-0.1-1.172  c-0.024-0.168-0.059-0.328-0.095-0.454C45.505,39.57,47,35.917,47,32c0-8.271-6.729-15-15-15s-15,6.729-15,15  c0,3.918,1.495,7.571,4.196,10.375c-0.039,0.145-0.073,0.293-0.09,0.416c-0.001,0.006-0.001,0.012-0.002,0.018  c-0.001,0.007-0.003,0.013-0.004,0.02c-0.001,0.006,0.002,0.012,0.001,0.018C21.037,43.217,21,43.603,21,44v5.886  C14.794,46.075,11,39.368,11,32c0-11.579,9.42-21,21-21s21,9.421,21,21C53,39.368,49.206,46.075,43,49.886z"/>
</svg>
