<?xml version="1.0" encoding="utf-8"?>
<!-- Generator: Adobe Illustrator 19.2.1, SVG Export Plug-In . SVG Version: 6.00 Build 0)  -->
<svg xmlns="http://www.w3.org/2000/svg" xmlns:xlink="http://www.w3.org/1999/xlink" version="1.1" id="Layer" x="0px" y="0px" width="512" height="512" viewBox="0 0 64 64" enable-background="new 0 0 64 64" xml:space="preserve">
<polygon fill="#CCE4FF" points="18,26 18,34 26,34 26,40 33,34 38,34 54,34 54,26 38,26 "/>
<path fill="#CCE4FF" d="M38,14c0-2.21-1.79-4-4-4H14c-2.21,0-4,1.79-4,4v4h28V14z"/>
<path fill="#007AFF" d="M30,47H18c-0.552,0-1,0.447-1,1s0.448,1,1,1h12c0.552,0,1-0.447,1-1S30.552,47,30,47z"/>
<path fill="#007AFF" d="M54,25H39V14c0-2.757-2.243-5-5-5H14c-2.757,0-5,2.243-5,5v36c0,2.757,2.243,5,5,5h20c2.757,0,5-2.243,5-5  V35h15c0.552,0,1-0.447,1-1v-8C55,25.448,54.552,25,54,25z M14,11h20c1.654,0,3,1.346,3,3v3H11v-3C11,12.346,12.346,11,14,11z   M37,50c0,1.654-1.346,3-3,3H14c-1.654,0-3-1.346-3-3V19h26v6H18c-0.552,0-1,0.448-1,1v8c0,0.553,0.448,1,1,1h7v5  c0,0.391,0.228,0.745,0.582,0.908C25.716,40.97,25.858,41,26,41c0.234,0,0.466-0.082,0.651-0.241L33.37,35H37V50z M53,33H33  c-0.239,0-0.47,0.085-0.651,0.241L27,37.826V34c0-0.553-0.448-1-1-1h-7v-6h34V33z"/>
</svg>
