<svg xmlns="http://www.w3.org/2000/svg" width="36" height="40" viewBox="0 0 36 40"><g transform="translate(-6 -4)"><path d="M11.494,26.085A12,12,0,1,1,29.622,13H34.5a7.5,7.5,0,0,1,0,15h-18A7.472,7.472,0,0,1,11.494,26.085Z" fill="#fff" fill-rule="evenodd" opacity="0.19"/><path d="M20.734,31.164v2.724h-2.8a.7.7,0,0,0-.7.7v1.425a.7.7,0,0,0,.7.7h2.8v2.724a.7.7,0,0,0,1.146.531l4.881-4.133a.7.7,0,0,0,0-1.063L21.88,30.632a.7.7,0,0,0-1.146.531Z" transform="translate(-11.404 61.242) rotate(-90)" fill="#fff"/></g></svg>