<svg xmlns="http://www.w3.org/2000/svg" width="37.584" height="25.704" viewBox="0 0 37.584 25.704"><g transform="translate(-6.632 -15.195)"><path d="M9.316,14H20.37a3.316,3.316,0,0,1,0,6.632H9.316a3.316,3.316,0,0,1,0-6.632Zm19.9,17.686H40.267a3.316,3.316,0,1,1,0,6.632H29.213a3.316,3.316,0,1,1,0-6.632Z" transform="translate(0.632 2.581)" fill="#fff" fill-rule="evenodd" opacity="0.202"/><path d="M31.7,21.016a5.508,5.508,0,1,1,5.508-5.508A5.508,5.508,0,0,1,31.7,21.016ZM11.508,35.7A5.508,5.508,0,1,1,17.016,30.2,5.508,5.508,0,0,1,11.508,35.7Z" transform="translate(2.843 5.195)" fill="#fff" fill-rule="evenodd"/></g></svg>