<?xml version="1.0" encoding="utf-8"?>
<!-- Generator: Adobe Illustrator 19.2.1, SVG Export Plug-In . SVG Version: 6.00 Build 0)  -->
<svg xmlns="http://www.w3.org/2000/svg" xmlns:xlink="http://www.w3.org/1999/xlink" version="1.1" id="Layer" x="0px" y="0px" width="512" height="512" viewBox="0 0 64 64" enable-background="new 0 0 64 64" xml:space="preserve">
<rect x="16" y="24" fill="#CCE4FF" width="32" height="14"/>
<polygon fill="#CCE4FF" points="22,18 22,10 16,10 10,10 10,18 16,18 "/>
<path fill="#007AFF" d="M54,9H10c-0.552,0-1,0.447-1,1v8v36c0,0.553,0.448,1,1,1h44c0.553,0,1-0.447,1-1V18v-8  C55,9.447,54.553,9,54,9z M53,17H23v-6h30V17z M17,17v-6h4v6H17z M15,11v6h-4v-6H15z M53,53H11V19h42V53z"/>
<path fill="#007AFF" d="M15,24v14c0,0.553,0.448,1,1,1h32c0.553,0,1-0.447,1-1V24c0-0.553-0.447-1-1-1H16C15.448,23,15,23.447,15,24  z M17,25h30v12H17V25z"/>
<path fill="#007AFF" d="M48,45h-5v-1c0-0.553-0.447-1-1-1s-1,0.447-1,1v1H23v-1c0-0.553-0.448-1-1-1s-1,0.447-1,1v1h-5  c-0.552,0-1,0.447-1,1s0.448,1,1,1h5v1c0,0.553,0.448,1,1,1s1-0.447,1-1v-1h18v1c0,0.553,0.447,1,1,1s1-0.447,1-1v-1h5  c0.553,0,1-0.447,1-1S48.553,45,48,45z"/>
</svg>
