<?xml version="1.0" encoding="UTF-8"?> <svg xmlns="http://www.w3.org/2000/svg" width="100.228" height="32.993" viewBox="0 0 100.228 32.993"><g transform="translate(-292 -4540.571)"><g transform="translate(291.64 4540.101)"><path d="M87.791,33.245A8.271,8.271,0,1,1,79.521,25,8.143,8.143,0,0,1,87.791,33.245Zm-3.62,0a4.662,4.662,0,1,0-9.3,0,4.662,4.662,0,1,0,9.3,0Z" transform="translate(-44.539 -15.412)"></path><path d="M135.791,33.245A8.271,8.271,0,1,1,127.521,25,8.143,8.143,0,0,1,135.791,33.245Zm-3.62,0a4.662,4.662,0,1,0-9.3,0,4.662,4.662,0,1,0,9.3,0Z" transform="translate(-74.697 -15.412)"></path><path d="M183.035,25.5V40.3c0,6.089-3.591,8.575-7.836,8.575a7.851,7.851,0,0,1-7.308-4.858l3.152-1.312A4.554,4.554,0,0,0,175.2,45.63c2.717,0,4.4-1.676,4.4-4.832V39.612h-.126a5.613,5.613,0,0,1-4.342,1.873,8.25,8.25,0,0,1,0-16.485,5.713,5.713,0,0,1,4.342,1.844h.126V25.5h3.438Zm-3.182,7.776c0-2.9-1.937-5.026-4.4-5.026a4.767,4.767,0,0,0-4.591,5.026,4.732,4.732,0,0,0,4.591,4.966C177.917,38.24,179.853,36.148,179.853,33.274Z" transform="translate(-104.843 -15.412)"></path><path d="M219.031,3V27.161H215.5V3Z" transform="translate(-135.17 -1.59)"></path><path d="M241.33,35.952l2.81,1.873a8.206,8.206,0,0,1-6.869,3.654,8.067,8.067,0,0,1-8.181-8.245c0-4.9,3.528-8.245,7.776-8.245,4.278,0,6.371,3.4,7.055,5.245l.375.937-11.021,4.565a4.2,4.2,0,0,0,4,2.5,4.705,4.705,0,0,0,4.059-2.282Zm-8.65-2.966,7.367-3.059a3.192,3.192,0,0,0-3.059-1.747A4.522,4.522,0,0,0,232.681,32.985Z" transform="translate(-143.709 -15.406)"></path><path d="M13.344,15.688v-3.5H25.131a11.589,11.589,0,0,1,.175,2.111,11.551,11.551,0,0,1-3.029,8.181,11.706,11.706,0,0,1-8.928,3.591A12.981,12.981,0,0,1,.36,13.272,12.981,12.981,0,0,1,13.348.47,12.2,12.2,0,0,1,22.12,4L19.652,6.466a8.916,8.916,0,0,0-6.308-2.5,9.183,9.183,0,0,0-9.181,9.3,9.183,9.183,0,0,0,9.181,9.3,8.564,8.564,0,0,0,6.464-2.561,7.25,7.25,0,0,0,1.9-4.33Z"></path></g></g></svg> 