<?xml version="1.0" encoding="utf-8"?>
<svg xmlns="http://www.w3.org/2000/svg" width="41.259" height="42.244" viewBox="0 0 41.259 42.244"><g transform="translate(-4.605)"><path d="M104.1,6.206h0A11.794,11.794,0,0,0,92.331,17.973h0A11.794,11.794,0,0,0,104.1,29.741h0a11.794,11.794,0,0,0,11.767-11.767h0A11.785,11.785,0,0,0,104.1,6.206Z" transform="translate(-78.344 -5.542)" fill="#fff"/><path d="M98.556,24.855a12.428,12.428,0,1,1,12.431-12.424A12.418,12.418,0,0,1,98.556,24.855Zm0-23.535a11.1,11.1,0,1,0,11.1,11.1A11.086,11.086,0,0,0,98.556,1.32Z" transform="translate(-72.802)" fill="#193651"/><path d="M126.152,49.09a9.126,9.126,0,1,1,9.126-9.126A9.144,9.144,0,0,1,126.152,49.09Z" transform="translate(-100.398 -27.539)" fill="#fdbf5e"/><rect width="6.278" height="14.478" transform="translate(5.262 24.199)" fill="#fff"/><g transform="translate(4.605 6.354)"><path d="M178.112,64.893a1.583,1.583,0,1,1,1.59-1.583h1.32a2.97,2.97,0,0,0-2.247-2.842V59.41h-1.321v1.058a2.9,2.9,0,0,0-2.247,2.842,2.938,2.938,0,0,0,2.911,2.911,1.587,1.587,0,1,1-1.59,1.59h-1.321a2.97,2.97,0,0,0,2.247,2.842v.926h1.321v-.926a2.9,2.9,0,0,0,2.247-2.842A2.935,2.935,0,0,0,178.112,64.893Z" transform="translate(-156.962 -59.41)" fill="#193651"/><rect width="1.32" height="1.32" transform="translate(3.104 20.755)" fill="#193651"/><rect width="1.32" height="1.32" transform="translate(3.104 24.454)" fill="#193651"/><rect width="1.32" height="1.32" transform="translate(3.104 28.16)" fill="#193651"/><rect width="1.32" height="1.452" transform="translate(26.639 5.351)" fill="#193651"/><rect width="1.32" height="1.452" transform="translate(14.346 5.351)" fill="#193651"/><path d="M45.591,226.216a2.914,2.914,0,0,0-3.637-1.521l-8.988,3.042a2.38,2.38,0,0,0,.069-.726,3.1,3.1,0,0,0-3.1-3.1H23.252a2.51,2.51,0,0,1-.664-.131l-4.3-2.247-.069-.069a3.766,3.766,0,0,0-1.189-.2H12.2v-1.784H4.6v15.8H12.21v-1.39h1.652l12.3,4.1a5.2,5.2,0,0,0,1.452.263,4.77,4.77,0,0,0,2.116-.532l14.609-7.737A2.851,2.851,0,0,0,45.591,226.216Zm-34.708,7.8v.069H5.926V220.858h4.957v13.157Zm32.792-5.089-14.609,7.668a3.5,3.5,0,0,1-2.579.2l-12.493-4.162H12.141v-9.984h4.826a2.974,2.974,0,0,1,.726.131l4.3,2.247.069.069a3.112,3.112,0,0,0,1.127.2h6.679a1.779,1.779,0,0,1,1.784,1.784,1.9,1.9,0,0,1-.595,1.32l-1.258.463h-5.42a2.51,2.51,0,0,0-2.51,2.51h1.321a1.18,1.18,0,0,1,1.189-1.189h5.49a2.9,2.9,0,0,0,1.784-.595L42.3,225.953a1.571,1.571,0,0,1,1.984.857A1.5,1.5,0,0,1,43.675,228.926Z" transform="translate(-4.605 -202.356)" fill="#193651"/></g></g></svg>