<?xml version="1.0" encoding="utf-8"?>
<svg xmlns="http://www.w3.org/2000/svg" width="33.657" height="33.634" viewBox="0 0 33.657 33.634"><g transform="translate(-15.784 -15.795)"><path d="M0,24.471a2.578,2.578,0,0,0,2.576,2.582H23.188a2.581,2.581,0,0,0,2.576-2.582V2.582A2.578,2.578,0,0,0,23.188,0H2.576A2.581,2.581,0,0,0,0,2.582Z" transform="translate(15.784 22.377)" fill="#008aba"/><path d="M25.765,2.582A2.578,2.578,0,0,0,23.188,0H2.576A2.581,2.581,0,0,0,0,2.582V24.471a2.578,2.578,0,0,0,2.576,2.582H23.188a2.581,2.581,0,0,0,2.576-2.582Z" transform="translate(23.676 15.795)" fill="#6abbd7"/><path d="M10.25,13.094H1.278a1.31,1.31,0,0,1,0-2.618H10.25a1.31,1.31,0,0,1,0,2.618ZM9.607,7.856H1.281a1.31,1.31,0,0,1,0-2.618H9.607a1.31,1.31,0,0,1,0,2.618Zm3.842-5.238H1.281A1.3,1.3,0,0,1,0,1.309,1.3,1.3,0,0,1,1.281,0H13.448A1.3,1.3,0,0,1,14.73,1.309,1.3,1.3,0,0,1,13.448,2.618Z" transform="translate(29.112 20.783)" fill="#b7eef5"/></g></svg>