<?xml version="1.0" encoding="utf-8"?>
<svg xmlns="http://www.w3.org/2000/svg" width="28" height="28" viewBox="0 0 28 28"><path d="M9.926,28h0a14.522,14.522,0,0,1-2.945-1.221l.7-4a10.848,10.848,0,0,1-2.458-2.458l-4,.7A14.5,14.5,0,0,1,0,18.073l3.324-2.335a10.934,10.934,0,0,1,0-3.477L0,9.926A14.5,14.5,0,0,1,1.221,6.981l4,.7A10.848,10.848,0,0,1,7.68,5.222l-.7-4A14.5,14.5,0,0,1,9.926,0l2.335,3.324a10.934,10.934,0,0,1,3.477,0L18.074,0a14.5,14.5,0,0,1,2.945,1.221l-.7,4A10.848,10.848,0,0,1,22.778,7.68l4-.7A14.5,14.5,0,0,1,28,9.926l-3.324,2.335a10.934,10.934,0,0,1,0,3.477L28,18.073a14.5,14.5,0,0,1-1.221,2.945l-4-.7a10.848,10.848,0,0,1-2.458,2.458l.7,4A14.5,14.5,0,0,1,18.074,28l-2.336-3.324a10.934,10.934,0,0,1-3.477,0L9.926,28ZM14,8.3a5.7,5.7,0,1,0,4.033,1.671A5.666,5.666,0,0,0,14,8.3Z" fill="#e96d8b"/></svg>