<?xml version="1.0" encoding="utf-8"?>
<svg xmlns="http://www.w3.org/2000/svg" width="25.244" height="25.225" viewBox="0 0 25.244 25.225"><path d="M8.386-24.219a2.2,2.2,0,0,0-1.423.515l-.061.03L3.845-20.525l.03.03a2.954,2.954,0,0,0-.908,1.529,3.007,3.007,0,0,0,.091,1.741v.03a27.325,27.325,0,0,0,2.271,4.844,31.017,31.017,0,0,0,4.753,6.146A31.532,31.532,0,0,0,21.07.817h.03a3.314,3.314,0,0,0,1.771.121A3.425,3.425,0,0,0,24.461.151l3.058-3.058a2.035,2.035,0,0,0,.605-1.5,2.035,2.035,0,0,0-.605-1.5L23.583-9.839l-.03-.061a2.054,2.054,0,0,0-1.514-.605,2.054,2.054,0,0,0-1.514.605L18.588-7.962a15.721,15.721,0,0,1-3.966-2.725,11.846,11.846,0,0,1-2.694-3.936l1.938-1.937a2.017,2.017,0,0,0,.605-1.483,1.969,1.969,0,0,0-.636-1.483l.03-.03L9.9-23.644,9.809-23.7A2.2,2.2,0,0,0,8.386-24.219Zm0,1.938a.374.374,0,0,1,.212.091l3.966,4.057a.21.21,0,0,1-.061.212L10.081-15.5l-.454.424.212.605.363.848a18.127,18.127,0,0,0,1.15,2.028A15.039,15.039,0,0,0,13.29-9.264l.212.182a17.162,17.162,0,0,0,2.271,1.726,17.448,17.448,0,0,0,1.877,1.09l1.362.636,2.906-2.906q.091-.091.121-.091t.121.091L26.217-4.48q.061.061.061.076t-.061.076L23.189-1.3a1.455,1.455,0,0,1-1.483.272A29.669,29.669,0,0,1,11.443-7.568a28.782,28.782,0,0,1-4.45-5.782,27.124,27.124,0,0,1-2.119-4.511,1.105,1.105,0,0,1-.03-.681,1.1,1.1,0,0,1,.333-.59l3-3.058A.374.374,0,0,1,8.386-22.281Z" transform="translate(-2.88 24.219)" fill="#5b44ff"/></svg>