<?xml version="1.0" encoding="utf-8"?>
<svg xmlns="http://www.w3.org/2000/svg" width="42.554" height="44.191" viewBox="0 0 42.554 44.191"><g transform="translate(-12.73 -10.638)"><path d="M19.987,44.191a3.958,3.958,0,1,1,3.869-3.957A3.918,3.918,0,0,1,19.987,44.191Zm17.408-6.6a5.224,5.224,0,0,1-5.158-5.277,5.4,5.4,0,0,1,.183-1.4L20.064,24.6,8.9,31.869a4.755,4.755,0,0,1,.131,1.109,4.571,4.571,0,0,1-4.513,4.616,4.618,4.618,0,0,1,0-9.234,4.447,4.447,0,0,1,3.071,1.234L17.8,22.946,7.751,14.456a5.068,5.068,0,0,1-2.593.715A5.224,5.224,0,0,1,0,9.894,5.224,5.224,0,0,1,5.158,4.617a5.224,5.224,0,0,1,5.158,5.277,5.363,5.363,0,0,1-.724,2.7l9.869,8.339L26.6,8.479a4.967,4.967,0,0,1-1.451-3.533,4.837,4.837,0,1,1,9.672,0,4.9,4.9,0,0,1-4.835,4.947,4.733,4.733,0,0,1-1.129-.136L21.591,22.43l12.119,6.2A5.064,5.064,0,0,1,37.4,27.042a5.278,5.278,0,0,1,0,10.553Z" transform="translate(12.73 10.638)" fill="#79a0ee"/><circle cx="8.183" cy="8.183" r="8.183" transform="translate(24.134 25.799)" fill="#4577d8"/></g></svg>