<?xml version="1.0" encoding="utf-8"?>
<svg xmlns="http://www.w3.org/2000/svg" width="36.8" height="36.8" viewBox="0 0 36.8 36.8"><path d="M129.393,14.028a7.014,7.014,0,1,1,7.017-7.011A7.044,7.044,0,0,1,129.393,14.028Z" transform="translate(-110.993)" fill="#fdbf5e"/><g transform="translate(12.766 3.163)"><circle cx="2.988" cy="2.988" r="2.988" transform="translate(2.646)" fill="#fff"/><path d="M146.33,98.909h-6.9a2.183,2.183,0,0,0-2.183,2.183v3.163a9.3,9.3,0,0,0,11.268,0v-3.163A2.183,2.183,0,0,0,146.33,98.909Z" transform="translate(-137.244 -92.872)" fill="#fff"/></g><path d="M120.6,52.594a.209.209,0,0,1,.174-.06l-5.346-5.346V42.7a9.9,9.9,0,0,0,5.406-2.014l.229-.174V37.122a2.726,2.726,0,0,0-2.76-2.76H117.5a3.645,3.645,0,0,0,.98-2.417,3.566,3.566,0,0,0-7.131,0,3.385,3.385,0,0,0,.98,2.417h-.92a2.8,2.8,0,0,0-2.76,2.76v3.391l.229.174A9.9,9.9,0,0,0,114.28,42.7v4.486l-7.937,7.937.806.806,7.7-7.709,5.117,5.117A1.549,1.549,0,0,1,120.6,52.594Zm-5.748-23.114a2.433,2.433,0,0,1,2.417,2.417,2.48,2.48,0,0,1-2.417,2.471,2.433,2.433,0,0,1-2.417-2.417A2.48,2.48,0,0,1,114.851,29.479Zm-5.057,10.463v-2.82a1.648,1.648,0,0,1,1.611-1.611h6.9a1.648,1.648,0,0,1,1.611,1.611v2.82a8.759,8.759,0,0,1-10.126,0Z" transform="translate(-96.452 -25.739)" fill="#193651"/><path d="M251.769,253.873a7.017,7.017,0,1,1,7.017-7.017A7.044,7.044,0,0,1,251.769,253.873Z" transform="translate(-221.987 -217.531)" fill="#f16051"/><g transform="translate(24.154 25.471)"><circle cx="2.988" cy="2.988" r="2.988" transform="translate(2.64)" fill="#fff"/><path d="M268.765,338.166h-6.9a2.183,2.183,0,0,0-2.183,2.183v3.163h11.262v-3.163A2.179,2.179,0,0,0,268.765,338.166Z" transform="translate(-259.685 -332.183)" fill="#fff"/></g><g transform="translate(15.063 12.188)"><path d="M264.249,273.62h-.806a3.645,3.645,0,0,0,.98-2.417,3.566,3.566,0,1,0-7.131,0,3.385,3.385,0,0,0,.98,2.417h-.806a2.8,2.8,0,0,0-2.76,2.76v3.163h1.148V276.38a1.647,1.647,0,0,1,1.611-1.611h6.9a1.648,1.648,0,0,1,1.611,1.611v3.163h1.148V276.38A2.939,2.939,0,0,0,264.249,273.62Zm-5.863-2.417a2.417,2.417,0,1,1,2.417,2.417A2.433,2.433,0,0,1,258.386,271.2Z" transform="translate(-246.077 -254.931)" fill="#193651"/><rect width="1.148" height="1.209" transform="translate(11.443 22.314)" fill="#193651"/><rect width="1.148" height="1.209" transform="translate(14.149 22.314)" fill="#193651"/><rect width="1.148" height="1.209" transform="translate(16.909 22.314)" fill="#193651"/><rect width="1.148" height="1.209" fill="#193651"/><rect width="1.148" height="1.209" transform="translate(2.76)" fill="#193651"/><rect width="1.148" height="1.209" transform="translate(5.52)" fill="#193651"/></g><path d="M7.017,253.873a7.017,7.017,0,1,1,7.017-7.017A7.044,7.044,0,0,1,7.017,253.873Z" transform="translate(0 -217.531)" fill="#2ea2db"/><circle cx="2.988" cy="2.988" r="2.988" transform="translate(4.029 25.471)" fill="#fff"/><path d="M23.948,338.166h-6.9a2.183,2.183,0,0,0-2.183,2.183v3.163H26.136v-3.163A2.184,2.184,0,0,0,23.948,338.166Z" transform="translate(-13.485 -306.712)" fill="#fff"/><circle cx="2.988" cy="2.988" r="2.988" transform="translate(4.029 25.471)" fill="#fff"/><g transform="translate(1.383 31.454)"><path d="M23.948,338.166h-6.9a2.183,2.183,0,0,0-2.183,2.183v3.163H26.136v-3.163A2.184,2.184,0,0,0,23.948,338.166Z" transform="translate(-14.868 -338.166)" fill="#fff"/></g><g transform="translate(0.806 24.894)"><path d="M18.319,273.62h-.806a3.645,3.645,0,0,0,.98-2.417,3.566,3.566,0,1,0-7.131,0,3.385,3.385,0,0,0,.98,2.417h-.92a2.8,2.8,0,0,0-2.76,2.76v3.163H9.811V276.38a1.648,1.648,0,0,1,1.611-1.611h6.9a1.648,1.648,0,0,1,1.611,1.611v3.163h1.148V276.38A2.8,2.8,0,0,0,18.319,273.62ZM12.456,271.2a2.417,2.417,0,1,1,2.417,2.417A2.433,2.433,0,0,1,12.456,271.2Z" transform="translate(-8.662 -267.637)" fill="#193651"/><rect width="1.148" height="1.209" transform="translate(2.874 9.609)" fill="#193651"/><rect width="1.148" height="1.209" transform="translate(5.634 9.609)" fill="#193651"/><rect width="1.148" height="1.209" transform="translate(8.334 9.609)" fill="#193651"/></g></svg>