<?xml version="1.0" encoding="utf-8"?>
<svg xmlns="http://www.w3.org/2000/svg" width="33.348" height="33.348" viewBox="0 0 33.348 33.348"><path d="M45.944,6.335A29.838,29.838,0,0,0,25.7,14.213a12.564,12.564,0,0,0-9.055,3.68,13.13,13.13,0,0,0-2.353,3.22,12.549,12.549,0,0,1,6.653-1.332,30.111,30.111,0,0,0-2,3.53L28.963,33.334A29.8,29.8,0,0,0,32.5,31.328a12.871,12.871,0,0,1-1.289,6.712,11.722,11.722,0,0,0,3.22-2.353,12.55,12.55,0,0,0,3.68-9.162A29.81,29.81,0,0,0,45.944,6.335Z" transform="translate(-13.105 -5.811)" fill="#fff"/><path d="M288.129,7.715l7.621,7.622a30.859,30.859,0,0,0,1.38-9A31.011,31.011,0,0,0,288.129,7.715Z" transform="translate(-264.291 -5.811)" fill="#f16051"/><circle cx="3.118" cy="3.118" r="3.118" transform="translate(19.698 7.434)" fill="#2ea2db"/><path d="M44.691,228.913c-2.048,3.172-3.835,11.045-3.835,11.045s7.878-1.792,11.045-3.835Z" transform="translate(-37.476 -209.974)" fill="#fdbf5e"/><path d="M33.348.016h-.513a30.61,30.61,0,0,0-20.4,7.878h-.053a13.087,13.087,0,0,0-9.258,3.835,12.687,12.687,0,0,0-2.4,3.327L0,16.436l1.38-.717a12,12,0,0,1,5.477-1.332h.1a31.769,31.769,0,0,0-1.583,2.861l-.155.3,1.38,1.38C4.557,22.41,2.968,29.572,2.867,29.876l-.155.765.765-.155c.3-.053,7.466-1.69,10.841-3.733l1.38,1.38.3-.155a31.068,31.068,0,0,0,2.861-1.583,12.005,12.005,0,0,1-1.332,5.573l-.717,1.38,1.38-.717a12.937,12.937,0,0,0,3.327-2.4,13.087,13.087,0,0,0,3.835-9.258v-.053A30.63,30.63,0,0,0,33.235.514V0h.112V.016ZM6.857,13.414a13.217,13.217,0,0,0-4.45.765A11.581,11.581,0,0,1,3.84,12.44a11.977,11.977,0,0,1,7.466-3.476,31.876,31.876,0,0,0-3.733,4.5h0A3.331,3.331,0,0,0,6.857,13.414ZM4.1,29.267A46.038,46.038,0,0,1,7.37,19.752l6.236,6.3C10.948,27.528,5.985,28.807,4.1,29.267Zm16.826.257a11.34,11.34,0,0,1-1.738,1.433,12.97,12.97,0,0,0,.765-5.215,31.573,31.573,0,0,0,4.5-3.733A12.028,12.028,0,0,1,20.923,29.523Zm-4.963-2.6L6.45,17.4A29.592,29.592,0,0,1,32.331,1.038,29.619,29.619,0,0,1,15.96,26.919Z" fill="#193651"/><rect width="1.022" height="1.022" transform="translate(11.83 17.558) rotate(45)" fill="#193651"/><rect width="1.022" height="1.022" transform="translate(13.459 19.198) rotate(45)" fill="#193651"/><rect width="1.022" height="1.022" transform="translate(15.087 20.838) rotate(45)" fill="#193651"/></svg>