<?xml version="1.0" encoding="utf-8"?>
<svg xmlns="http://www.w3.org/2000/svg" width="41.5" height="41.5" viewBox="0 0 41.5 41.5"><g transform="translate(0.644 0.665)"><path d="M84.517,18.19H84.34a11.377,11.377,0,0,0-9.494,0H74.67S70,9.436,71.558,6.907C72.663,5.089,76.291,8.4,79.6,8.4s6.937-3.37,8.042-1.492C89.182,9.368,84.517,18.19,84.517,18.19Z" transform="translate(-64.411 -6.337)" fill="#fff"/><path d="M36.493,126.108a11.544,11.544,0,0,1-4.476,8.951,16.525,16.525,0,0,1-10.7,3.764,16.681,16.681,0,0,1-10.7-3.7,11.757,11.757,0,0,1-4.476-9.012c0-5.316,3.953-12.192,9.466-15.176a12.448,12.448,0,0,1,5.71-1.492,12.422,12.422,0,0,1,5.7,1.492,17.4,17.4,0,0,1,5.059,4.218C34.743,118.459,36.493,122.609,36.493,126.108Z" transform="translate(-6.141 -98.631)" fill="#fff"/></g><path d="M44.579,158.969c-6.869,0-12.45-4.536-12.45-10.111s5.581-14.071,12.45-14.071,12.45,8.49,12.45,14.071S51.455,158.969,44.579,158.969Z" transform="translate(-28.759 -120.65)" fill="#4fbf9f" opacity="0.132"/><g transform="translate(7.134 20.296)"><rect width="1.295" height="1.295" transform="translate(0 2.984)" fill="#193651"/><rect width="1.295" height="1.295" transform="translate(0 6.55)" fill="#193651"/><rect width="1.295" height="1.295" transform="translate(0 10.049)" fill="#193651"/><path d="M119.862,199.78a1.688,1.688,0,1,1,1.688-1.688H123.5a3.617,3.617,0,0,0-2.658-3.5v-1.105h-1.946v1.105a3.63,3.63,0,0,0,.976,7.127,1.688,1.688,0,1,1-1.688,1.688h-1.946a3.617,3.617,0,0,0,2.658,3.5v.909h1.946v-.909a3.63,3.63,0,0,0-.976-7.127Z" transform="translate(-111.175 -193.487)" fill="#193651"/></g><g transform="translate(22.628 18.546)"><path d="M231.742,351.818H217.929a2.182,2.182,0,0,1-2.2-2.2h0a2.182,2.182,0,0,1,2.2-2.2h13.752a2.182,2.182,0,0,1,2.2,2.2h0A2.1,2.1,0,0,1,231.742,351.818Z" transform="translate(-215.725 -329.515)" fill="#fff"/><path d="M231.742,309.216H217.929a2.182,2.182,0,0,1-2.2-2.2h0a2.182,2.182,0,0,1,2.2-2.2h13.752a2.182,2.182,0,0,1,2.2,2.2h0A2.1,2.1,0,0,1,231.742,309.216Z" transform="translate(-215.725 -291.382)" fill="#fff"/><path d="M231.742,266.55H217.929a2.182,2.182,0,0,1-2.2-2.2h0a2.182,2.182,0,0,1,2.2-2.2h13.752a2.182,2.182,0,0,1,2.2,2.2h0A2.1,2.1,0,0,1,231.742,266.55Z" transform="translate(-215.725 -253.191)" fill="#fff"/><path d="M231.742,223.883H217.929a2.182,2.182,0,0,1-2.2-2.2h0a2.182,2.182,0,0,1,2.2-2.2h13.752a2.182,2.182,0,0,1,2.2,2.2h0A2.1,2.1,0,0,1,231.742,223.883Z" transform="translate(-215.725 -215)" fill="#fff"/><path d="M231.742,181.216H217.929a2.182,2.182,0,0,1-2.2-2.2h0a2.182,2.182,0,0,1,2.2-2.2h13.752a2.182,2.182,0,0,1,2.2,2.2h0A2.1,2.1,0,0,1,231.742,181.216Z" transform="translate(-215.725 -176.808)" fill="#fff"/></g><path d="M21.53,12.321c1.166-2.2,4.408-9.012,2.916-11.48A1.808,1.808,0,0,0,22.825,0a7.991,7.991,0,0,0-2.984.909,11.675,11.675,0,0,1-4.082,1.166A11.822,11.822,0,0,1,11.677.909,6.9,6.9,0,0,0,8.822,0,1.809,1.809,0,0,0,7.2.841c-1.492,2.462,1.75,9.27,2.855,11.48C3.892,15.63.068,22.31,0,28.141.2,35.987,7.459,41.5,15.82,41.5A19.049,19.049,0,0,0,22.5,40.266,2.778,2.778,0,0,0,24.9,41.5H38.645a2.82,2.82,0,0,0,1.75-5.059,2.75,2.75,0,0,0,0-4.408,2.932,2.932,0,0,0,1.105-2.2,2.814,2.814,0,0,0-1.105-2.2,2.92,2.92,0,0,0,1.105-2.2,2.814,2.814,0,0,0-1.105-2.2,2.92,2.92,0,0,0,1.105-2.2,2.838,2.838,0,0,0-2.855-2.855c0,.129-10.89-.2-10.89-.2S24.968,13.874,21.53,12.321ZM8.3,1.56c.129-.2.2-.258.522-.258a8.487,8.487,0,0,1,2.462.78,12.219,12.219,0,0,0,4.536,1.3,10.849,10.849,0,0,0,4.536-1.3,8.7,8.7,0,0,1,2.462-.78.528.528,0,0,1,.515.258c.909,1.492-1.3,6.876-2.984,10.246a12.219,12.219,0,0,0-9.08,0C9.534,8.429,7.391,3.045,8.3,1.56Zm-7,26.582c0-5.316,4.082-11.867,9.141-14.525a11.7,11.7,0,0,1,5.384-1.424A14.281,14.281,0,0,1,21.2,13.616c1.878.78,5.12,4.082,4.991,4.279H24.832a2.82,2.82,0,0,0-1.75,5.059,2.75,2.75,0,0,0,0,4.408,2.75,2.75,0,0,0,0,4.408,2.932,2.932,0,0,0-1.105,2.2,2.814,2.814,0,0,0,1.105,2.2,2.932,2.932,0,0,0-1.105,2.2,1.225,1.225,0,0,0,.068.454A13.868,13.868,0,0,1,15.82,40.2C7.459,40.2,1.234,34.624,1.3,28.141ZM38.645,40.2H24.832a1.56,1.56,0,1,1,0-3.119H38.584a1.582,1.582,0,0,1,1.56,1.56A1.488,1.488,0,0,1,38.645,40.2Zm0-4.476H24.832a1.56,1.56,0,1,1,0-3.119H38.584a1.582,1.582,0,0,1,1.56,1.56A1.488,1.488,0,0,1,38.645,35.729Zm0-4.475H24.832a1.582,1.582,0,0,1-1.56-1.56,1.533,1.533,0,0,1,1.56-1.553H38.584a1.581,1.581,0,0,1,1.56,1.553A1.488,1.488,0,0,1,38.645,31.254Zm0-4.476H24.832a1.56,1.56,0,0,1,0-3.119H38.584a1.582,1.582,0,0,1,1.56,1.56A1.488,1.488,0,0,1,38.645,26.778Zm0-4.469H24.832a1.556,1.556,0,1,1,0-3.113H38.584a1.581,1.581,0,0,1,1.56,1.553A1.53,1.53,0,0,1,38.645,22.31Z" fill="#193651"/></svg>