<?xml version="1.0" encoding="utf-8"?>
<svg xmlns="http://www.w3.org/2000/svg" width="39.283" height="39.283" viewBox="0 0 39.283 39.283"><g transform="translate(32.896 17.851)"><path d="M336.223,333.188l-2.452,5.584-2.458-5.584Z" transform="translate(-331.313 -317.956)" fill="#fff"/><rect width="4.846" height="15.232" transform="translate(0.006)" fill="#fff"/></g><path d="M292,0V3.434h-2.7V18.6h1.226V4.666h1.47V18.6h.866V33.146a.392.392,0,0,0,.006.09.216.216,0,0,0,.051.09l2.458,5.584a.59.59,0,0,0,.552.366.535.535,0,0,0,.552-.366l2.458-5.584a.153.153,0,0,1,.032-.09.305.305,0,0,0,.032-.09V18.6h.854V0Zm3.928,37.133-1.476-3.44h2.946Zm1.842-4.66h-3.62V18.6h3.62Z" transform="translate(-260.569)" fill="#193651"/><rect width="5.289" height="16.028" transform="translate(32.71 1.284)" fill="#4fbf9f"/><path d="M14.615,6.206,6.206,14.615V44.256H32.228V6.206Z" transform="translate(-5.59 -5.59)" fill="#fff"/><rect width="16.021" height="7.305" transform="translate(5.649 13.627)" fill="#fdbf5e"/><rect width="9.943" height="1.226" transform="translate(8.652 16.695)" fill="#193651"/><path d="M15.48,15.139V6.852c0-.064-.064-.064-.122-.064L7.193,15.017c-.064.064,0,.122.064.122Z" transform="translate(-6.455 -6.114)" fill="#d3d7da"/><path d="M8.774,0,0,8.774V39.283H27.254V0ZM8.409,2.086V8.409H2.086ZM26.028,38.057H1.226V9.635H9.635V1.226H26.022l.006,36.831Z" fill="#193651"/><rect width="17.369" height="1.226" transform="translate(4.91 25.29)" fill="#193651"/><rect width="17.369" height="1.226" transform="translate(4.91 28.846)" fill="#193651"/><rect width="17.369" height="1.226" transform="translate(4.91 32.472)" fill="#193651"/><rect width="1.226" height="1.226" transform="translate(14.243 4.846)" fill="#193651"/><rect width="1.226" height="1.226" transform="translate(17.491 4.846)" fill="#193651"/><rect width="1.226" height="1.226" transform="translate(20.688 4.846)" fill="#193651"/></svg>