<?xml version="1.0" encoding="utf-8"?>
<svg xmlns="http://www.w3.org/2000/svg" width="34.853" height="34.853" viewBox="0 0 34.853 34.853"><g transform="translate(29.186 15.837)"><path d="M335.67,333.188l-2.175,4.954-2.181-4.954Z" transform="translate(-331.313 -319.674)" fill="#fff"/><rect width="4.3" height="13.514" transform="translate(0.006)" fill="#fff"/></g><path d="M291.69,0V3.047h-2.4V16.5h1.088V4.14h1.3V16.5h.769v12.9a.348.348,0,0,0,.006.08.192.192,0,0,0,.046.08l2.181,4.954a.524.524,0,0,0,.49.325.474.474,0,0,0,.49-.325l2.181-4.954a.136.136,0,0,1,.028-.08.271.271,0,0,0,.028-.08V16.5h.757V0Zm3.485,32.945-1.31-3.052h2.614Zm1.634-4.135H293.6V16.5h3.212Z" transform="translate(-263.809)" fill="#193651"/><rect width="4.693" height="14.22" transform="translate(29.021 1.139)" fill="#4fbf9f"/><path d="M13.666,6.206l-7.46,7.46v26.3H29.293V6.206Z" transform="translate(-5.659 -5.659)" fill="#fff"/><rect width="14.214" height="6.481" transform="translate(5.011 12.09)" fill="#fdbf5e"/><rect width="8.821" height="1.088" transform="translate(7.677 14.812)" fill="#193651"/><path d="M14.542,14.2V6.845c0-.057-.057-.057-.108-.057l-7.244,7.3c-.057.057,0,.108.057.108Z" transform="translate(-6.535 -6.19)" fill="#d3d7da"/><path d="M7.785,0,0,7.785V34.853H24.18V0ZM7.46,1.851V7.46H1.851ZM23.093,33.765h-22V8.548h7.46V1.088H23.087l.006,32.677Z" fill="#193651"/><rect width="15.41" height="1.088" transform="translate(4.357 22.438)" fill="#193651"/><rect width="15.41" height="1.088" transform="translate(4.357 25.593)" fill="#193651"/><rect width="15.41" height="1.088" transform="translate(4.357 28.81)" fill="#193651"/><rect width="1.088" height="1.088" transform="translate(12.637 4.3)" fill="#193651"/><rect width="1.088" height="1.088" transform="translate(15.519 4.3)" fill="#193651"/><rect width="1.088" height="1.088" transform="translate(18.355 4.3)" fill="#193651"/></svg>