<?xml version="1.0" encoding="utf-8"?>
<svg xmlns="http://www.w3.org/2000/svg" width="50.487" height="71.499" viewBox="0 0 50.487 71.499"><g transform="translate(-75.235 -0.001)"><g transform="translate(81.933 0.001)"><path d="M255.309,425.3H242.418a1.975,1.975,0,0,1,0-3.95h12.891a1.975,1.975,0,0,1,0,3.95Z" transform="translate(-224.07 -362.511)" fill="#2d527c"/><path d="M129.051,62.792a1.975,1.975,0,0,1-1.956-1.72l-3.525-27A32.048,32.048,0,0,1,134.856,4.354a44.191,44.191,0,0,1,5.938-4.11,1.975,1.975,0,0,1,1.914.008,45.749,45.749,0,0,1,6.269,4.438,32.078,32.078,0,0,1,10.93,29.446,1.975,1.975,0,1,1-3.9-.6A28.108,28.108,0,0,0,146.45,7.725a46.049,46.049,0,0,0-4.714-3.445,44.674,44.674,0,0,0-4.393,3.143,28.086,28.086,0,0,0-9.865,26.067c0,.015,0,.03.006.045l3.527,27.026a1.975,1.975,0,0,1-1.7,2.214A2.019,2.019,0,0,1,129.051,62.792Z" transform="translate(-123.195 -0.001)" fill="#2d527c"/></g><path d="M99.96,329.406l-2.247-17.22-4.886,5a12.108,12.108,0,0,0-3.447,8.462v10.669l10.613-6.912H99.96Z" transform="translate(-12.169 -268.59)" fill="#cee8fa"/><path d="M77.21,326.125a1.975,1.975,0,0,1-1.975-1.975V313.481a14.007,14.007,0,0,1,4.01-9.842l4.886-5a1.975,1.975,0,0,1,3.371,1.125l2.2,16.872.013.041a1.975,1.975,0,0,1-.816,2.217L78.288,325.8A1.971,1.971,0,0,1,77.21,326.125Zm6.9-21.815L82.07,306.4a10.078,10.078,0,0,0-2.885,7.081v7.026l6.489-4.226Z" transform="translate(0 -256.422)" fill="#2d527c"/><path d="M353.787,317.22l-4.881-5-2.246,17.215h-.039l10.613,6.912V325.681A12.108,12.108,0,0,0,353.787,317.22Z" transform="translate(-233.488 -268.622)" fill="#cee8fa"/><path d="M345.067,326.156a1.973,1.973,0,0,1-1.078-.32l-10.613-6.912a1.975,1.975,0,0,1-.815-2.217q.011-.037.023-.073l2.2-16.835a1.975,1.975,0,0,1,3.371-1.125l4.881,5a14.006,14.006,0,0,1,4.01,9.842v10.669a1.975,1.975,0,0,1-1.975,1.975Zm-8.458-9.841,6.483,4.222v-7.026a10.078,10.078,0,0,0-2.885-7.081l-2.036-2.084Z" transform="translate(-221.32 -256.452)" fill="#2d527c"/><path d="M221.78,390.551l-5.554-8.709,5.554-8.709,5.554,8.709Z" transform="translate(-121.302 -321.026)" fill="#cee8fa"/><path d="M209.612,380.357a1.975,1.975,0,0,1-1.665-.913l-5.554-8.709a1.975,1.975,0,0,1,0-2.124l5.554-8.709a1.975,1.975,0,0,1,3.331,0l5.554,8.709a1.976,1.976,0,0,1,0,2.124l-5.554,8.709A1.975,1.975,0,0,1,209.612,380.357ZM206.4,369.674l3.212,5.036,3.212-5.036-3.212-5.036Z" transform="translate(-109.134 -308.857)" fill="#2d527c"/><circle cx="6.583" cy="6.583" r="6.583" transform="translate(93.896 27.11)" fill="#cee8fa"/><g transform="translate(84.678 15.917)"><path d="M203.271,197.1a8.559,8.559,0,1,1,8.559-8.559A8.568,8.568,0,0,1,203.271,197.1Zm0-13.167a4.608,4.608,0,1,0,4.608,4.608A4.614,4.614,0,0,0,203.271,183.928Z" transform="translate(-187.47 -170.761)" fill="#2d527c"/><path d="M158.653,117.927H144.827a1.975,1.975,0,1,1,0-3.95h13.826a1.975,1.975,0,1,1,0,3.95Z" transform="translate(-142.852 -113.977)" fill="#2d527c"/><path d="M304.33,117.927h-6.048a1.975,1.975,0,1,1,0-3.95h6.048a1.975,1.975,0,0,1,0,3.95Z" transform="translate(-274.877 -113.977)" fill="#2d527c"/></g></g></svg>