<?xml version="1.0" encoding="utf-8"?>
<svg xmlns="http://www.w3.org/2000/svg" width="37.85" height="37.85" viewBox="0 0 37.85 37.85"><path d="M23.582,308.4l-.946-8.572H18.554l1.892,8.572Z" transform="translate(-16.779 -271.146)" fill="#f16051"/><rect width="6.976" height="11.417" transform="translate(0.594 17.268)" fill="#d3d7da"/><path d="M298.6,194.715v7.508a3.707,3.707,0,0,0,3.723-3.723h0A3.725,3.725,0,0,0,298.6,194.715Z" transform="translate(-270.035 -176.087)" fill="#fff"/><path d="M255.021,126.929h0a2.226,2.226,0,0,1-2.189-2.189V102.326a2.226,2.226,0,0,1,2.189-2.189h0a2.226,2.226,0,0,1,2.189,2.189V124.74A2.226,2.226,0,0,1,255.021,126.929Z" transform="translate(-228.644 -90.557)" fill="#2ea2db"/><path d="M95.745,148.938l-16.618-6.092v-9.463l16.618-6.03Z" transform="translate(-71.557 -115.17)" fill="#fff"/><path d="M29.154,103.1V96.774a2.777,2.777,0,1,0-5.554,0h0L8.164,102.389v-.711H0v12.6H1.3l1.893,8.578H7.453l-.946-8.578H8.1v-.711l15.437,5.616h0a2.777,2.777,0,0,0,5.554,0v-7.5a4.338,4.338,0,0,0,3.723-4.317A4.126,4.126,0,0,0,29.154,103.1ZM4.137,121.673l-1.651-7.4H5.325l.829,7.391H4.137ZM6.976,113.1h-5.8V102.866h5.8S6.976,113.1,6.976,113.1Zm16.618,4.793L8.164,112.266v-8.634L23.6,98.017v19.871h-.006Zm4.379,1.3a1.6,1.6,0,1,1-3.191,0V96.774a1.6,1.6,0,1,1,3.191,0Zm1.181-8.7v-6.209a3.113,3.113,0,0,1,2.542,3.074A3.174,3.174,0,0,1,29.154,110.491Z" transform="translate(0 -85.004)" fill="#193651"/><path d="M17.734,15.665a6.137,6.137,0,0,0,.946-3.253,6.238,6.238,0,1,0-6.265,6.154,6.137,6.137,0,0,0,3.253-.946l2.956.946Z" transform="translate(-5.612 -5.553)" fill="#4fbf9f"/><path d="M13.959,13.959l-3.785-1.181a6.663,6.663,0,0,1-3.371.884,6.831,6.831,0,1,1,6.8-6.859,6.523,6.523,0,0,1-.884,3.315ZM6.8,1.181A5.652,5.652,0,0,0,1.187,6.8,5.652,5.652,0,0,0,6.8,12.413a5.71,5.71,0,0,0,2.956-.829l.235-.117,2.127.656-.649-2.127.117-.235A5.71,5.71,0,0,0,12.419,6.8,5.578,5.578,0,0,0,6.8,1.181Z" fill="#193651"/><rect width="3.253" height="1.181" transform="translate(34.597 14.311)" fill="#193651"/><rect width="3.253" height="1.181" transform="translate(34.597 18.331)" fill="#193651"/><rect width="3.253" height="1.181" transform="translate(34.597 22.358)" fill="#193651"/><rect width="3.253" height="1.181" transform="translate(34.597 26.378)" fill="#193651"/><rect width="3.253" height="1.181" transform="translate(34.597 30.398)" fill="#193651"/><rect width="1.181" height="1.181" transform="translate(3.903 6.209)" fill="#193651"/><rect width="1.181" height="1.181" transform="translate(6.209 6.209)" fill="#193651"/><rect width="1.181" height="1.181" transform="translate(8.578 6.209)" fill="#193651"/></svg>