<?xml version="1.0" encoding="utf-8"?>
<svg xmlns="http://www.w3.org/2000/svg" width="46.572" height="46.572" viewBox="0 0 46.572 46.572"><path d="M58.5,6.335a41.671,41.671,0,0,0-28.279,11,17.546,17.546,0,0,0-12.646,5.139,18.337,18.337,0,0,0-3.286,4.5,17.526,17.526,0,0,1,9.292-1.86,42.053,42.053,0,0,0-2.794,4.93l14,14a41.613,41.613,0,0,0,4.937-2.8,17.975,17.975,0,0,1-1.8,9.374,16.37,16.37,0,0,0,4.5-3.286,17.527,17.527,0,0,0,5.139-12.8A41.632,41.632,0,0,0,58.5,6.335Z" transform="translate(-12.636 -5.603)" fill="#fff"/><path d="M288.129,8.262l10.644,10.644A43.1,43.1,0,0,0,300.7,6.335,43.308,43.308,0,0,0,288.129,8.262Z" transform="translate(-254.838 -5.603)" fill="#f16051"/><circle cx="4.355" cy="4.355" r="4.355" transform="translate(27.51 10.383)" fill="#2ea2db"/><path d="M46.212,228.913c-2.861,4.429-5.356,15.424-5.356,15.424s11-2.5,15.424-5.356Z" transform="translate(-36.135 -202.464)" fill="#fdbf5e"/><path d="M46.572.022h-.717a42.748,42.748,0,0,0-28.5,11h-.075A18.277,18.277,0,0,0,4.355,16.38,17.718,17.718,0,0,0,1,21.026L0,22.954l1.927-1a16.756,16.756,0,0,1,7.649-1.86h.142a44.367,44.367,0,0,0-2.211,4l-.217.426,1.927,1.927C6.364,31.3,4.146,41.3,4,41.724l-.217,1.068,1.068-.217c.426-.075,10.427-2.36,15.14-5.214l1.927,1.927.426-.217a43.389,43.389,0,0,0,4-2.211,16.766,16.766,0,0,1-1.86,7.783l-1,1.927,1.927-1a18.067,18.067,0,0,0,4.646-3.354,18.277,18.277,0,0,0,5.356-12.93v-.075a42.777,42.777,0,0,0,11-28.5V0h.157V.022Zm-37,18.711A18.459,18.459,0,0,0,3.361,19.8a16.174,16.174,0,0,1,2-2.428A16.727,16.727,0,0,1,15.79,12.519,44.516,44.516,0,0,0,10.577,18.8h0A4.652,4.652,0,0,0,9.576,18.733ZM5.722,40.873c.642-2.711,2.5-9.568,4.571-13.288L19,36.376C15.29,38.445,8.358,40.23,5.722,40.873Zm23.5.359a15.837,15.837,0,0,1-2.428,2,18.114,18.114,0,0,0,1.068-7.283,44.094,44.094,0,0,0,6.282-5.214A16.8,16.8,0,0,1,29.22,41.231Zm-6.932-3.638L9.008,24.306A41.326,41.326,0,0,1,45.153,1.449,41.365,41.365,0,0,1,22.289,37.594Z" fill="#193651"/><rect width="1.427" height="1.427" transform="translate(16.521 24.521) rotate(45)" fill="#193651"/><rect width="1.427" height="1.427" transform="translate(18.796 26.811) rotate(45)" fill="#193651"/><rect width="1.427" height="1.427" transform="translate(21.07 29.101) rotate(45)" fill="#193651"/></svg>