<?xml version="1.0" encoding="utf-8"?>
<svg xmlns="http://www.w3.org/2000/svg" width="38.114" height="31.543" viewBox="0 0 38.114 31.543"><g transform="translate(-13.8 -16.839)"><path d="M38.114,1.315A1.313,1.313,0,0,0,36.8,0H1.312A1.311,1.311,0,0,0,0,1.315V30.227a1.313,1.313,0,0,0,1.312,1.315H36.8a1.311,1.311,0,0,0,1.312-1.315Z" transform="translate(13.8 16.839)" fill="#8784ec"/><path d="M1.315,22.9a1.314,1.314,0,0,1-1.22-1.8A12.049,12.049,0,0,1,.648,19.94,15.909,15.909,0,0,1,2.26,17.478C4.265,14.97,6.6,13.7,9.2,13.7c2.116,0,3.461.543,5.862,1.84l.194.1a9.247,9.247,0,0,0,4.338,1.449,7.774,7.774,0,0,0,2.919-.672c1.813-.725,2.442-2.533,1.922-5.527a21.042,21.042,0,0,0-1.2-4.064c-.289-.732-.613-1.466-.962-2.181l-.012-.024-.023-.047L21.16,7.907a1.314,1.314,0,0,1-2.5-.812L20.67.909A1.313,1.313,0,0,1,22.406.094l6.338,2.527a1.314,1.314,0,1,1-.974,2.442L24.826,3.888c.312.659.6,1.325.857,1.978a23.615,23.615,0,0,1,1.341,4.579,9.8,9.8,0,0,1-.281,5.224,5.537,5.537,0,0,1-3.254,3.193,10.442,10.442,0,0,1-3.909.872,11.563,11.563,0,0,1-5.573-1.778l-.194-.105C11.73,16.726,10.72,16.327,9.2,16.327c-1.76,0-3.4.94-4.888,2.793a13.344,13.344,0,0,0-1.345,2.056c-.117.218-.227.438-.335.672-.051.113-.083.189-.1.224A1.307,1.307,0,0,1,1.315,22.9ZM4.024,9.5a1.316,1.316,0,0,1-.933-2.243L4.952,5.4,3.091,3.534a1.315,1.315,0,0,1,.933-2.242,1.3,1.3,0,0,1,.925.382L6.811,3.537,8.672,1.675a1.31,1.31,0,0,1,1.856,0,1.315,1.315,0,0,1,0,1.857L8.67,5.4l1.861,1.861A1.314,1.314,0,0,1,8.672,9.115L6.811,7.254,4.949,9.115A1.3,1.3,0,0,1,4.024,9.5Z" transform="translate(18.4 21.541)" fill="#c4c3ff"/></g></svg>