<?xml version="1.0" encoding="utf-8"?>
<svg xmlns="http://www.w3.org/2000/svg" width="36.444" height="36.391" viewBox="0 0 36.444 36.391"><g transform="translate(0 -0.29)"><g transform="translate(0.565 0.861)"><path d="M19.163,75.235c0-2.789-2.9-5-6.481-5.06-3.58,0-6.541,2.218-6.541,5.007s2.9,5,6.481,5.06v2.729l2.842-3.187C17.629,78.928,19.163,77.221,19.163,75.235Z" transform="translate(-6.141 -64.318)" fill="#fff"/><path d="M140.375,11.558c0-2.789-2.9-5.06-6.481-5.06s-6.541,2.218-6.541,4.947c0,2.789,2.9,5.007,6.481,5.06v2.729l2.842-3.187A5.18,5.18,0,0,0,140.375,11.558Z" transform="translate(-116.204 -6.498)" fill="#fff"/><path d="M260.876,64.688c0-2.789-2.9-5.007-6.481-5.06s-6.541,2.218-6.541,4.947c0,2.789,2.9,5,6.481,5.06v2.729l2.842-3.187C259.342,68.387,260.876,66.68,260.876,64.688Z" transform="translate(-225.621 -54.74)" fill="#fff"/></g><g transform="translate(0 0.29)"><path d="M34.286,6.831a8.048,8.048,0,0,0-4.947-1.594h-.059a8.173,8.173,0,0,0-3.978.969C25.022.178,18.255.291,18.255.291c-3.639,0-6.939,2.1-7.106,5.518a6.261,6.261,0,0,0,.226,1.481A9.237,9.237,0,0,0,7.052,6.154C3.181,6.2,0,8.651,0,11.719A4.93,4.93,0,0,0,2.1,15.7a8.169,8.169,0,0,0,4.376,1.594v3.7l3.752-4.21c2.39-.91,3.978-2.842,3.978-4.947a4.256,4.256,0,0,0-.285-1.481,8.823,8.823,0,0,0,3.639,1.136v3.7l3.752-4.21c.339-.113.624-.285.91-.4-.339.339.571,5.8,6.481,5.857v3.7l3.758-4.2c2.39-.91,3.978-2.842,3.978-4.947A5.2,5.2,0,0,0,34.286,6.831ZM9.55,15.816,7.617,17.975v-1.76a7.705,7.705,0,0,1-4.834-1.362,4.1,4.1,0,0,1-1.647-3.128c0-2.444,2.67-4.376,5.97-4.376s5.916,2.04,5.916,4.483A5.022,5.022,0,0,1,9.55,15.816ZM20.639,9.9l-1.933,2.158V10.3c-.059.226-3.752-.172-4.834-1.362C12.963,7.914,12.225,7,12.225,5.868c0-2.444,2.67-4.376,5.97-4.376s5.916,2.045,5.916,4.489C23.993,7.967,22.631,9.162,20.639,9.9Zm11.143,4.888L29.85,16.952v-1.76s-5.97.339-6.481-4.489c.339-3.068,3.241-4.323,5.97-4.376,3.413.059,5.744,1.992,5.916,4.489C35.142,12.456,34.173,13.878,31.782,14.787Z" transform="translate(0 -0.29)" fill="#193651"/><rect width="1.136" height="1.136" transform="translate(26.841 9.55)" fill="#193651"/><rect width="1.136" height="1.136" transform="translate(30.593 9.55)" fill="#193651"/><rect width="1.136" height="1.136" transform="translate(15.751 4.662)" fill="#193651"/><rect width="1.136" height="1.136" transform="translate(19.503 4.662)" fill="#193651"/><rect width="1.136" height="1.136" transform="translate(4.662 10.519)" fill="#193651"/><rect width="1.136" height="1.136" transform="translate(8.414 10.519)" fill="#193651"/></g><path d="M291.752,326.267v-1.481a4.951,4.951,0,0,0-4.947-4.947h0a4.951,4.951,0,0,0-4.947,4.947v1.481Z" transform="translate(-255.933 -290.156)" fill="#2ea2db"/><g transform="translate(15.579 22.012)"><circle cx="2.616" cy="2.616" r="2.616" transform="translate(12.677)" fill="#fff"/><circle cx="2.616" cy="2.616" r="2.616" fill="#fff"/></g><path d="M153.926,326.267v-1.481a4.951,4.951,0,0,0-4.947-4.947h0a4.951,4.951,0,0,0-4.947,4.947v1.481Z" transform="translate(-130.784 -290.156)" fill="#2ea2db"/><circle cx="2.616" cy="2.616" r="2.616" transform="translate(2.902 22.012)" fill="#fff"/><path d="M16.035,326.267v-1.481a4.951,4.951,0,0,0-4.947-4.947h0a4.951,4.951,0,0,0-4.947,4.947v1.481Z" transform="translate(-5.576 -290.156)" fill="#2ea2db"/><g transform="translate(0 21.506)"><path d="M281.17,313.7a5.526,5.526,0,0,0-5.518,5.518v2.045h11.036v-2.045A5.522,5.522,0,0,0,281.17,313.7Zm4.382,6.428h-8.759v-.91a4.376,4.376,0,0,1,8.753,0v.91Z" transform="translate(-250.298 -306.087)" fill="#193651"/><path d="M304.222,237.312a3.181,3.181,0,1,0-3.181-3.181A3.177,3.177,0,0,0,304.222,237.312Zm0-5.286a2.045,2.045,0,1,1-2.045,2.045A2,2,0,0,1,304.222,232.026Z" transform="translate(-273.35 -230.95)" fill="#193651"/><path d="M166.354,237.312a3.181,3.181,0,1,0-3.187-3.181A3.221,3.221,0,0,0,166.354,237.312Zm0-5.286a2.045,2.045,0,1,1-2.045,2.045A2.038,2.038,0,0,1,166.354,232.026Z" transform="translate(-148.159 -230.95)" fill="#193651"/><path d="M143.344,313.7a5.526,5.526,0,0,0-5.518,5.518v2.045h11.03v-2.045A5.479,5.479,0,0,0,143.344,313.7Zm4.376,6.428h-8.753v-.91a4.376,4.376,0,0,1,8.753,0Z" transform="translate(-125.149 -306.087)" fill="#193651"/><path d="M28.528,237.312a3.181,3.181,0,1,0-3.187-3.181A3.217,3.217,0,0,0,28.528,237.312Zm0-5.286a2.045,2.045,0,1,1-2.045,2.045A2.038,2.038,0,0,1,28.528,232.026Z" transform="translate(-23.01 -230.95)" fill="#193651"/><path d="M5.518,313.7A5.522,5.522,0,0,0,0,319.216v2.045H11.03v-2.045A5.483,5.483,0,0,0,5.518,313.7Zm4.376,6.428H1.136v-.91a4.376,4.376,0,0,1,8.753,0v.91Z" transform="translate(0 -306.087)" fill="#193651"/></g></g></svg>