<?xml version="1.0" encoding="utf-8"?>
<svg xmlns="http://www.w3.org/2000/svg" xmlns:xlink="http://www.w3.org/1999/xlink" width="571.268" height="363.398" viewBox="0 0 571.268 363.398"><defs><clipPath id="a"><rect width="107.37" height="107.37" transform="translate(7.927 0) rotate(4.234)" fill="none"/></clipPath></defs><g transform="translate(-38.938 -29.408)"><circle cx="3.853" cy="3.853" r="3.853" transform="translate(588.638 217.986)" fill="#17014c"/><circle cx="3.853" cy="3.853" r="3.853" transform="translate(358.456 29.408)" fill="#17014c"/><circle cx="3" cy="3" r="3" transform="translate(558 330)" fill="#4e69ff"/><circle cx="2.997" cy="2.997" r="2.997" transform="translate(123.908 47.519)" fill="#fff"/><circle cx="2.997" cy="2.997" r="2.997" transform="translate(62.004 344.984)" fill="#fff"/><circle cx="2.997" cy="2.997" r="2.997" transform="translate(581.025 359.201)" fill="#fff"/><circle cx="8.259" cy="8.259" r="8.259" transform="translate(323.769 57.865) rotate(-74.92)" fill="#4e69ff"/><path d="M676.517,114.627a4.154,4.154,0,1,1-4.154-4.154A4.154,4.154,0,0,1,676.517,114.627Z" transform="translate(-96.088 -15.886)" fill="#4e69ff"/><path d="M63.427,142.526a5.037,5.037,0,1,1-5.038-5.037A5.038,5.038,0,0,1,63.427,142.526Z" transform="translate(-7.672 -19.771)" fill="#4e69ff"/><path d="M105.748,87.952a1.891,1.891,0,1,1-1.891-1.891A1.891,1.891,0,0,1,105.748,87.952Z" transform="translate(-14.663 -12.376)" fill="#1b1b25"/><path d="M655.468,88.81a3.124,3.124,0,1,1-2.4-3.707A3.124,3.124,0,0,1,655.468,88.81Z" transform="translate(-93.367 -12.228)" fill="#ffb54a"/><path d="M71.3,368.247a3.124,3.124,0,1,1-2.4-3.708A3.124,3.124,0,0,1,71.3,368.247Z" transform="translate(-9.364 -52.41)" fill="#ffb54a"/><path d="M442.768,60.907a3.124,3.124,0,1,1-2.4-3.707A3.125,3.125,0,0,1,442.768,60.907Z" transform="translate(-62.781 -8.215)" fill="#ffb54a"/><g transform="translate(38.938 40.959)"><g transform="translate(41.92)" opacity="0.68"><path d="M589.8,180.624a99.9,99.9,0,0,0-34.335-65.58c-31.52-26.918-79.2-33.7-120.987-27.48-17.5,2.606-34.86,7.224-52.782,5.771-26.138-2.12-49.163-16.649-72.961-27.3-32.4-14.5-69.53-22.3-103.971-15.992-39.049,7.153-71.065,34.171-74.885,70.019-1.731,16.244,15.859,44.86,10.307,60.254-5.63,15.614-46.738,63.438-45.725,99.815,1.009,36.24,10.477,47.512,23.856,65.93h0A174.487,174.487,0,0,0,261.13,388.156l115.93-36.33a318.461,318.461,0,0,1,141.9-11.133h0c29.21,4.328,52.312-24.462,41.635-51.995q-.141-.365-.288-.732c-7.793-19.581,13.38-35.708,21.572-53.935C589.175,217.809,591.575,198.3,589.8,180.624Z" transform="translate(-94.438 -47.838)" fill="#fff" opacity="0.47"/></g><path d="M48.726,215.684A29.647,29.647,0,0,1,61.65,175.8c14.583-7.446,42.572-6.832,50.018,7.75s-15,27.034-24.171,40.6C74.7,243.062,56.172,230.266,48.726,215.684Z" transform="translate(-45.477 -65.564)" fill="#fff" opacity="0.41"/><path d="M659.889,337.939c-10.366-11.235-11.209-27.318-1.884-35.923s31.769-12.451,42.135-1.216-3.686,25.321-6.844,38.282C688.893,357.16,670.256,349.174,659.889,337.939Z" transform="translate(-132.627 -83.215)" fill="#fff" opacity="0.41"/><g transform="translate(82.285 50.578)" opacity="0.43"><path d="M543.412,343.68c2.538-21.44-2.567-39.22-4.27-59.974-1.611-19.649,5.368-36.174,9.239-54.888,3.446-16.655,2.3-35.52-2.027-51.889-5.905-22.349-19.506-43.043-39.1-55.659-30.532-19.658-71.251-17.342-104.977-3.821-14.126,5.664-27.809,13.2-42.938,15.106-33.092,4.17-66.925-15.877-100.153-17.949-25.15-1.569-51.185,4.631-71.367,19.719S154,173.823,154.41,199.018c.284,17.46,6.992,34.713,4.629,52.014-1.993,14.6-10.233,27.541-14.4,41.673a76.461,76.461,0,0,0,45.714,92.9c18.614,7.214,39.325,6.875,59.086,4.041,27.936-4.006,54.561-10.822,82.948-11.328a366.22,366.22,0,0,1,90.4,9.649C492.345,404.352,538.82,382.465,543.412,343.68Z" transform="translate(-141.582 -106.91)" fill="#fff"/></g></g><g transform="translate(68.183 67.853)"><g transform="translate(0 94.814)"><path d="M241.054,200.637,106.7,190.066a25.1,25.1,0,1,0-3.938,50.039l110.722,8.713,15.233,1.2,8.4.661a25.1,25.1,0,1,0,3.937-50.04Z" transform="translate(-79.634 -189.987)" fill="#4e69ff"/><g transform="translate(9.113 0.01)"><circle cx="16.828" cy="16.828" r="16.828" transform="matrix(0.769, -0.639, 0.639, 0.769, 0, 22.293)" fill="#1b1b25" opacity="0.35"/><circle cx="16.16" cy="16.16" r="16.16" transform="translate(0.316 20.033) rotate(-38.303)" fill="#ffb54a"/><path d="M112.2,211.769a1.938,1.938,0,0,0-.089-.817,2.118,2.118,0,0,0-1.831-1.438,2.093,2.093,0,0,0-2.063,1.212,2.093,2.093,0,0,0-1.848-1.521,2.015,2.015,0,0,0-2.177,1.747,3.267,3.267,0,0,0,1.164,2.608c.807.855,1.615,1.719,2.462,2.533.068.066,2.455-1.826,2.683-2A3.714,3.714,0,0,0,112.2,211.769Z" transform="translate(-92.276 -192.759)" fill="#fa445c"/><path d="M129.536,213.133a1.936,1.936,0,0,0-.089-.817,2.116,2.116,0,0,0-1.83-1.438,2.093,2.093,0,0,0-2.063,1.212,2.093,2.093,0,0,0-1.847-1.521,2.016,2.016,0,0,0-2.178,1.747,3.267,3.267,0,0,0,1.164,2.608c.807.855,1.615,1.719,2.463,2.533.068.066,2.455-1.826,2.682-2A3.714,3.714,0,0,0,129.536,213.133Z" transform="translate(-94.768 -192.956)" fill="#fa445c"/><path d="M116.739,228.672l-3.432-.271a5,5,0,0,1-4.577-5.36l.132-1.673a2.673,2.673,0,0,1,2.867-2.449l8.154.641a2.572,2.572,0,0,1,2.356,2.759l-.14,1.774A5,5,0,0,1,116.739,228.672Z" transform="translate(-92.929 -194.156)" fill="#1b1b25"/><path d="M117.714,228.887l-4.449-.35a1.831,1.831,0,0,1-1.676-1.963h0a1.83,1.83,0,0,1,1.963-1.676l4.449.35a1.831,1.831,0,0,1,1.677,1.963h0A1.832,1.832,0,0,1,117.714,228.887Z" transform="translate(-93.341 -195.016)" fill="#fa445c"/></g><g transform="translate(63.628 15.465)"><path d="M252.723,216.481l-.033,0L156.419,208.9a.428.428,0,0,1-.393-.46.433.433,0,0,1,.46-.394l96.271,7.576a.428.428,0,0,1-.033.855Z" transform="translate(-154.247 -208.049)" fill="#fff"/><path d="M235.712,241.688h-.033l-81.336-6.4a.428.428,0,0,1,.067-.854l81.336,6.4a.428.428,0,0,1-.033.854Z" transform="translate(-153.948 -211.843)" fill="#fff"/><path d="M214.535,227.589H214.5l-59.186-4.658a.428.428,0,0,1,.067-.854l59.186,4.658a.428.428,0,0,1-.033.854Z" transform="translate(-154.088 -210.066)" fill="#fff"/><path d="M262.8,231.387h-.033l-29.7-2.337a.429.429,0,0,1-.394-.461.434.434,0,0,1,.461-.393l29.7,2.337a.428.428,0,0,1-.033.854Z" transform="translate(-165.268 -210.946)" fill="#fff"/></g></g><g transform="translate(183.188 49.409)"><path d="M454.848,146.175l-134.456-9.159a25.1,25.1,0,0,0-3.411,50.078l110.808,7.548,15.245,1.038,8.4.573a25.1,25.1,0,0,0,3.411-50.078Z" transform="translate(-293.589 -136.957)" fill="#4e69ff"/><g transform="translate(63.765 15.037)"><path d="M466.636,161.939h-.03l-96.345-6.563a.429.429,0,0,1,.058-.855l96.346,6.563a.429.429,0,0,1-.029.856Z" transform="translate(-368.322 -154.52)" fill="#fff"/><path d="M449.891,187.324h-.03l-81.4-5.545a.428.428,0,0,1-.4-.456.433.433,0,0,1,.456-.4l81.4,5.545a.428.428,0,0,1-.028.855Z" transform="translate(-368.064 -158.317)" fill="#fff"/><path d="M428.567,173.448h-.03L369.3,169.412a.428.428,0,0,1,.058-.854l59.232,4.034a.428.428,0,0,1-.028.855Z" transform="translate(-368.185 -156.538)" fill="#fff"/><path d="M476.869,176.738h-.031l-29.726-2.025a.428.428,0,0,1,.058-.854l29.727,2.025a.428.428,0,0,1-.028.855Z" transform="translate(-379.373 -157.3)" fill="#fff"/></g></g><g transform="translate(1.746 27.236)"><path d="M171.4,116.965,96.716,111.1a13.951,13.951,0,0,0-2.183,27.816l61.549,4.831,7.862,8.381.605-7.716,4.668.366a13.951,13.951,0,0,0,2.183-27.816Z" transform="translate(-81.673 -111.059)" fill="#ffb54a"/><g transform="translate(24.873 7.594)"><path d="M165.818,124.984h-.033l-53.516-4.2a.429.429,0,0,1-.393-.461.433.433,0,0,1,.461-.393l53.515,4.2a.428.428,0,0,1-.033.854Z" transform="translate(-110.889 -119.928)" fill="#fff"/><path d="M156.365,139h-.034l-45.213-3.549a.428.428,0,0,1,.067-.854l45.213,3.549a.428.428,0,0,1-.033.854Z" transform="translate(-110.723 -122.037)" fill="#fff"/><path d="M144.591,131.163h-.034l-32.9-2.582a.428.428,0,0,1-.393-.461.433.433,0,0,1,.46-.393l32.9,2.582a.428.428,0,0,1-.033.854Z" transform="translate(-110.801 -121.049)" fill="#fff"/><path d="M171.422,133.269h-.034l-16.512-1.3a.428.428,0,1,1,.067-.854l16.512,1.3a.428.428,0,0,1-.033.854Z" transform="translate(-117.016 -121.537)" fill="#fff"/></g></g><g transform="translate(278.261)"><path d="M419.522,79.282l74.744,5.054a13.951,13.951,0,1,1-1.882,27.838l-61.6-4.165-9,7.149.522-7.722-4.671-.316a13.951,13.951,0,1,1,1.882-27.839Z" transform="translate(-404.629 -79.249)" fill="#ffb54a"/><g transform="translate(22.915 7.296)"><path d="M485.908,92.247h-.031L432.32,88.625a.427.427,0,0,1-.4-.456.438.438,0,0,1,.456-.4l53.558,3.622a.428.428,0,0,1-.028.854Z" transform="translate(-431.469 -87.771)" fill="#fff"/><path d="M486.31,107.02h-.03l-45.248-3.059a.428.428,0,0,1-.4-.456.438.438,0,0,1,.456-.4l45.249,3.059a.428.428,0,0,1-.029.855Z" transform="translate(-432.722 -89.976)" fill="#fff"/><path d="M488.845,100.285h-.03l-32.926-2.226a.429.429,0,0,1-.4-.456.439.439,0,0,1,.456-.4l32.926,2.226a.428.428,0,0,1-.028.855Z" transform="translate(-434.858 -89.127)" fill="#fff"/><path d="M448.347,97.547h-.03l-16.526-1.117a.428.428,0,0,1-.4-.455.434.434,0,0,1,.457-.4l16.525,1.117a.428.428,0,0,1-.028.855Z" transform="translate(-431.393 -88.893)" fill="#fff"/></g></g><g transform="translate(242.17 25.509)"><g transform="translate(29.507 131.69)"><circle cx="30.826" cy="30.826" r="30.826" transform="translate(0 49.945) rotate(-54.108)" fill="#fff"/><path d="M441.892,339.485A31.682,31.682,0,1,1,473.574,307.8,31.718,31.718,0,0,1,441.892,339.485Zm0-61.652a29.97,29.97,0,1,0,29.97,29.97A30,30,0,0,0,441.892,277.833Z" transform="translate(-398.847 -264.759)" fill="#cac9ca"/><path d="M462.556,307.354a8.411,8.411,0,0,0-.662-3.5,9.179,9.179,0,0,0-8.4-5.6A9.073,9.073,0,0,0,445,304.2a9.073,9.073,0,0,0-8.5-5.941,8.734,8.734,0,0,0-8.817,8.286c-.3,4.487,2.8,8.053,5.914,10.874,3.777,3.423,7.565,6.88,11.506,10.111.318.26,9.985-8.727,10.911-9.575C459.062,315.154,462.433,311.782,462.556,307.354Z" transform="translate(-401.356 -267.942)" fill="#fa445c"/></g><g transform="translate(104.763 66.423)"><circle cx="19.111" cy="19.111" r="19.111" transform="translate(0.856 0.856)" fill="#fff"/><path d="M504.8,226.555a19.967,19.967,0,1,1,19.968-19.967A19.989,19.989,0,0,1,504.8,226.555Zm0-38.221a18.254,18.254,0,1,0,18.256,18.254A18.275,18.275,0,0,0,504.8,188.334Z" transform="translate(-484.835 -186.622)" fill="#cac9ca"/><path d="M517.667,206.365a5.216,5.216,0,0,0-.41-2.17,5.69,5.69,0,0,0-5.206-3.469,5.624,5.624,0,0,0-5.27,3.683,5.627,5.627,0,0,0-5.27-3.683,5.416,5.416,0,0,0-5.467,5.137c-.187,2.782,1.736,4.993,3.666,6.742,2.342,2.122,4.69,4.265,7.134,6.268.2.161,6.19-5.41,6.763-5.936C515.5,211.2,517.591,209.11,517.667,206.365Z" transform="translate(-486.445 -188.65)" fill="#4e69ff"/></g><g transform="translate(201.448 90.302)"><circle cx="17.29" cy="17.29" r="17.29" transform="matrix(0.842, -0.539, 0.539, 0.842, 0, 18.651)" fill="#fff"/><path d="M622.606,257.507a18.146,18.146,0,1,1,18.147-18.147A18.167,18.167,0,0,1,622.606,257.507Zm0-34.58a16.434,16.434,0,1,0,16.435,16.433A16.452,16.452,0,0,0,622.606,222.926Z" transform="translate(-598.722 -215.475)" fill="#cac9ca"/><path d="M634.26,239.171a4.72,4.72,0,0,0-.372-1.963,5.147,5.147,0,0,0-4.71-3.138,5.09,5.09,0,0,0-4.768,3.332,5.088,5.088,0,0,0-4.767-3.332,4.9,4.9,0,0,0-4.945,4.647c-.169,2.517,1.571,4.516,3.317,6.1,2.118,1.92,4.242,3.858,6.453,5.671.178.146,5.6-4.895,6.12-5.371C632.3,243.546,634.191,241.655,634.26,239.171Z" transform="translate(-600.193 -217.324)" fill="#fa445c"/></g><g transform="translate(139.056)"><circle cx="36.733" cy="36.733" r="36.733" transform="translate(0 47.394) rotate(-40.175)" fill="#ffb54a"/><path d="M569.953,158.721c-.553,2.392-1.939-.448-4.332-1s-4.884,1.391-4.332-1a4.446,4.446,0,0,1,8.663,2Z" transform="translate(-530.111 -115.403)" fill="#1b1b25"/><path d="M611.16,167.336c-.552,2.392-1.939-.448-4.331-1s-4.885,1.392-4.332-1a4.445,4.445,0,0,1,8.662,2Z" transform="translate(-536.037 -116.642)" fill="#1b1b25"/><g transform="translate(48.735 51.224)"><path d="M589.623,175.568a3.13,3.13,0,0,1,1.254,3.129,3.215,3.215,0,0,1-1.861,2.335,5.415,5.415,0,0,1-3.392.344,6.769,6.769,0,0,1-2.593-1.047,6.541,6.541,0,0,1-.764-.6,1.423,1.423,0,0,1,.163-2.224h0a1.264,1.264,0,0,1,1.628.132,3.9,3.9,0,0,0,.39.367,3,3,0,0,0,1.277.658,1.558,1.558,0,0,0,1.121-.139,1.19,1.19,0,0,0,.594-.83,1.1,1.1,0,0,0-.324-1.021,2.42,2.42,0,0,0-1.175-.914,3.563,3.563,0,0,1-1.2-.467,1.433,1.433,0,0,1,.37-1.771c.316-.207,1.48.309,1.48.309a1.515,1.515,0,0,0,1.062-.116,1.076,1.076,0,0,0,.339-1.623,1.517,1.517,0,0,0-.926-.531,3.065,3.065,0,0,0-1.146-.028,1.607,1.607,0,0,1-1.718-.882l-.073-.15a.952.952,0,0,1,.538-1.318,6.553,6.553,0,0,1,3.458-.144,4.788,4.788,0,0,1,2.844,1.593,3.1,3.1,0,0,1,.664,2.725A2.963,2.963,0,0,1,589.623,175.568Z" transform="translate(-581.807 -168.87)" fill="#1b1b25"/></g><path d="M610.561,177.2a3.763,3.763,0,0,0,.031-1.6,4.121,4.121,0,0,0-3.177-3.232,4.075,4.075,0,0,0-4.283,1.831,4.077,4.077,0,0,0-3.191-3.393,3.922,3.922,0,0,0-4.637,2.832c-.545,1.945.491,3.8,1.6,5.324,1.345,1.852,2.693,3.72,4.129,5.5.116.144,5.192-2.919,5.677-3.206C608.309,180.3,610.1,179.131,610.561,177.2Z" transform="translate(-534.992 -117.911)" fill="#fa445c"/></g><g transform="translate(0 165.052)"><circle cx="27.779" cy="27.779" r="27.779" transform="matrix(0.847, -0.531, 0.531, 0.847, 0, 29.521)" fill="#ffb54a"/><path d="M394.614,339.993c-.164,1.849-1.5-.133-3.349-.3s-3.513,1.552-3.349-.3a3.362,3.362,0,0,1,6.7.593Z" transform="translate(-366.133 -306.779)" fill="#1b1b25"/><path d="M394.968,350.667c.565-6.384,5.175.458,11.559,1.024s12.124-5.36,11.558,1.024a11.6,11.6,0,1,1-23.117-2.048Z" transform="translate(-367.142 -308.451)" fill="#1b1b25"/><path d="M426.378,342.138c-.164,1.849-1.5-.133-3.349-.3s-3.512,1.552-3.349-.3a3.362,3.362,0,0,1,6.7.593Z" transform="translate(-370.701 -307.088)" fill="#1b1b25"/></g></g><g transform="translate(58.721 16.825)"><g transform="translate(37.346)"><rect width="241.648" height="132.68" rx="18.309" transform="translate(0 240.969) rotate(-85.705)" fill="#1b1b25"/><g transform="translate(7.358 8.048)"><path d="M211.243,336.913l97.1,7.291a10.594,10.594,0,0,0,11.358-9.771l15.579-207.453a10.594,10.594,0,0,0-9.771-11.358l-97.1-7.292a10.6,10.6,0,0,0-11.358,9.772L201.471,325.555A10.6,10.6,0,0,0,211.243,336.913Z" transform="translate(-200.576 -108.3)" fill="#fff"/><path d="M220.78,114.377a11.371,11.371,0,0,1,2.828-3.609,10.551,10.551,0,0,1,7.581-2.438l97.1,7.292a10.585,10.585,0,0,1,8.928,6.365,2.229,2.229,0,0,1,.354,1.1Z" transform="translate(-203.357 -108.3)" fill="#3c62e9"/><g transform="translate(115.329 8.753)"><path d="M346.986,122.1c-.038,0-.076,0-.114-.005a1.345,1.345,0,0,1-1.225-1.452h0a1.343,1.343,0,1,1,1.339,1.457Zm-.913-1.421a.915.915,0,1,0,.99-.835.917.917,0,0,0-.99.835Z" transform="translate(-336.641 -118.651)" fill="#fff"/><path d="M341.731,121.656c-.038,0-.077,0-.116-.005a1.343,1.343,0,0,1-.753-2.365,1.312,1.312,0,0,1,.979-.312,1.343,1.343,0,0,1-.111,2.682Zm0-2.259a.916.916,0,1,0,.078,0C341.78,119.4,341.754,119.4,341.729,119.4Z" transform="translate(-335.885 -118.587)" fill="#fff"/><path d="M336.473,121.21c-.038,0-.076,0-.115-.005a1.339,1.339,0,1,1,.115.005Zm0-2.259a.916.916,0,1,0,.079,0C336.524,118.952,336.5,118.951,336.472,118.951Z" transform="translate(-335.129 -118.523)" fill="#fff"/></g><g transform="translate(0 174.956)" opacity="0.22"><path d="M13.443,0h92.778A12.377,12.377,0,0,1,118.6,12.377V52.236a0,0,0,0,1,0,0H0a0,0,0,0,1,0,0V13.443A13.443,13.443,0,0,1,13.443,0Z" transform="translate(118.382 61.731) rotate(-175.784)" fill="#fff"/><path d="M308.189,374.413c-.3,0-.61-.012-.918-.034l-96.229-7.094a11.465,11.465,0,0,1-10.58-12.263l3.124-42.381.854.063,119.13,8.782-3.057,41.47A12.383,12.383,0,0,1,308.189,374.413Zm-97.021-8.836,96.229,7.094A10.669,10.669,0,0,0,318.8,362.83l2.932-39.764-116.569-8.593-3,40.672a9.753,9.753,0,0,0,9,10.431Z" transform="translate(-200.43 -312.64)" fill="#cac9ca"/></g><path d="M234.34,282.823c-.036,0-.073,0-.11,0a1.466,1.466,0,0,1-1.352-1.568h0a1.476,1.476,0,0,1,1.567-1.352,1.464,1.464,0,0,1-.105,2.924Zm-.608-1.508a.61.61,0,0,0,.562.651.589.589,0,0,0,.442-.146.608.608,0,0,0,.209-.416.608.608,0,0,0-.562-.651.589.589,0,0,0-.651.562Z" transform="translate(-205.096 -132.975)" fill="#fff"/><path d="M228.481,282.392c-.036,0-.072,0-.108,0a1.467,1.467,0,0,1-1.353-1.568h0a1.454,1.454,0,0,1,.5-1,1.472,1.472,0,0,1,1.064-.351,1.466,1.466,0,0,1,1.352,1.567A1.466,1.466,0,0,1,228.481,282.392Zm0-2.071a.607.607,0,0,0-.6.562h0a.609.609,0,0,0,.562.651.6.6,0,0,0,.651-.562.605.605,0,0,0-.562-.65A.411.411,0,0,0,228.478,280.321Z" transform="translate(-204.253 -132.913)" fill="#fff"/><g transform="translate(17.629 180.778)"><circle cx="15.656" cy="15.656" r="15.656" transform="translate(0 25.338) rotate(-54.022)" fill="#fff"/><path d="M243.812,358.717q-.62,0-1.246-.046a16.472,16.472,0,1,1,1.246.046Zm-.05-31.313a14.821,14.821,0,1,0,1.116.041Q244.318,327.4,243.763,327.4Z" transform="translate(-221.919 -320.338)" fill="#cac9ca"/><path d="M250.912,350.062h0a1.257,1.257,0,0,1-1.766-.131l-9-10.443a1.257,1.257,0,0,1,.131-1.767h0a1.257,1.257,0,0,1,1.766.131l9,10.444A1.256,1.256,0,0,1,250.912,350.062Z" transform="translate(-223.726 -322.024)" fill="#fa445c"/><path d="M239.3,349.331h0a1.257,1.257,0,0,1,.131-1.766l10.444-9a1.257,1.257,0,0,1,1.766.131h0a1.257,1.257,0,0,1-.131,1.766l-10.444,9A1.256,1.256,0,0,1,239.3,349.331Z" transform="translate(-223.605 -322.145)" fill="#fa445c"/><g transform="translate(49.125 8.593)"><path d="M310.665,347.288a15.656,15.656,0,1,1-14.458-16.769A15.657,15.657,0,0,1,310.665,347.288Z" transform="translate(-278.539 -329.619)" fill="#fff"/><path d="M294.919,362.5q-.611,0-1.229-.046a16.5,16.5,0,1,1,1.229.046Zm-.021-31.313a14.8,14.8,0,1,0,1.1.04C295.631,331.2,295.263,331.189,294.9,331.189Z" transform="translate(-278.396 -329.475)" fill="#cac9ca"/><path d="M305.611,346.469a4.266,4.266,0,0,0-.2-1.8,4.661,4.661,0,0,0-4.044-3.149,4.608,4.608,0,0,0-4.528,2.69,4.61,4.61,0,0,0-4.083-3.328,4.436,4.436,0,0,0-4.776,3.867c-.321,2.261,1.116,4.183,2.587,5.73,1.784,1.875,3.573,3.767,5.448,5.552.152.144,5.385-4.046,5.886-4.44C303.549,350.288,305.383,348.707,305.611,346.469Z" transform="translate(-279.767 -331.114)" fill="#4e69ff"/></g></g><g transform="translate(65.62 16.732)"><path d="M294.776,137.361a8.864,8.864,0,1,1-8.186-9.494A8.864,8.864,0,0,1,294.776,137.361Z" transform="translate(-277.071 -127.842)" fill="#fa445c"/><path d="M291.1,137.779a4.432,4.432,0,1,1-4.093-4.748A4.432,4.432,0,0,1,291.1,137.779Z" transform="translate(-277.816 -128.587)" fill="#fff"/></g><rect width="107.37" height="107.37" transform="translate(18.978 38.185) rotate(4.234)" fill="#cac9ca" opacity="0.22"/><g transform="translate(8.557 37.268)"><g opacity="0.43"><rect width="107.37" height="128.734" transform="translate(10.421 0.917) rotate(4.234)" fill="#fff"/><path d="M319.21,289.971l-.854-.063-107.931-7.989.063-.854,9.567-129.237.854.063L328.84,159.88l-.063.854Zm-106.951-9.635,105.369,7.8,9.377-126.675-105.369-7.8Z" transform="translate(-210.425 -151.827)" fill="#cac9ca"/></g><rect width="58.02" height="6.044" rx="1.147" transform="translate(7.496 111.959) rotate(4.234)" fill="#cac9ca" opacity="0.43"/><path d="M241.1,297.676l-.064,0-22-1.629a.856.856,0,1,1,.127-1.707l22,1.628a.856.856,0,0,1-.062,1.71Z" transform="translate(-211.549 -172.32)" fill="#cac9ca" opacity="0.43"/><path d="M272.656,300.012l-.064,0-22-1.629a.856.856,0,0,1,.126-1.707l22,1.628a.856.856,0,0,1-.062,1.71Z" transform="translate(-216.087 -172.655)" fill="#cac9ca" opacity="0.43"/><g transform="translate(2.494 0.917)"><g clip-path="url(#a)"><g transform="translate(-2.816 2.048)"><g transform="translate(63.15 4.206)"><path d="M349.389,193.8l-16.835-12.55c-4.564-3.4-9.22-6.564-13.668-10.122-4.813-3.85-10.117-7.444-16.116-9.114,0,0-8.521-2.371-15.029-1.682a4.357,4.357,0,0,0-1.489,8.249l7.8,3.807c-.4-.276-2.085.057-2.578.1a9.93,9.93,0,0,0-2.66.55,3.181,3.181,0,0,0-2.216,3.529,1.071,1.071,0,0,0,.4.729,1.271,1.271,0,0,0,.744.127c2.454-.086,4.891-.456,7.345-.489a9.282,9.282,0,0,0,6.94,1.734,9.376,9.376,0,0,1,4.35.133c2.033.665,3.509,3.573,4.832,5.207l4.147,5.12,9.159,11.309-11.072,5.207L322.924,226l23.519-10.945a12.041,12.041,0,0,0,4.792-4.025c.061-.072.128-.134.188-.208A11.945,11.945,0,0,0,349.389,193.8Z" transform="translate(-283.805 -160.202)" fill="#fec29e"/><path d="M345.46,224.825h0s-12.168-12.2-15.787-17.526c-3.621,1.685-4.3,2.089-7.922,3.774Z" transform="translate(-289.262 -166.975)" fill="#ff887c" opacity="0.17"/><path d="M295.009,173.72a.428.428,0,0,1-.413-.545,5.22,5.22,0,0,1,6.035-3.522.428.428,0,0,1-.13.847,4.3,4.3,0,0,0-5.081,2.909A.429.429,0,0,1,295.009,173.72Z" transform="translate(-285.355 -161.549)" fill="#fb8e77"/></g><g transform="translate(23.954)"><path d="M287.365,177.745a24.163,24.163,0,0,0-1.783-7.525,6.278,6.278,0,0,0,2.2-3.888c.613-4.89-5.455-9.677-13.553-10.692a22.976,22.976,0,0,0-6.434.083,24.213,24.213,0,0,0-6.308-.371l-7.021.506a17.717,17.717,0,0,0-16.4,18.945l1.238,7.094a98.723,98.723,0,0,1,.959,28.233c-3.147,27.359,11.592,30.727,20.284,30.1l29.151-2.1a2.009,2.009,0,0,0,1.86-2.148Z" transform="translate(-238.027 -155.289)" fill="#1b1b25"/><path d="M292.364,200.541c-.164,0-.329-.007-.494-.019a6.547,6.547,0,1,1,7.013-6.046h0a6.549,6.549,0,0,1-6.519,6.064Zm-.02-12.239a5.686,5.686,0,1,0,.43.015C292.63,188.306,292.487,188.3,292.344,188.3Z" transform="translate(-244.897 -159.913)" fill="#ffa06e"/><g transform="translate(8.895 16.37)"><path d="M273.507,176.1a23.886,23.886,0,0,1-4.3-.942c-.463,1.611-1.329,2.726-2.487,2.958-1.436.288-2.98-.849-4.154-2.815a19.765,19.765,0,0,1-1.339,2.219c-2.116,3.028-4.787,5.127-7.1,5.828l.027.241-1.219.136a5.093,5.093,0,0,0-4.483,5.609l.189,1.7a5.093,5.093,0,0,0,5.61,4.483l1.219-.136.177,1.593a13.058,13.058,0,0,0,3.608,7.649L258.481,215l-5.516-.408-2.642,35.686,26.582,1.968-.828-35.942-.717-.052.625-8.436a13.123,13.123,0,0,0,8.746-6.754,12.938,12.938,0,0,0,2.251-8.838l-1.989-17.818A19.851,19.851,0,0,1,273.507,176.1Z" transform="translate(-248.415 -174.409)" fill="#fec29e"/></g><path d="M276.68,210.118l-4.342.485a13.008,13.008,0,0,1-14.371-11.484l-1.318-.225.177,1.593a13.06,13.06,0,0,0,3.643,7.687,7.271,7.271,0,0,0,6.707,7.018l2.427.179a7.268,7.268,0,0,0,6.98-3.923,13.118,13.118,0,0,0,9.24-6.723A12.962,12.962,0,0,1,276.68,210.118Z" transform="translate(-240.704 -161.56)" fill="#ff887c" opacity="0.32"/><path d="M251.908,209.71a6.546,6.546,0,0,1-3.268-12.225.428.428,0,1,1,.426.742,5.692,5.692,0,1,0,3.6-.7.428.428,0,0,1-.365-.483.42.42,0,0,1,.482-.365,6.546,6.546,0,0,1-.878,13.032Z" transform="translate(-239.08 -161.24)" fill="#ffa06e"/><g transform="translate(12.471 22.167)"><path d="M253.208,193.516a.428.428,0,0,1-.237-.785l1.793-1.191-2.059-2.254a.428.428,0,0,1,.632-.578l2.4,2.623a.429.429,0,0,1-.079.646l-2.21,1.468A.423.423,0,0,1,253.208,193.516Z" transform="translate(-252.592 -182.243)" fill="#fb8e77"/><g transform="translate(10.101)"><g transform="translate(0 0.456)"><path d="M264.769,183.954a2.2,2.2,0,0,0,.867-.259c.295-.132.592-.258.856-.357s.57-.2.878-.3a2.175,2.175,0,0,0,.819-.381c.19-.182.178-.491-.217-.726a2.5,2.5,0,0,0-2.043-.011,2.421,2.421,0,0,0-1.5,1.355C264.3,183.709,264.5,183.944,264.769,183.954Z" transform="translate(-264.389 -181.712)" fill="#1b1b25"/></g><g transform="translate(15.844)"><path d="M286.786,182.648a2.172,2.172,0,0,1-.9.077c-.322-.015-.646-.023-.927-.02s-.605.019-.927.041a2.171,2.171,0,0,1-.9-.055c-.243-.1-.345-.391-.062-.755a2.493,2.493,0,0,1,1.9-.757,2.418,2.418,0,0,1,1.891.712C287.133,182.249,287.03,182.544,286.786,182.648Z" transform="translate(-282.895 -181.18)" fill="#1b1b25"/></g><path d="M278.763,196.464a7.4,7.4,0,0,1,.958-.519c.141-.054.328-.143.479-.051.265.162.111.522-.067.682a.324.324,0,0,0,0,.455c.2.183.518.471.479.776-.03.231-.27.253-.48.268a2.239,2.239,0,0,1-1-.154c-.375-.163-.7.39-.324.555a2.492,2.492,0,0,0,2,.083c.875-.465.318-1.491-.222-1.982v.455a1.055,1.055,0,0,0-.017-1.658c-.7-.46-1.538.2-2.131.537a.321.321,0,0,0,.324.554Z" transform="translate(-266.387 -183.198)" fill="#fb8e77"/><path d="M270.142,189.882h0a.687.687,0,0,1-.757-.6l-.092-.825a.687.687,0,0,1,.6-.757h0a.687.687,0,0,1,.757.6l.092.826A.686.686,0,0,1,270.142,189.882Z" transform="translate(-265.094 -182.116)" fill="#1b1b25"/><path d="M282.736,187.948a.214.214,0,0,1-.142-.373,2.186,2.186,0,0,1,2.61-.269.214.214,0,1,1-.235.357,1.793,1.793,0,0,0-2.091.231A.212.212,0,0,1,282.736,187.948Z" transform="translate(-266.997 -182.014)" fill="#1b1b25"/><path d="M267.391,187.846a1.755,1.755,0,0,0,1.721.382l.052.914A1.616,1.616,0,0,1,267.391,187.846Z" transform="translate(-264.821 -182.138)" fill="#1b1b25"/><rect width="4.048" height="1.696" rx="0.848" transform="translate(1.075 9.234) rotate(-2.183)" fill="#ff887c" opacity="0.41"/><rect width="4.048" height="1.696" rx="0.848" transform="matrix(0.999, -0.038, 0.038, 0.999, 16.931, 7.925)" fill="#ff887c" opacity="0.41"/><path d="M281.959,204.924a.426.426,0,0,1-.277-.1,1.875,1.875,0,0,0-2.085-.15.428.428,0,1,1-.44-.735,2.72,2.72,0,0,1,3.08.232.428.428,0,0,1-.277.754Z" transform="translate(-266.483 -184.398)" fill="#fb8e77"/><path d="M269,190.993a.321.321,0,0,1-.2-.575,2.555,2.555,0,0,1,2.49-.2.321.321,0,1,1-.244.594,1.918,1.918,0,0,0-1.851.117A.323.323,0,0,1,269,190.993Z" transform="translate(-265.006 -182.447)" fill="#fb8e77"/><path d="M283.027,189.84a.32.32,0,0,1-.2-.573,2.558,2.558,0,0,1,2.491-.205.321.321,0,0,1-.244.594,1.92,1.92,0,0,0-1.854.119A.324.324,0,0,1,283.027,189.84Z" transform="translate(-267.023 -182.281)" fill="#fb8e77"/><path d="M277.355,191.849a.321.321,0,0,1-.059-.637l1.3-.247c.715-.135,1.429-.74,1.314-1.345-.019-.265-.114-.612-.254-.682-.007,0-.041-.009-.078-.015a1.873,1.873,0,0,1-1.237-.22,1.49,1.49,0,0,1-.734-1.011l-.459-2.416a.321.321,0,1,1,.631-.12l.459,2.416a.855.855,0,0,0,.427.577,1.227,1.227,0,0,0,.848.134l.05-.01.05.007a1.121,1.121,0,0,1,.331.084c.535.268.6,1.086.6,1.178.187.969-.794,1.859-1.831,2.056l-1.3.246A.28.28,0,0,1,277.355,191.849Z" transform="translate(-266.208 -181.714)" fill="#fb8e77"/></g><path d="M291.647,195.285a1.4,1.4,0,0,0-.067-.586,1.52,1.52,0,0,0-1.318-1.027,1.5,1.5,0,0,1-2.807-.207,1.446,1.446,0,0,0-1.557,1.259,2.342,2.342,0,0,0,.843,1.867c.581.611,1.164,1.229,1.776,1.81.049.047,1.755-1.319,1.918-1.447A2.664,2.664,0,0,0,291.647,195.285Z" transform="translate(-257.38 -182.946)" fill="#fa445c"/></g></g><path d="M245.7,269.019a.406.406,0,0,1-.084-.009l-4.834-.963a.428.428,0,0,1,.168-.839l4.427.882,3.748-16.059a.428.428,0,1,1,.834.194l-3.843,16.462A.428.428,0,0,1,245.7,269.019Z" transform="translate(-214.419 -169.153)" fill="#1b1b25"/><g transform="translate(0 49.428)"><path d="M313.708,233.38l-9.476-20.361-.157.074L281,223.949a29.7,29.7,0,0,0-9.85-2.129l-5.032,24.809a1.392,1.392,0,0,1-2.661.226L253.24,220.5l-8.184-.606A13.741,13.741,0,0,0,231.59,227.8l-.015-.005L217.7,258.412l10.565,2.093-2.574,34.765,58.022,4.295,4.164-26.839,3.617-4.378a12.428,12.428,0,0,0,2.289-11.592l-3.818-12.327,7.695-3.581Z" transform="translate(-211.15 -213.019)" fill="#ffb54a"/><path d="M324,233.631l-9.476-20.361-.157.074L291.291,224.2c5.33,2.386,7.85,6.915,7.255,14.95l1.713,5.53,7.695-3.581Z" transform="translate(-221.732 -213.055)" fill="#ff887c" opacity="0.17"/><path d="M306.717,309.218" transform="translate(-223.95 -226.852)" fill="none" stroke="#fb8e77" stroke-linecap="round" stroke-miterlimit="10" stroke-width="1"/><path d="M237.708,270.313l-6.022,25.082a10.468,10.468,0,0,1-13.1,6.951h0a12.1,12.1,0,0,1-7.991-15.136l6.418-20.991Z" transform="translate(-210.05 -220.669)" fill="#fec29e"/><path d="M239.626,270.593h0l-22-4.374c-1.356,3.629-1.964,7.332-3.319,10.962Z" transform="translate(-210.661 -220.669)" fill="#ff887c" opacity="0.17"/></g></g></g></g></g></g><path d="M308.011,112.65l-7.3,6.28a3.74,3.74,0,0,1-2.719.894l-25.814-1.938a4.18,4.18,0,0,1-3.055-1.693l-5.027-6.841Z" transform="translate(-202.227 -100.403)" fill="#1b1b25"/></g><g transform="translate(0 85.766)"><path d="M228.178,228.461l5.862,4.316a12.153,12.153,0,0,1,3.335,15.836l-27.15,47.3Z" transform="translate(-157.134 -203.297)" fill="#1b1b25" opacity="0.61"/><path d="M370.8,312.715a9.986,9.986,0,0,0,5.314-4.395c2.219-4.481-.221-11.984-4.274-14.718a12.5,12.5,0,0,0-6.239-1.877c-4.134-.261-8.172.671-12.177,1.7l-1.884,25.094A117.071,117.071,0,0,0,370.8,312.715Z" transform="translate(-177.455 -212.388)" fill="#fec29e"/><path d="M371.3,235.775c8.912-3.274,24.134-7.284,24.607-18.96a19.994,19.994,0,0,0-2.95-10.536c-1.551-2.723-3.65-5.318-6.563-6.472a15.068,15.068,0,0,0-7.368-.529c-6.493.789-12.7,2.926-19.046,4.407l-2.764,36.8C361.93,238.972,366.654,237.481,371.3,235.775Z" transform="translate(-178.271 -199.07)" fill="#fec29e"/><path d="M231.4,361.663c-.26-15.2-4.409-36.11-20.608-57.192a21.908,21.908,0,0,1-2.07-23.528l17.011-32.431a15,15,0,0,0-6.47-20.331h0a15.274,15.274,0,0,0-18.649,3.8l-22.491,26.856c-9.059,10.819-21.49,37.172-27.671,56.911a49.515,49.515,0,0,0-.842,26.371l7.726,32.123a65.4,65.4,0,0,0,46.517,47.841h0A70.127,70.127,0,0,0,285.72,384.01l8.226-17.651Z" transform="translate(-148.217 -203.017)" fill="#fec29e"/><path d="M395.939,257.393c-.686-6.887-4.513-12.146-11.736-12.816-4.019-.372-8.032.714-11.821,2.107-5.323,1.956-10.638,3.776-16.012,5.526l-2.323,30.935h0c11.967-5.255,25.235-8.34,36.395-15.3a13.315,13.315,0,0,0,3.871-3.292A10.447,10.447,0,0,0,395.939,257.393Z" transform="translate(-177.816 -205.604)" fill="#fec29e"/><path d="M350.822,349.213a9,9,0,0,0,4.361-2.759c1.8-2.3,1.619-5.739.138-8.263a9.848,9.848,0,0,0-4.807-4.107l-1.171,15.6C349.835,349.524,350.331,349.377,350.822,349.213Z" transform="translate(-177.139 -218.485)" fill="#fec29e"/><path d="M351.91,313.7l-.37,4.924q2.281-.521,4.559-1.09l2.468-25.177c-1.724.319-3.436.734-5.142,1.173Z" transform="translate(-177.455 -212.484)" fill="#ff887c" opacity="0.33"/><path d="M366.932,202.362h0c-2.313.621-4.623,1.253-6.952,1.8l-2.764,36.8c2.044-.658,4.088-1.313,6.128-1.98Z" transform="translate(-178.271 -199.544)" fill="#ff887c" opacity="0.33"/><path d="M356.371,253.169,354.048,284.1c1.748-.768,3.527-1.486,5.32-2.18l3.014-30.757Q359.385,252.184,356.371,253.169Z" transform="translate(-177.816 -206.562)" fill="#ff887c" opacity="0.33"/><path d="M350.513,334.084l-1.171,15.6,3.514-1.337q.27-.145.527-.307l1.084-11.06A9.942,9.942,0,0,0,350.513,334.084Z" transform="translate(-177.139 -218.485)" fill="#ff887c" opacity="0.33"/><path d="M245.857,397.441l-.488-13.08,56.578,4.248S289.02,401.348,276.1,400.178Z" transform="translate(-162.188 -225.715)" fill="#ff887c" opacity="0.33"/></g><g transform="translate(244.192 88.519)"><path d="M605.226,332.345c-2.885-24.118-14.285-47.887-24.294-69.1-2.169-4.6-4.29-12.259-9.157-14.756-3.069-1.574-6.783-.751-10.061.318a13.856,13.856,0,0,0-5.123,2.626,6.212,6.212,0,0,1-4,.652c.237.25.476.5.71.757q1.117,1.246,2.141,2.615a25.219,25.219,0,0,1,3.468,6.231l.048.128a3.057,3.057,0,0,1-5.73,2.135,3.123,3.123,0,0,1-.193-1.073,20.132,20.132,0,0,0-.938-5.7c-.295-.975-.639-1.952-1.029-2.919s-.832-1.937-1.3-2.846l-.017-.033a.758.758,0,0,1,.02-.717,5.272,5.272,0,0,1-.375-.41,9.194,9.194,0,0,0-2.892-2.418,15.512,15.512,0,0,0-7.958-1.549A25.234,25.234,0,0,0,526.03,250.2a30.477,30.477,0,0,1-3.481,2.661,1.779,1.779,0,0,1,1.014.294,22.719,22.719,0,0,1,3.2,2.6,25.336,25.336,0,0,1,2.7,3.041,24.264,24.264,0,0,1,2.227,3.482,25.522,25.522,0,0,1,1.659,3.871,3.01,3.01,0,1,1-5.8,1.551l-.018-.1a19.963,19.963,0,0,0-.772-3.148,19.1,19.1,0,0,0-1.306-3.051,20.749,20.749,0,0,0-1.8-2.866c-.339-.456-.7-.9-1.069-1.328-.361-.413-.795-.86-1.119-1.172l-.126-.121a1.779,1.779,0,0,1-.055-2.515,1.859,1.859,0,0,1,.146-.128,2.544,2.544,0,0,1-.64.055,32.779,32.779,0,0,1-4.583-.648c-4.171-.857-8.506.368-12.366,2.166-2.433,1.134-5.1,2.85-5.778,5.54-.061.24-.983,2.726-1.726,1.551-5.665-8.946-18.149-28.853-25.886-41.08-4.837-7.643-8.276-17.639-18.859-18.508-13.114-1.077-20.168,11.486-17.678,20.289,5.487,19.394,18.48,36.273,25.981,55q3.149,7.86,6.35,15.7s30.69,36.472,31.161,55.41-28.446-48.733-31.161-55.41l-5.053,25.292a89.755,89.755,0,0,0-.3,33.6,67.679,67.679,0,0,0,10.392,25.352c8.38,12.59,16.613,27.217,29.3,36.414,15.65,11.348,34.726,9,51.792,2.08,25.65-10.4,46.894-29.431,52.2-57.692A85.544,85.544,0,0,0,605.226,332.345ZM507.786,282.4a3.026,3.026,0,0,1-4.144-2.17l-.036-.187a4.541,4.541,0,0,0-.153-.771c-.08-.311-.178-.64-.3-.99-.219-.681-.5-1.392-.765-2.1-.546-1.416-1.153-2.839-1.762-4.26-1.23-2.841-2.522-5.68-3.848-8.5l0,0a.757.757,0,0,1,1.273-.8c1.973,2.438,3.909,4.9,5.814,7.406.948,1.261,1.894,2.522,2.813,3.84.46.664.919,1.319,1.367,2.039.225.342.449.717.67,1.121a11.3,11.3,0,0,1,.67,1.4A3.02,3.02,0,0,1,507.786,282.4Z" transform="translate(-433.422 -202.286)" fill="#fec29e"/><path d="M519.336,287.116c-.222-.4-.445-.778-.67-1.121-.448-.72-.907-1.374-1.367-2.039-.919-1.318-1.866-2.579-2.813-3.84-1.905-2.51-3.841-4.969-5.814-7.406a.757.757,0,0,0-1.273.8l0,0c1.325,2.815,2.617,5.654,3.848,8.5.609,1.421,1.216,2.844,1.762,4.26.269.7.546,1.415.766,2.1.125.349.223.679.3.99a4.536,4.536,0,0,1,.153.771l.036.187a3.021,3.021,0,1,0,5.737-1.794A11.311,11.311,0,0,0,519.336,287.116Z" transform="translate(-444.049 -212.373)" fill="#fec29e"/><path d="M519.336,287.116c-.222-.4-.445-.778-.67-1.121-.448-.72-.907-1.374-1.367-2.039-.919-1.318-1.866-2.579-2.813-3.84-1.905-2.51-3.841-4.969-5.814-7.406a.757.757,0,0,0-1.273.8l0,0c1.325,2.815,2.617,5.654,3.848,8.5.609,1.421,1.216,2.844,1.762,4.26.269.7.546,1.415.766,2.1.125.349.223.679.3.99a4.536,4.536,0,0,1,.153.771l.036.187a3.021,3.021,0,1,0,5.737-1.794A11.311,11.311,0,0,0,519.336,287.116Z" transform="translate(-444.049 -212.373)" fill="#ff887c" opacity="0.33"/><path d="M536.215,261.768a4.147,4.147,0,0,0,1.116-.414A1.769,1.769,0,0,0,536.215,261.768Z" transform="translate(-448.203 -210.78)" fill="#ff887c" opacity="0.33"/><path d="M536.017,264.411l.126.121c.325.312.758.759,1.119,1.172.372.429.73.872,1.069,1.328a20.749,20.749,0,0,1,1.8,2.866,19.1,19.1,0,0,1,1.306,3.051,19.963,19.963,0,0,1,.772,3.148l.018.1a3.009,3.009,0,1,0,5.8-1.551,25.522,25.522,0,0,0-1.659-3.871,24.264,24.264,0,0,0-2.227-3.482,25.336,25.336,0,0,0-2.7-3.041,22.718,22.718,0,0,0-3.2-2.6,1.779,1.779,0,0,0-1.014-.294,4.147,4.147,0,0,1-1.116.414,1.862,1.862,0,0,0-.146.128A1.779,1.779,0,0,0,536.017,264.411Z" transform="translate(-448.096 -210.78)" fill="#fec29e"/><path d="M536.017,264.411l.126.121c.325.312.758.759,1.119,1.172.372.429.73.872,1.069,1.328a20.749,20.749,0,0,1,1.8,2.866,19.1,19.1,0,0,1,1.306,3.051,19.963,19.963,0,0,1,.772,3.148l.018.1a3.009,3.009,0,1,0,5.8-1.551,25.522,25.522,0,0,0-1.659-3.871,24.264,24.264,0,0,0-2.227-3.482,25.336,25.336,0,0,0-2.7-3.041,22.718,22.718,0,0,0-3.2-2.6,1.779,1.779,0,0,0-1.014-.294,4.147,4.147,0,0,1-1.116.414,1.862,1.862,0,0,0-.146.128A1.779,1.779,0,0,0,536.017,264.411Z" transform="translate(-448.096 -210.78)" fill="#ff887c" opacity="0.33"/><path d="M569.273,259.5l.017.033c.47.909.913,1.884,1.3,2.846s.735,1.944,1.029,2.919a20.132,20.132,0,0,1,.938,5.7,3.123,3.123,0,0,0,.193,1.073,3.057,3.057,0,0,0,5.73-2.135l-.048-.128a25.215,25.215,0,0,0-3.468-6.231q-1.024-1.372-2.141-2.615c-.234-.259-.473-.507-.71-.757a5.014,5.014,0,0,1-2.824-1.426A.758.758,0,0,0,569.273,259.5Z" transform="translate(-452.945 -210.41)" fill="#fec29e"/><path d="M569.273,259.5l.017.033c.47.909.913,1.884,1.3,2.846s.735,1.944,1.029,2.919a20.132,20.132,0,0,1,.938,5.7,3.123,3.123,0,0,0,.193,1.073,3.057,3.057,0,0,0,5.73-2.135l-.048-.128a25.215,25.215,0,0,0-3.468-6.231q-1.024-1.372-2.141-2.615c-.234-.259-.473-.507-.71-.757a5.014,5.014,0,0,1-2.824-1.426A.758.758,0,0,0,569.273,259.5Z" transform="translate(-452.945 -210.41)" fill="#ff887c" opacity="0.33"/><path d="M502.922,364.047c-.472-18.937-31.161-55.41-31.161-55.41C474.476,315.314,503.393,382.984,502.922,364.047Z" transform="translate(-438.935 -217.579)" fill="#fec29e"/><path d="M502.922,364.047c-.472-18.937-31.161-55.41-31.161-55.41C474.476,315.314,503.393,382.984,502.922,364.047Z" transform="translate(-438.935 -217.579)" fill="#ff887c" opacity="0.33"/></g></g></g></g></svg>