<?xml version="1.0" encoding="utf-8"?>
<svg xmlns="http://www.w3.org/2000/svg" xmlns:xlink="http://www.w3.org/1999/xlink" width="504.203" height="415.674" viewBox="0 0 504.203 415.674"><defs><clipPath id="a"><path d="M586.423,222.069l25.062,14.493a1.347,1.347,0,0,0,2.02-1.166V213.258a1.346,1.346,0,0,0-.672-1.166L587.771,197.6a1.346,1.346,0,0,0-2.02,1.165V220.9A1.347,1.347,0,0,0,586.423,222.069Z" transform="translate(-585.751 -197.417)" fill="none"/></clipPath></defs><g transform="translate(-437.797 -109.724)"><g transform="translate(437.797 109.724)"><g transform="translate(0)"><g transform="translate(175.549)"><g transform="translate(0 188.52)"><path d="M492.17,264.472a8.322,8.322,0,0,1,7.554,0l141.743,82.523c2.076,1.207,2.065,3.165-.031,4.376l-63.115,36.591a8.322,8.322,0,0,1-7.554,0L429.024,305.439c-2.076-1.207-2.064-3.165.032-4.376Z" transform="translate(-426.771 -258.331)" fill="#bbb8f6" opacity="0.5" style="mix-blend-mode:multiply;isolation:isolate"/><path d="M642.269,344.937l-4.229-2.7v.928L498.21,261.906a8.121,8.121,0,0,0-7.367,0L431.18,296.483v-.5l-4.231,2.4v1.834h.007a2.586,2.586,0,0,0,1.5,2.092L571.01,385.143a8.112,8.112,0,0,0,7.367,0l62.351-36.125a2.4,2.4,0,0,0,1.477-2.544C642.225,346.059,642.269,344.937,642.269,344.937Z" transform="translate(-426.949 -259.189)" fill="#9796f7"/><path d="M490.843,260.539a8.112,8.112,0,0,1,7.367,0l142.549,82.841c2.025,1.176,2.013,3.086-.031,4.266l-62.352,36.124a8.112,8.112,0,0,1-7.367,0L428.461,300.929c-2.025-1.176-2.015-3.086.029-4.266Z" transform="translate(-426.949 -259.652)" fill="#d9dff6"/><path d="M487.685,264.538a2.09,2.09,0,0,1,1.9,0l6.531,3.8a.582.582,0,0,1-.005,1.1l-5.035,2.905a2.092,2.092,0,0,1-1.906,0l-6.531-3.8c-.526-.3-.516-.8.013-1.1Zm4.127,8.229c-.53.306-.539.8-.013,1.105l6.531,3.8a2.1,2.1,0,0,0,1.908,0l5.034-2.907a.581.581,0,0,0,.007-1.1l-6.531-3.8a2.09,2.09,0,0,0-1.9,0Zm9.344,5.431c-.53.305-.533.8-.013,1.1l6.531,3.8a2.108,2.108,0,0,0,1.914,0l5.034-2.905a.584.584,0,0,0,0-1.1l-6.529-3.8a2.105,2.105,0,0,0-1.9,0Zm9.448,5.49c-.53.307-.539.8-.013,1.105l6.531,3.795a2.094,2.094,0,0,0,1.908,0l5.034-2.907a.581.581,0,0,0,.007-1.1l-6.531-3.8a2.1,2.1,0,0,0-1.9,0Zm9.344,5.43c-.53.306-.533.8-.013,1.1l6.531,3.8a2.109,2.109,0,0,0,1.914,0l5.034-2.907a.583.583,0,0,0,0-1.1l-6.529-3.8a2.113,2.113,0,0,0-1.9,0Zm9.357,5.438c-.53.306-.539.8-.013,1.1l6.531,3.8a2.1,2.1,0,0,0,1.908,0l5.034-2.907a.581.581,0,0,0,.007-1.1l-6.531-3.8a2.092,2.092,0,0,0-1.9,0Zm9.344,5.43a.586.586,0,0,0-.007,1.109l6.531,3.795a2.107,2.107,0,0,0,1.907,0l5.034-2.905a.583.583,0,0,0,.007-1.1l-6.531-3.8a2.107,2.107,0,0,0-1.907,0Zm9.357,5.438c-.53.306-.533.8-.013,1.1l6.531,3.8a2.117,2.117,0,0,0,1.914,0l5.034-2.907a.584.584,0,0,0,0-1.1l-6.531-3.8a2.112,2.112,0,0,0-1.9,0Zm9.35,5.435c-.53.3-.539.8-.013,1.1l6.531,3.795a2.1,2.1,0,0,0,1.907-.005l5.034-2.906a.582.582,0,0,0,.005-1.1l-6.531-3.8a2.09,2.09,0,0,0-1.9,0Zm9.371,5.446a.586.586,0,0,0-.005,1.109l6.531,3.795a2.113,2.113,0,0,0,1.906,0l5.035-2.907a.583.583,0,0,0,.005-1.1l-6.529-3.8a2.116,2.116,0,0,0-1.908,0Zm9.351,5.434c-.528.306-.539.8-.013,1.1l6.531,3.8a2.1,2.1,0,0,0,1.907,0l5.034-2.907a.582.582,0,0,0,.007-1.1l-6.531-3.795a2.1,2.1,0,0,0-1.9,0Zm9.359,5.438c-.53.306-.541.8-.013,1.1l6.531,3.795a2.092,2.092,0,0,0,1.906,0l5.035-2.907a.581.581,0,0,0,.005-1.1l-6.531-3.8a2.1,2.1,0,0,0-1.9,0Zm9.342,5.43c-.53.306-.532.8-.013,1.1l6.531,3.8a2.109,2.109,0,0,0,1.914,0l5.035-2.907a.584.584,0,0,0,0-1.1l-6.531-3.8a2.11,2.11,0,0,0-1.9,0Zm9.357,5.438c-.529.306-.539.8-.013,1.1l6.531,3.8a2.094,2.094,0,0,0,1.908,0l5.035-2.905a.582.582,0,0,0,.005-1.1l-6.531-3.8a2.091,2.091,0,0,0-1.9,0Zm9.344,5.43a.586.586,0,0,0-.007,1.109l6.531,3.8a2.111,2.111,0,0,0,1.907-.005l5.034-2.906a.583.583,0,0,0,.007-1.1l-6.531-3.8a2.107,2.107,0,0,0-1.907,0ZM474.934,271.9c-.53.306-.532.795-.007,1.1l22.027,12.8a2.078,2.078,0,0,0,1.9,0l5.034-2.905c.53-.306.532-.795.007-1.1l-22.027-12.8a2.086,2.086,0,0,0-1.9,0Zm24.895,14.467a.583.583,0,0,0,0,1.1l6.529,3.795a2.093,2.093,0,0,0,1.9,0l5.034-2.907a.581.581,0,0,0,.007-1.1l-6.531-3.8a2.1,2.1,0,0,0-1.907,0Zm9.351,5.434c-.53.307-.533.795-.007,1.1l6.531,3.8a2.093,2.093,0,0,0,1.908,0l5.034-2.905a.584.584,0,0,0,0-1.105l-6.531-3.8a2.081,2.081,0,0,0-1.9,0Zm9.357,5.439c-.53.305-.532.795-.007,1.1l6.531,3.795a2.08,2.08,0,0,0,1.9,0l5.034-2.905c.53-.306.533-.8.007-1.1l-6.531-3.795a2.081,2.081,0,0,0-1.9,0Zm9.344,5.43a.581.581,0,0,0-.007,1.1l6.531,3.8a2.1,2.1,0,0,0,1.907,0l5.034-2.905a.583.583,0,0,0,0-1.1l-6.531-3.8a2.09,2.09,0,0,0-1.9,0Zm9.357,5.438c-.53.3-.532.795-.007,1.1l6.531,3.8a2.089,2.089,0,0,0,1.9,0L550.7,310.1c.53-.306.532-.795.005-1.1l-6.529-3.8a2.088,2.088,0,0,0-1.9,0Zm9.344,5.43a.583.583,0,0,0,0,1.1l6.531,3.8a2.1,2.1,0,0,0,1.9,0l5.034-2.907a.582.582,0,0,0,.007-1.1l-6.532-3.8a2.1,2.1,0,0,0-1.906,0Zm9.377,5.45a.582.582,0,0,0-.005,1.1l6.531,3.795a2.1,2.1,0,0,0,1.906,0l5.035-2.907a.583.583,0,0,0,0-1.1l-6.531-3.795a2.1,2.1,0,0,0-1.9,0Zm9.351,5.434c-.528.306-.532.794-.005,1.1l6.531,3.8a2.087,2.087,0,0,0,1.9,0l5.034-2.907a.581.581,0,0,0,.007-1.1l-6.531-3.8a2.086,2.086,0,0,0-1.9,0Zm9.351,5.434a.584.584,0,0,0,0,1.105l6.531,3.8a2.09,2.09,0,0,0,1.9,0l5.035-2.907a.581.581,0,0,0,.005-1.1l-6.531-3.8a2.092,2.092,0,0,0-1.906,0Zm9.35,5.434c-.53.306-.533.8-.005,1.1l6.531,3.8a2.092,2.092,0,0,0,1.906,0l5.035-2.906a.584.584,0,0,0,0-1.1l-6.531-3.8a2.078,2.078,0,0,0-1.9,0Zm9.357,5.438c-.528.306-.531.8-.005,1.1l6.531,3.8a2.077,2.077,0,0,0,1.9,0l5.035-2.905c.529-.306.531-.8.005-1.1l-6.531-3.8a2.078,2.078,0,0,0-1.9,0Zm9.344,5.431a.581.581,0,0,0-.007,1.1l6.532,3.8a2.1,2.1,0,0,0,1.906,0l5.035-2.907a.584.584,0,0,0,0-1.1l-6.531-3.8a2.093,2.093,0,0,0-1.9,0ZM467.16,276.387c-.529.306-.532.8-.007,1.1l7.056,4.1a2.088,2.088,0,0,0,1.9,0l5.034-2.907a.581.581,0,0,0,.007-1.1l-7.058-4.1a2.078,2.078,0,0,0-1.9,0Zm9.729,5.654a.583.583,0,0,0,0,1.1l7.058,4.1a2.077,2.077,0,0,0,1.9,0l5.034-2.905c.53-.306.532-.795.007-1.1l-7.056-4.1a2.1,2.1,0,0,0-1.908,0Zm-25.15,3.249a.58.58,0,0,0-.005,1.1l4.945,2.875a2.086,2.086,0,0,0,1.9,0l12.7-7.333c.53-.306.539-.8.013-1.1l-4.946-2.875a2.1,2.1,0,0,0-1.906.005Zm15.441.09a.581.581,0,0,0-.007,1.1l7.057,4.1a2.107,2.107,0,0,0,1.907,0l5.034-2.907a.585.585,0,0,0,.007-1.108l-7.058-4.1a2.1,2.1,0,0,0-1.906,0Zm29.441,8.078a.582.582,0,0,0-.007,1.1l6.531,3.795a2.09,2.09,0,0,0,1.9,0l5.035-2.905c.53-.306.539-.8.013-1.1l-6.531-3.795a2.094,2.094,0,0,0-1.907,0Zm-17.159-1.039a.586.586,0,0,0-.007,1.109l12.921,7.51a2.1,2.1,0,0,0,1.908,0l5.034-2.907a.582.582,0,0,0,.007-1.1l-5.444-3.164,6.758-3.9a.585.585,0,0,0,.013-1.1l-6.531-3.8a2.109,2.109,0,0,0-1.914,0l-7.71,4.452-1.843,1.063Zm26.5,6.47a.585.585,0,0,0,0,1.1l6.531,3.8a2.111,2.111,0,0,0,1.9,0l5.034-2.907c.53-.306.534-.8.015-1.105l-6.531-3.8a2.109,2.109,0,0,0-1.914,0Zm9.359,5.438a.582.582,0,0,0-.007,1.1l6.531,3.8a2.113,2.113,0,0,0,1.906,0l5.035-2.907a.586.586,0,0,0,.005-1.109l-6.529-3.8a2.116,2.116,0,0,0-1.908,0Zm9.342,5.43a.585.585,0,0,0,0,1.1l6.531,3.8a2.1,2.1,0,0,0,1.9,0l5.034-2.907c.53-.3.541-.8.015-1.1l-6.532-3.795a2.105,2.105,0,0,0-1.913,0Zm9.357,5.438a.583.583,0,0,0-.005,1.1l6.537,3.8a2.109,2.109,0,0,0,1.9,0l5.035-2.907a.585.585,0,0,0,.013-1.1l-6.539-3.8a2.112,2.112,0,0,0-1.906,0Zm9.351,5.434a.582.582,0,0,0-.005,1.1l6.531,3.8a2.1,2.1,0,0,0,1.9,0l5.034-2.907c.53-.3.539-.8.013-1.1l-6.531-3.795a2.1,2.1,0,0,0-1.906,0Zm9.372,5.446a.584.584,0,0,0,0,1.1l6.531,3.795a2.09,2.09,0,0,0,1.9,0l5.034-2.907c.53-.3.54-.8.013-1.1l-6.531-3.8a2.117,2.117,0,0,0-1.914,0Zm9.351,5.434a.583.583,0,0,0-.007,1.1l6.531,3.8a2.107,2.107,0,0,0,1.908,0l5.034-2.906a.586.586,0,0,0,.007-1.109l-6.531-3.8a2.106,2.106,0,0,0-1.908,0Zm9.357,5.439a.581.581,0,0,0-.005,1.1l6.529,3.795a2.093,2.093,0,0,0,1.9,0l5.034-2.905c.53-.306.539-.8.013-1.1l-6.531-3.8a2.094,2.094,0,0,0-1.907,0Zm9.344,5.428a.586.586,0,0,0,0,1.106l6.531,3.8a2.113,2.113,0,0,0,1.9,0l5.034-2.907c.53-.306.532-.8.013-1.1l-6.531-3.8a2.109,2.109,0,0,0-1.914,0Zm9.491,5.517a.581.581,0,0,0-.007,1.1l14.281,8.3a2.115,2.115,0,0,0,1.9,0l5.034-2.907a.585.585,0,0,0,.013-1.105l-14.281-8.3a2.1,2.1,0,0,0-1.908,0ZM495.2,301.568a.585.585,0,0,0-.013,1.1l6.531,3.8a2.117,2.117,0,0,0,1.914,0l5.034-2.907a.584.584,0,0,0,0-1.1l-6.531-3.8a2.1,2.1,0,0,0-1.9,0Zm9.357,5.438c-.53.3-.539.8-.013,1.1l6.531,3.8a2.1,2.1,0,0,0,1.906,0l5.035-2.907a.582.582,0,0,0,.007-1.1l-6.532-3.8a2.1,2.1,0,0,0-1.9,0Zm9.344,5.43a.586.586,0,0,0-.007,1.109l6.531,3.8a2.115,2.115,0,0,0,1.908,0l5.034-2.907a.583.583,0,0,0,.005-1.1l-6.531-3.8a2.112,2.112,0,0,0-1.906,0Zm9.357,5.438a.585.585,0,0,0-.013,1.1l6.531,3.8a2.116,2.116,0,0,0,1.914,0l5.034-2.907a.585.585,0,0,0,0-1.1l-6.531-3.8a2.11,2.11,0,0,0-1.9,0Zm9.351,5.434c-.53.306-.54.8-.013,1.105l6.531,3.795a2.1,2.1,0,0,0,1.906,0l5.035-2.907a.582.582,0,0,0,.005-1.1l-6.531-3.8a2.1,2.1,0,0,0-1.9,0Zm9.37,5.446a.586.586,0,0,0-.005,1.109l6.53,3.8a2.1,2.1,0,0,0,1.906,0l5.034-2.905a.583.583,0,0,0,.007-1.1l-6.531-3.795a2.107,2.107,0,0,0-1.908,0Zm9.351,5.434c-.53.306-.539.8-.013,1.1l6.531,3.8a2.1,2.1,0,0,0,1.908,0l5.034-2.906a.582.582,0,0,0,.007-1.1l-6.531-3.8a2.09,2.09,0,0,0-1.9,0Zm9.351,5.435a.585.585,0,0,0-.005,1.108l6.529,3.8a2.1,2.1,0,0,0,1.908-.005l5.034-2.905a.582.582,0,0,0,.007-1.1l-6.531-3.8a2.1,2.1,0,0,0-1.906,0Zm9.351,5.434a.584.584,0,0,0-.013,1.1l6.531,3.8a2.117,2.117,0,0,0,1.914,0l5.034-2.907a.585.585,0,0,0,0-1.105l-6.531-3.8a2.105,2.105,0,0,0-1.9,0Zm9.357,5.438c-.529.3-.539.8-.013,1.105l6.531,3.8a2.1,2.1,0,0,0,1.907,0l5.034-2.907a.582.582,0,0,0,.007-1.1l-6.531-3.8a2.1,2.1,0,0,0-1.9,0Zm9.344,5.43a.586.586,0,0,0-.007,1.109l8.116,4.717a2.115,2.115,0,0,0,1.907,0l5.034-2.907a.583.583,0,0,0,.007-1.1l-8.116-4.717a2.116,2.116,0,0,0-1.908,0ZM459.513,289.807c-.53.306-.532.795-.007,1.1l7.056,4.1a2.1,2.1,0,0,0,1.908,0l5.034-2.905a.583.583,0,0,0,0-1.1l-7.056-4.1a2.087,2.087,0,0,0-1.9,0Zm10.157,5.854a.585.585,0,0,0,0,1.105l8.615,5.006a2.111,2.111,0,0,0,1.9,0l5.034-2.907a.585.585,0,0,0,.013-1.1l-8.613-5.006a2.118,2.118,0,0,0-1.914,0Zm11.531,6.7a.581.581,0,0,0-.005,1.1l6.531,3.8a2.1,2.1,0,0,0,1.9,0l5.034-2.907c.53-.306.54-.8.013-1.1l-6.531-3.795a2.092,2.092,0,0,0-1.906,0Zm9.344,5.43a.584.584,0,0,0,0,1.1l6.531,3.8a2.111,2.111,0,0,0,1.9,0l5.034-2.907a.585.585,0,0,0,.014-1.1l-6.531-3.8a2.118,2.118,0,0,0-1.914,0Zm9.357,5.438a.583.583,0,0,0-.005,1.1l6.529,3.8a2.116,2.116,0,0,0,1.908,0l5.034-2.907a.586.586,0,0,0,.007-1.109l-6.531-3.795a2.112,2.112,0,0,0-1.906,0Zm9.344,5.43a.584.584,0,0,0,0,1.1l6.529,3.8a2.1,2.1,0,0,0,1.9,0l5.034-2.907c.53-.305.539-.8.013-1.1l-6.531-3.8a2.117,2.117,0,0,0-1.914,0ZM518.6,324.1a.584.584,0,0,0-.007,1.1l6.539,3.8a2.1,2.1,0,0,0,1.9,0l5.034-2.907a.585.585,0,0,0,.013-1.105l-6.537-3.8a2.112,2.112,0,0,0-1.908.005Zm9.351,5.434a.582.582,0,0,0-.007,1.1l6.531,3.8a2.093,2.093,0,0,0,1.9,0l5.034-2.906c.53-.306.539-.8.013-1.1l-6.531-3.8a2.094,2.094,0,0,0-1.908,0Zm9.372,5.447a.584.584,0,0,0,0,1.1l6.531,3.795a2.1,2.1,0,0,0,1.9,0l5.034-2.907c.529-.306.539-.8.013-1.1l-6.531-3.795a2.108,2.108,0,0,0-1.914,0Zm9.351,5.434a.583.583,0,0,0-.007,1.1l6.531,3.8a2.115,2.115,0,0,0,1.908,0l5.034-2.907a.586.586,0,0,0,.007-1.109l-6.531-3.795a2.107,2.107,0,0,0-1.908,0Zm9.357,5.438a.582.582,0,0,0-.007,1.1l6.531,3.8a2.1,2.1,0,0,0,1.9,0l5.034-2.907c.53-.306.539-.8.013-1.1l-6.531-3.8a2.1,2.1,0,0,0-1.908,0Zm9.342,5.43a.585.585,0,0,0,0,1.1l6.531,3.795a2.11,2.11,0,0,0,1.9,0l5.035-2.907a.585.585,0,0,0,.013-1.1l-6.531-3.8a2.117,2.117,0,0,0-1.914,0Zm9.491,5.515a.582.582,0,0,0-.005,1.1l14.281,8.3a2.105,2.105,0,0,0,1.9,0l5.034-2.907c.529-.3.533-.8.014-1.1l-14.283-8.3a2.1,2.1,0,0,0-1.906,0Zm-138.6-62.57c-.53.306-.539.8-.013,1.1L441.2,298.2a2.092,2.092,0,0,0,1.906,0l12.759-7.365c.53-.306.539-.8.013-1.1l-4.946-2.873a2.1,2.1,0,0,0-1.908,0Zm15.3-.056a.581.581,0,0,0-.005,1.1l7.45,4.33a2.112,2.112,0,0,0,1.906,0l5.034-2.907a.586.586,0,0,0,.007-1.109l-7.45-4.329a2.1,2.1,0,0,0-1.908,0Zm10.312,5.991a.585.585,0,0,0,0,1.1l3.689,2.144a2.108,2.108,0,0,0,1.908,0l5.034-2.907a.586.586,0,0,0,.007-1.109l-3.689-2.144a2.116,2.116,0,0,0-1.914,0Zm6.832,3.97a.582.582,0,0,0-.007,1.1l3.866,2.246a2.1,2.1,0,0,0,1.906,0l5.035-2.907a.585.585,0,0,0,.005-1.108l-3.865-2.246a2.1,2.1,0,0,0-1.908,0Zm6.818,3.962a.583.583,0,0,0-.007,1.1l10.7,6.22a2.107,2.107,0,0,0,1.908,0l5.034-2.905a.586.586,0,0,0,.007-1.109l-10.7-6.22a2.107,2.107,0,0,0-1.908,0Zm13.531,7.863a.583.583,0,0,0-.005,1.1l6.531,3.794a2.091,2.091,0,0,0,1.9,0l5.034-2.906c.53-.306.539-.8.014-1.1l-6.531-3.8a2.092,2.092,0,0,0-1.906,0Zm9.344,5.431a.584.584,0,0,0,0,1.1l6.531,3.8a2.111,2.111,0,0,0,1.9,0l5.034-2.907c.53-.306.532-.8.013-1.1l-6.531-3.8a2.109,2.109,0,0,0-1.914,0Zm9.357,5.438a.583.583,0,0,0-.007,1.1l6.531,3.8a2.116,2.116,0,0,0,1.908,0l5.034-2.907a.586.586,0,0,0,.006-1.109l-6.531-3.795a2.115,2.115,0,0,0-1.907,0Zm9.35,5.434a.582.582,0,0,0-.007,1.1l6.531,3.8a2.1,2.1,0,0,0,1.9,0l5.034-2.907c.53-.305.539-.8.013-1.1l-6.531-3.8a2.1,2.1,0,0,0-1.908,0Zm9.372,5.446a.585.585,0,0,0,0,1.105l6.531,3.8a2.106,2.106,0,0,0,1.9,0l5.034-2.907c.53-.305.533-.8.014-1.1l-6.531-3.8a2.117,2.117,0,0,0-1.914,0Zm9.35,5.434a.582.582,0,0,0-.007,1.1l6.531,3.8a2.09,2.09,0,0,0,1.9,0l5.035-2.905c.53-.306.539-.8.013-1.1l-6.531-3.8a2.094,2.094,0,0,0-1.907,0Zm9.349,5.434a.585.585,0,0,0,0,1.1l6.531,3.8a2.092,2.092,0,0,0,1.9,0l5.034-2.905c.53-.306.539-.8.013-1.1l-6.531-3.8a2.108,2.108,0,0,0-1.914,0Zm9.352,5.435a.582.582,0,0,0-.007,1.1l6.531,3.8a2.105,2.105,0,0,0,1.906,0L568,356a.586.586,0,0,0,.005-1.109l-6.531-3.8a2.1,2.1,0,0,0-1.906,0Zm9.357,5.438a.582.582,0,0,0-.007,1.1l6.531,3.794a2.091,2.091,0,0,0,1.9,0l5.035-2.905c.53-.306.539-.8.012-1.105l-6.529-3.795a2.1,2.1,0,0,0-1.908,0Zm9.342,5.43a.585.585,0,0,0,0,1.1l6.531,3.8a2.111,2.111,0,0,0,1.9,0l5.035-2.907c.528-.306.532-.8.012-1.1l-6.529-3.8a2.108,2.108,0,0,0-1.914,0ZM446.89,300.4c-.53.305-.539.8-.013,1.1l6.531,3.8a2.1,2.1,0,0,0,1.908,0l5.034-2.907a.582.582,0,0,0,.007-1.1l-6.531-3.795a2.1,2.1,0,0,0-1.9,0Zm9.344,5.43a.586.586,0,0,0-.007,1.109l6.531,3.8a2.115,2.115,0,0,0,1.908,0l5.034-2.907a.583.583,0,0,0,.007-1.1l-6.531-3.8a2.114,2.114,0,0,0-1.908,0Zm9.448,5.491c-.53.305-.539.8-.014,1.105l6.531,3.8a2.1,2.1,0,0,0,1.908,0l5.034-2.907a.582.582,0,0,0,.007-1.1l-6.531-3.8a2.1,2.1,0,0,0-1.9,0Zm9.344,5.43a.586.586,0,0,0-.007,1.109l6.531,3.8a2.115,2.115,0,0,0,1.908,0l5.034-2.907a.583.583,0,0,0,.007-1.1l-6.531-3.8a2.114,2.114,0,0,0-1.907,0Zm9.357,5.438c-.53.306-.539.8-.013,1.1l43.961,25.546a2.094,2.094,0,0,0,1.908,0l5.034-2.905a.582.582,0,0,0,.005-1.1l-43.959-25.547a2.1,2.1,0,0,0-1.9,0Zm46.773,27.182a.584.584,0,0,0-.013,1.1l6.531,3.8a2.117,2.117,0,0,0,1.914,0l5.035-2.907a.585.585,0,0,0,0-1.1l-6.531-3.8a2.1,2.1,0,0,0-1.9,0Zm9.358,5.438c-.53.3-.541.8-.013,1.1l6.53,3.795a2.1,2.1,0,0,0,1.906,0l5.035-2.907a.582.582,0,0,0,.005-1.1l-6.531-3.8a2.094,2.094,0,0,0-1.9,0Zm9.343,5.43a.586.586,0,0,0-.005,1.109l6.531,3.8a2.113,2.113,0,0,0,1.906,0l5.034-2.907a.583.583,0,0,0,.007-1.1l-6.531-3.795a2.113,2.113,0,0,0-1.906,0Zm9.359,5.438c-.53.306-.533.8-.013,1.1l6.531,3.8a2.108,2.108,0,0,0,1.914,0l5.034-2.907a.585.585,0,0,0,0-1.1l-6.531-3.8a2.112,2.112,0,0,0-1.9,0Zm9.342,5.43a.586.586,0,0,0-.005,1.109l5.064,2.943a2.1,2.1,0,0,0,1.906,0l5.035-2.907a.582.582,0,0,0,.005-1.1L575.5,368.2a2.115,2.115,0,0,0-1.908,0Z" transform="translate(-423.939 -258.08)" fill="#b4b9f6"/></g><g transform="translate(69.778)"><g transform="translate(29.239 181.95)"><path d="M521.8,258.2a5.293,5.293,0,0,1,4.8,0l92.947,54.015c1.32.766,1.314,2.012-.02,2.782l-19.825,10.926a5.288,5.288,0,0,1-4.8,0l-92.947-54.015c-1.32-.767-1.314-2.012.02-2.782Z" transform="translate(-500.97 -253.766)" fill="#bbb8f6" opacity="0.5" style="mix-blend-mode:multiply;isolation:isolate"/><path d="M522.571,257.537a5.118,5.118,0,0,1,4.647,0l90.9,50.446s0,2.681,0,3.168a1.652,1.652,0,0,1-.971,1.347L597.957,323.07a5.118,5.118,0,0,1-4.647,0L503.367,270.8a1.62,1.62,0,0,1-.952-1.346c0-.487.061-3.355.061-3.355Z" transform="translate(-500.481 -253.986)" fill="#9796f7"/><path d="M522.571,255.3a5.119,5.119,0,0,1,4.647,0l89.943,52.269c1.277.742,1.271,1.948-.019,2.692l-19.185,10.574a5.119,5.119,0,0,1-4.647,0l-89.943-52.269c-1.278-.742-1.271-1.946.019-2.691Z" transform="translate(-500.482 -254.741)" fill="#d9dff6"/></g><path d="M663.7,220.959,487.686,119.339a3.123,3.123,0,0,0-3.307-.251l-.016-.009-3.51,2.085,2.28,1.327-.387,136.18a9.959,9.959,0,0,0,4.523,7.834L662.234,367.522l-2.136,1.269,2.9,1.691,3.566-2.08-.027-.015a3.163,3.163,0,0,0,1.291-2.855l.387-136.74A9.961,9.961,0,0,0,663.7,220.959Z" transform="translate(-478.524 -118.724)" fill="#9796f7"/><g transform="translate(71.099 168.974)"><path d="M575.716,269.663v32.513l-3.159,1.709-37.933-24.15v-34.7Z" transform="translate(-531.464 -245.04)" fill="#9796f7"/><path d="M573.354,270.056v33.7l-41.092-23.625v-34.7Z" transform="translate(-532.262 -244.908)" fill="#b4b9f6"/></g><path d="M660.063,222.538a9.96,9.96,0,0,1,4.523,7.834L664.2,367.11c-.008,2.883-2.044,4.043-4.552,2.6L483.635,268.084a9.958,9.958,0,0,1-4.523-7.834l.388-136.738c.008-2.881,2.044-4.043,4.551-2.594Z" transform="translate(-479.112 -118.193)" fill="#d9dff6"/><g transform="translate(5.509 16.262)"><path d="M483.23,242.722a11.615,11.615,0,0,0,5.284,9.135l99.258,57.3L652.079,346.3c2.92,1.692,5.3.336,5.31-3.023l.3-108.083a11.626,11.626,0,0,0-5.271-9.147L571.8,179.5,488.85,131.6c-2.92-1.68-5.311-.336-5.311,3.037Z" transform="translate(-483.23 -130.881)" fill="#f7f7f7"/></g></g><g transform="translate(95.959 40.394)" opacity="0.47"><path d="M504.3,149.428l123.248,71.283a3.74,3.74,0,0,1,1.868,3.235l.1,87.475a3.74,3.74,0,0,1-5.618,3.239L500.651,243.09a3.741,3.741,0,0,1-1.862-3.23l-.106-87.189A3.741,3.741,0,0,1,504.3,149.428Z" transform="translate(-498.683 -148.92)" fill="#d9dff6"/><g transform="translate(3.243 9.2)" opacity="0.5"><path d="M620.582,258.674,501.148,189.317v1.072l119.435,69.356Z" transform="translate(-501.094 -144.478)" fill="#fff"/><path d="M620.593,267.078,501.158,197.722V198.8l119.434,69.356Z" transform="translate(-501.091 -141.64)" fill="#fff"/><path d="M620.6,275.484,501.169,206.128V207.2L620.6,276.556Z" transform="translate(-501.087 -138.801)" fill="#fff"/><path d="M620.542,225.154,501.108,155.8v1.073l119.434,69.356Z" transform="translate(-501.108 -155.798)" fill="#fff"/><path d="M620.613,283.89,501.179,214.533v1.073l119.434,69.356Z" transform="translate(-501.084 -135.963)" fill="#fff"/><path d="M620.552,233.457,501.118,164.1v1.072l119.434,69.355Z" transform="translate(-501.104 -152.994)" fill="#fff"/><path d="M620.562,241.862,501.128,172.506l0,1.073,119.434,69.356Z" transform="translate(-501.101 -150.155)" fill="#fff"/><path d="M620.572,250.268,501.138,180.912v1.073L620.574,251.34Z" transform="translate(-501.097 -147.317)" fill="#fff"/><path d="M501.108,156.161l.094,78.089.977.563-.094-78.093Z" transform="translate(-501.107 -155.675)" fill="#fff"/><path d="M509.977,161.328l.094,78.089.975.563-.094-78.093Z" transform="translate(-498.112 -153.93)" fill="#fff"/><path d="M518.847,166.494l.095,78.089.975.563-.094-78.092Z" transform="translate(-495.117 -152.185)" fill="#fff"/><path d="M527.714,171.661l.095,78.089.977.563-.094-78.093Z" transform="translate(-492.122 -150.441)" fill="#fff"/><path d="M536.584,176.827l.095,78.09.977.562-.095-78.092Z" transform="translate(-489.127 -148.696)" fill="#fff"/><path d="M545.453,181.993l.094,78.089.975.563-.095-78.092Z" transform="translate(-486.132 -146.951)" fill="#fff"/><path d="M554.322,187.16l.095,78.089.975.563-.094-78.093Z" transform="translate(-483.137 -145.207)" fill="#fff"/><path d="M563.19,192.327l.094,78.09.977.563-.094-78.094Z" transform="translate(-480.142 -143.462)" fill="#fff"/><path d="M572.06,197.494l.094,78.088.977.564-.095-78.092Z" transform="translate(-477.147 -141.717)" fill="#fff"/><path d="M580.929,202.66l.095,78.089.977.564-.094-78.093Z" transform="translate(-474.152 -139.972)" fill="#fff"/><path d="M589.8,207.293l.1,79.646.975.563-.1-79.649Z" transform="translate(-471.157 -138.408)" fill="#fff"/></g><g transform="translate(5.078 67.884)"><path d="M583.712,247.727l-21.7-45.766-22.024,18.7-9.507-15.112-27.1,16.814-.9-.93,28.3-17.967,9.618,15.3,22.425-19.1L584.412,244.4l33.729-33.868,1.114.65Z" transform="translate(-502.479 -199.667)" fill="#9796f7"/></g></g><g transform="translate(53.303 18.393)"><g transform="translate(1.043)"><path d="M469.134,174.754l27.294,15.784a3.12,3.12,0,0,0,4.682-2.7V151.383a3.122,3.122,0,0,0-1.558-2.7L472.258,132.9a3.12,3.12,0,0,0-4.682,2.7v36.452A3.122,3.122,0,0,0,469.134,174.754Z" transform="translate(-467.576 -132.473)" fill="#b4b9f6"/><path d="M485.278,159.611V147.968a1.293,1.293,0,0,1,1.941-1.12l8.651,5a1.293,1.293,0,0,1,.646,1.12v11.645a1.294,1.294,0,0,1-1.941,1.12l-8.651-5A1.294,1.294,0,0,1,485.278,159.611Zm-1.386-12.929a.676.676,0,0,0,.34-1.26l-13.217-7.7a.676.676,0,0,0-.682,1.168l13.218,7.7A.684.684,0,0,0,483.892,146.682Zm-.341,2.932-13.218-7.7a.676.676,0,0,1,.682-1.168l13.217,7.7a.676.676,0,1,1-.681,1.168Zm0,3.025-13.218-7.7a.676.676,0,0,1,.682-1.168l13.217,7.7a.676.676,0,1,1-.681,1.168Zm0,3.026-13.218-7.7a.676.676,0,0,1,.682-1.168l13.217,7.7a.676.676,0,0,1-.34,1.26A.683.683,0,0,1,483.551,155.665Zm0,3.023-13.218-7.7a.676.676,0,0,1,.682-1.168l13.217,7.7a.676.676,0,1,1-.681,1.168Z" transform="translate(-466.758 -130.731)" fill="#fffaff"/><path d="M485.278,173.177V161.534a1.294,1.294,0,0,1,1.941-1.12l8.651,5a1.293,1.293,0,0,1,.646,1.12V178.18a1.293,1.293,0,0,1-1.941,1.12l-8.651-5A1.292,1.292,0,0,1,485.278,173.177Zm-1.386-12.929a.676.676,0,0,0,.34-1.26l-13.217-7.7a.676.676,0,0,0-.682,1.168l13.218,7.7A.683.683,0,0,0,483.892,160.248Zm-.341,2.934-13.218-7.7a.676.676,0,0,1,.682-1.168l13.217,7.7a.675.675,0,0,1-.34,1.259A.682.682,0,0,1,483.551,163.182Zm0,3.025-13.218-7.7a.677.677,0,0,1,.682-1.169l13.217,7.7a.676.676,0,0,1-.34,1.26A.684.684,0,0,1,483.551,166.206Zm0,3.025-13.218-7.7a.676.676,0,0,1,.682-1.168l13.217,7.7a.676.676,0,1,1-.681,1.168Zm0,3.025-13.218-7.7a.676.676,0,0,1,.682-1.168l13.217,7.7a.675.675,0,0,1-.34,1.259A.683.683,0,0,1,483.551,172.255Z" transform="translate(-466.758 -126.149)" fill="#fffaff"/></g><g transform="translate(0 51.801)"><path d="M468.356,213.476l27.293,15.784a3.121,3.121,0,0,0,4.683-2.7V190.105a3.119,3.119,0,0,0-1.558-2.7l-27.294-15.784a3.121,3.121,0,0,0-4.683,2.7v36.454A3.12,3.12,0,0,0,468.356,213.476Z" transform="translate(-466.796 -171.197)" fill="#b4b9f6"/><path d="M484.5,198.334V186.691a1.293,1.293,0,0,1,1.941-1.12l8.651,5a1.294,1.294,0,0,1,.646,1.12v11.643a1.293,1.293,0,0,1-1.941,1.12l-8.651-5A1.294,1.294,0,0,1,484.5,198.334Zm-1.387-12.929a.677.677,0,0,0,.341-1.26l-13.218-7.7a.676.676,0,0,0-.681,1.169l13.218,7.7A.666.666,0,0,0,483.112,185.405Zm-.34,2.934-13.218-7.7a.676.676,0,0,1,.681-1.169l13.218,7.7a.676.676,0,0,1-.681,1.169Zm0,3.025-13.218-7.7a.676.676,0,0,1,.681-1.168l13.218,7.7a.676.676,0,0,1-.681,1.169Zm0,3.025-13.218-7.7a.676.676,0,0,1,.681-1.169l13.218,7.7a.676.676,0,1,1-.681,1.168Zm0,3.025-13.218-7.7a.676.676,0,0,1,.681-1.168l13.218,7.7a.676.676,0,0,1-.681,1.169Z" transform="translate(-465.978 -169.454)" fill="#fffaff"/><path d="M484.5,211.9V200.258a1.293,1.293,0,0,1,1.941-1.12l8.651,5a1.294,1.294,0,0,1,.646,1.12V216.9a1.294,1.294,0,0,1-1.941,1.12l-8.651-5A1.293,1.293,0,0,1,484.5,211.9Zm-1.387-12.929a.677.677,0,0,0,.341-1.26l-13.218-7.7a.676.676,0,0,0-.681,1.168l13.218,7.7A.679.679,0,0,0,483.112,198.972Zm-.34,2.932-13.218-7.7a.676.676,0,0,1,.681-1.168l13.218,7.7a.677.677,0,0,1-.341,1.26A.666.666,0,0,1,482.773,201.9Zm0,3.025-13.218-7.7a.676.676,0,0,1,.681-1.168l13.218,7.7a.677.677,0,0,1-.341,1.26A.666.666,0,0,1,482.773,204.929Zm0,3.026-13.218-7.7a.676.676,0,0,1,.681-1.168l13.218,7.7a.676.676,0,0,1-.681,1.169Zm0,3.023-13.218-7.7a.676.676,0,0,1,.681-1.168l13.218,7.7a.677.677,0,0,1-.341,1.26A.666.666,0,0,1,482.773,210.978Z" transform="translate(-465.978 -164.873)" fill="#fffaff"/></g><g transform="translate(44.394 71.354)"><path d="M501.891,237.57l33.41,19.32a3.821,3.821,0,0,0,5.733-3.307V208.96a3.823,3.823,0,0,0-1.908-3.307l-33.412-19.32a3.82,3.82,0,0,0-5.732,3.307v44.623A3.819,3.819,0,0,0,501.891,237.57Z" transform="translate(-499.983 -185.814)" fill="#b4b9f6"/><path d="M511.122,202.055c3.687-2.4,9.361-.221,12.676,4.868s3.011,11.161-.676,13.562-9.362.222-12.676-4.868S507.435,204.456,511.122,202.055Zm-3.5,35.161,19.076,11.031s0-14.241-2.895-19.711c-2.841-5.368-9.732-7.7-12.676-4.868C507.474,227.173,507.617,237.217,507.617,237.217Z" transform="translate(-497.405 -180.659)" fill="#fffaff"/></g><g transform="translate(159.126 86.876)"><g clip-path="url(#a)"><path d="M585.751,221.93l27.754,16.05V212.73l-27.754-16.05Z" transform="translate(-585.751 -197.666)" fill="#d1d3ff"/><path d="M585.751,217.176l27.754,16.05-14.644-22.468Z" transform="translate(-585.751 -192.912)" fill="#d9dff6"/><path d="M600.165,217.329l13.34-4.6-27.753-16.05,11.92,19.744A2.11,2.11,0,0,0,600.165,217.329Z" transform="translate(-585.751 -197.666)" fill="#d9dff6"/></g></g></g></g><g transform="translate(119.25 25.919)"><path d="M384.863,235.86l23.563,13.715h0l23.591-13.535-23.732-13.814h0Z" transform="translate(-384.863 -109.689)" fill="#9997e9" opacity="0.5" style="mix-blend-mode:multiply;isolation:isolate"/><path d="M407.02,249.217l23.563,13.715L454.174,249.4l-23.732-13.814h0Z" transform="translate(-377.381 -105.179)" fill="#bbb8f6" opacity="0.5" style="mix-blend-mode:multiply;isolation:isolate"/><path d="M429.659,262.032l23.563,13.716,23.591-13.535L453.081,248.4h0Z" transform="translate(-369.735 -100.851)" fill="#bbb8f6" opacity="0.5" style="mix-blend-mode:multiply;isolation:isolate"/><g transform="translate(3.753)"><path d="M387.669,261.825l18.125,10.55,18.146-10.411V146.078l-36.271-.139Z" transform="translate(-387.669 -135.452)" fill="#8184eb"/><path d="M387.669,148.586l18.125,10.55,18.146-10.411L405.685,138.1Z" transform="translate(-387.669 -138.099)" fill="#d9dff7"/><path d="M401.218,272.34V156.454l18.146-10.411V261.929Z" transform="translate(-383.093 -135.417)" fill="#bbb8f6"/></g><g transform="translate(34.369 34.051)"><path d="M410.555,271.163l18.125,10.55L446.827,271.3V171.533l-36.272-.139Z" transform="translate(-410.555 -160.907)" fill="#8184eb"/><path d="M410.555,174.041l18.125,10.55,18.146-10.411-18.255-10.626Z" transform="translate(-410.555 -163.554)" fill="#d9dff7"/><path d="M424.1,281.677V181.909L442.251,171.5v99.769Z" transform="translate(-405.98 -160.872)" fill="#b4b9f6"/></g><g transform="translate(64.984 74.607)"><path d="M433.442,278.859l18.125,10.55L469.713,279V201.85l-36.271-.139Z" transform="translate(-433.442 -191.224)" fill="#8184eb"/><path d="M433.442,204.358l18.125,10.55L469.713,204.5l-18.255-10.626Z" transform="translate(-433.442 -193.872)" fill="#d9dff7"/><path d="M446.992,289.374V212.226l18.146-10.411v77.148Z" transform="translate(-428.866 -191.189)" fill="#b4b9f6"/></g></g><g transform="translate(346.067 276.688)"><g transform="translate(0 30.822)"><path d="M554.42,367.689c0,5.876,8.972,10.641,20.041,10.641s20.037-4.765,20.037-10.641-8.972-10.637-20.037-10.637S554.42,361.815,554.42,367.689Z" transform="translate(-554.42 -345.75)" fill="#bbb8f6" opacity="0.5" style="mix-blend-mode:multiply;isolation:isolate"/><path d="M572.98,359.24c0,5.877,8.972,10.641,20.041,10.641s20.039-4.765,20.039-10.641S604.088,348.6,593.021,348.6,572.98,353.368,572.98,359.24Z" transform="translate(-548.152 -348.603)" fill="#bbb8f6" opacity="0.5" style="mix-blend-mode:multiply;isolation:isolate"/><path d="M587.12,372.683c0,5.876,8.972,10.641,20.041,10.641S627.2,378.56,627.2,372.683s-8.971-10.638-20.038-10.638S587.12,366.81,587.12,372.683Z" transform="translate(-543.377 -344.063)" fill="#bbb8f6" opacity="0.5" style="mix-blend-mode:multiply;isolation:isolate"/></g><g transform="translate(25.564 24.897)"><path d="M610.516,351.691V355.8c0,5.553-8.279,10.055-18.492,10.055s-18.494-4.5-18.494-10.055v-4.111Z" transform="translate(-573.53 -341.635)" fill="#9796f7"/><path d="M599.123,364.308c-.591.2-1.2.385-1.835.542V354.5h1.835Zm-18.776.042c.591.2,1.2.385,1.835.54V354.545h-1.835Zm23.61-2.254a10.693,10.693,0,0,0,3.224-3.126v-6.923h-3.224Z" transform="translate(-571.228 -341.515)" fill="#6782ea" opacity="0.41" style="mix-blend-mode:screen;isolation:isolate"/><path d="M573.53,354.23c0,5.553,8.28,10.056,18.494,10.056s18.492-4.5,18.492-10.056-8.279-10.055-18.492-10.055S573.53,348.677,573.53,354.23Z" transform="translate(-573.53 -344.174)" fill="#d9dff6"/><path d="M576.712,353.5c0,4.175,6.374,7.56,14.237,7.56s14.236-3.384,14.236-7.56-6.373-7.558-14.236-7.558S576.712,349.333,576.712,353.5Z" transform="translate(-572.456 -343.575)" fill="#b4b9f6"/><path d="M590.949,347c7.53,0,13.677,3.106,14.187,7.034a4.069,4.069,0,0,0,.05-.525c0-4.172-6.373-7.558-14.236-7.558s-14.237,3.386-14.237,7.558a4.069,4.069,0,0,0,.049.525C577.271,350.1,583.419,347,590.949,347Z" transform="translate(-572.456 -343.575)" fill="#9796f7"/><path d="M595.677,349.726l1.3-.759-1.029-.594-1.3.757c-2.35-1.195-5.242-1.478-7.248-.313-2.527,1.469-.844,3,.437,4.27l-2.54,1.477c-.377-.427-.3-.848.306-1.266l-2.948-1.7c-2.007,1.253-1.541,2.841.469,4.231l-1.319.768,1.03.594,1.3-.756a7.932,7.932,0,0,0,7.337.316c2.495-1.45.739-3-.512-4.283l2.495-1.447c.3.353.234.746-.294,1.132l2.966,1.711C598.019,352.589,597.729,351.112,595.677,349.726Zm-7.2,5.4a2.543,2.543,0,0,1-2.194.053l2.279-1.324C588.955,354.362,589.055,354.794,588.477,355.13Zm1.8-3.458c-.334-.488-.379-.906.185-1.232a2.266,2.266,0,0,1,2.051-.068Z" transform="translate(-570.885 -342.857)" fill="#9796f7"/><path d="M595.677,349.37l1.3-.759-1.029-.594-1.3.757c-2.35-1.193-5.242-1.477-7.248-.313-2.527,1.469-.844,3,.437,4.27l-2.54,1.477c-.377-.427-.3-.848.306-1.266l-2.948-1.7c-2.007,1.255-1.541,2.841.469,4.231l-1.319.769,1.03.593,1.3-.756a7.932,7.932,0,0,0,7.337.316c2.495-1.449.739-3-.512-4.283l2.495-1.447c.3.353.234.748-.294,1.132l2.966,1.711C598.019,352.233,597.729,350.756,595.677,349.37Zm-7.2,5.406a2.547,2.547,0,0,1-2.194.052l2.279-1.324C588.955,354.007,589.055,354.44,588.477,354.776Zm1.8-3.459c-.334-.488-.379-.906.185-1.232a2.265,2.265,0,0,1,2.051-.068Z" transform="translate(-570.885 -342.976)" fill="#d9dff6"/></g><g transform="translate(25.564 18.673)"><path d="M610.516,347.038v4.111c0,5.553-8.279,10.056-18.492,10.056s-18.494-4.5-18.494-10.056v-4.111Z" transform="translate(-573.53 -336.982)" fill="#9796f7"/><path d="M599.123,359.655c-.591.2-1.2.385-1.835.542V349.85h1.835Zm-18.776.042c.591.2,1.2.385,1.835.54V349.891h-1.835Zm23.61-2.254a10.694,10.694,0,0,0,3.224-3.126v-6.922h-3.224Z" transform="translate(-571.228 -336.862)" fill="#6782ea" opacity="0.41" style="mix-blend-mode:screen;isolation:isolate"/><path d="M573.53,349.577c0,5.553,8.28,10.056,18.494,10.056s18.492-4.5,18.492-10.056-8.279-10.056-18.492-10.056S573.53,344.024,573.53,349.577Z" transform="translate(-573.53 -339.521)" fill="#d9dff6"/><path d="M576.712,348.852c0,4.175,6.374,7.559,14.237,7.559s14.236-3.384,14.236-7.559-6.373-7.558-14.236-7.558S576.712,344.678,576.712,348.852Z" transform="translate(-572.456 -338.922)" fill="#b4b9f6"/><path d="M590.949,342.341c7.53,0,13.677,3.108,14.187,7.034a4.03,4.03,0,0,0,.05-.523c0-4.174-6.373-7.558-14.236-7.558s-14.237,3.384-14.237,7.558a4.03,4.03,0,0,0,.049.523C577.271,345.449,583.419,342.341,590.949,342.341Z" transform="translate(-572.456 -338.922)" fill="#9796f7"/><path d="M595.677,345.073l1.3-.76-1.029-.593-1.3.756c-2.35-1.193-5.242-1.477-7.248-.312-2.527,1.469-.844,3,.437,4.27l-2.54,1.477c-.377-.427-.3-.848.306-1.266l-2.948-1.7c-2.007,1.254-1.541,2.841.469,4.231l-1.319.768,1.03.594,1.3-.757a7.929,7.929,0,0,0,7.337.317c2.495-1.45.739-3-.512-4.283l2.495-1.448c.3.353.234.746-.294,1.13l2.966,1.712C598.019,347.935,597.729,346.459,595.677,345.073Zm-7.2,5.4a2.543,2.543,0,0,1-2.194.053l2.279-1.324C588.955,349.709,589.055,350.141,588.477,350.477Zm1.8-3.458c-.334-.49-.379-.907.185-1.232a2.266,2.266,0,0,1,2.051-.068Z" transform="translate(-570.885 -338.204)" fill="#9796f7"/><path d="M595.677,344.718l1.3-.758-1.029-.594-1.3.757c-2.35-1.195-5.242-1.477-7.248-.313-2.527,1.469-.844,3,.437,4.27l-2.54,1.477c-.377-.427-.3-.848.306-1.266l-2.948-1.7c-2.007,1.253-1.541,2.841.469,4.231l-1.319.768,1.03.594,1.3-.756a7.932,7.932,0,0,0,7.337.316c2.495-1.45.739-3-.512-4.283l2.495-1.447c.3.353.234.747-.294,1.132l2.966,1.711C598.019,347.58,597.729,346.1,595.677,344.718Zm-7.2,5.406a2.548,2.548,0,0,1-2.194.052l2.279-1.324C588.955,349.354,589.055,349.787,588.477,350.123Zm1.8-3.459c-.334-.488-.379-.906.185-1.232a2.265,2.265,0,0,1,2.051-.068Z" transform="translate(-570.885 -338.323)" fill="#d9dff6"/></g><g transform="translate(25.564 12.449)"><path d="M610.516,342.385V346.5c0,5.553-8.279,10.056-18.492,10.056s-18.494-4.5-18.494-10.056v-4.111Z" transform="translate(-573.53 -332.329)" fill="#9796f7"/><path d="M599.123,355c-.591.2-1.2.385-1.835.54V345.2h1.835Zm-18.776.042c.591.2,1.2.384,1.835.541V345.239h-1.835Zm23.61-2.254a10.679,10.679,0,0,0,3.224-3.127V342.74h-3.224Z" transform="translate(-571.228 -332.21)" fill="#6782ea" opacity="0.41" style="mix-blend-mode:screen;isolation:isolate"/><path d="M573.53,344.923c0,5.553,8.28,10.055,18.494,10.055s18.492-4.5,18.492-10.055-8.279-10.055-18.492-10.055S573.53,339.371,573.53,344.923Z" transform="translate(-573.53 -334.868)" fill="#d9dff6"/><path d="M576.712,344.2c0,4.174,6.374,7.559,14.237,7.559s14.236-3.386,14.236-7.559-6.373-7.558-14.236-7.558S576.712,340.025,576.712,344.2Z" transform="translate(-572.456 -334.269)" fill="#b4b9f6"/><path d="M590.949,337.689c7.53,0,13.677,3.107,14.187,7.034a4.055,4.055,0,0,0,.05-.523c0-4.174-6.373-7.558-14.236-7.558s-14.237,3.384-14.237,7.558a4.054,4.054,0,0,0,.049.523C577.271,340.8,583.419,337.689,590.949,337.689Z" transform="translate(-572.456 -334.269)" fill="#9796f7"/><path d="M595.677,340.42l1.3-.76-1.029-.594-1.3.757c-2.35-1.193-5.242-1.477-7.248-.312-2.527,1.469-.844,3,.437,4.269l-2.54,1.478c-.377-.427-.3-.848.306-1.265l-2.948-1.7c-2.007,1.253-1.541,2.841.469,4.231l-1.319.768,1.03.594,1.3-.757a7.929,7.929,0,0,0,7.337.317c2.495-1.45.739-3-.512-4.283l2.495-1.449c.3.353.234.748-.294,1.132l2.966,1.712C598.019,343.282,597.729,341.806,595.677,340.42Zm-7.2,5.4a2.544,2.544,0,0,1-2.194.052l2.279-1.323C588.955,345.056,589.055,345.488,588.477,345.824Zm1.8-3.458c-.334-.49-.379-.907.185-1.233a2.27,2.27,0,0,1,2.051-.067Z" transform="translate(-570.885 -333.551)" fill="#9796f7"/><path d="M595.677,340.065l1.3-.759-1.029-.594-1.3.757c-2.35-1.195-5.242-1.478-7.248-.313-2.527,1.469-.844,3,.437,4.27L585.3,344.9c-.377-.427-.3-.848.306-1.266l-2.948-1.7c-2.007,1.253-1.541,2.841.469,4.231l-1.319.768,1.03.594,1.3-.757a7.929,7.929,0,0,0,7.337.317c2.495-1.45.739-3-.512-4.283l2.495-1.447c.3.353.234.746-.294,1.132l2.966,1.711C598.019,342.927,597.729,341.451,595.677,340.065Zm-7.2,5.4a2.543,2.543,0,0,1-2.194.053l2.279-1.324C588.955,344.7,589.055,345.133,588.477,345.469Zm1.8-3.458c-.334-.488-.379-.906.185-1.232a2.265,2.265,0,0,1,2.051-.068Z" transform="translate(-570.885 -333.67)" fill="#d9dff6"/></g><g transform="translate(25.564 6.224)"><path d="M610.516,337.732v4.111c0,5.553-8.279,10.054-18.492,10.054s-18.494-4.5-18.494-10.054v-4.111Z" transform="translate(-573.53 -327.677)" fill="#9796f7"/><path d="M599.123,350.35c-.591.2-1.2.385-1.835.54V340.544h1.835Zm-18.776.04c.591.2,1.2.385,1.835.542V340.586h-1.835Zm23.61-2.253a10.68,10.68,0,0,0,3.224-3.128v-6.923h-3.224Z" transform="translate(-571.228 -327.557)" fill="#6782ea" opacity="0.41" style="mix-blend-mode:screen;isolation:isolate"/><path d="M573.53,340.27c0,5.553,8.28,10.054,18.494,10.054s18.492-4.5,18.492-10.054-8.279-10.055-18.492-10.055S573.53,334.718,573.53,340.27Z" transform="translate(-573.53 -330.215)" fill="#d9dff6"/><path d="M576.712,339.546c0,4.174,6.374,7.558,14.237,7.558s14.236-3.384,14.236-7.558-6.373-7.558-14.236-7.558S576.712,335.372,576.712,339.546Z" transform="translate(-572.456 -329.616)" fill="#b4b9f6"/><path d="M590.949,333.035c7.53,0,13.677,3.106,14.187,7.034a4.049,4.049,0,0,0,.05-.524c0-4.172-6.373-7.557-14.236-7.557s-14.237,3.384-14.237,7.557a4.048,4.048,0,0,0,.049.524C577.271,336.142,583.419,333.035,590.949,333.035Z" transform="translate(-572.456 -329.616)" fill="#9796f7"/><path d="M595.677,335.767l1.3-.76-1.029-.594-1.3.757c-2.35-1.193-5.242-1.477-7.248-.313-2.527,1.47-.844,3,.437,4.27L585.3,340.6c-.377-.427-.3-.847.306-1.266l-2.948-1.7c-2.007,1.254-1.541,2.841.469,4.23l-1.319.769,1.03.594,1.3-.757a7.929,7.929,0,0,0,7.337.317c2.495-1.45.739-3-.512-4.283l2.495-1.449c.3.353.234.748-.294,1.132l2.966,1.712C598.019,338.628,597.729,337.151,595.677,335.767Zm-7.2,5.4a2.544,2.544,0,0,1-2.194.052l2.279-1.323C588.955,340.4,589.055,340.835,588.477,341.171Zm1.8-3.458c-.334-.49-.379-.907.185-1.233a2.269,2.269,0,0,1,2.051-.067Z" transform="translate(-570.885 -328.898)" fill="#9796f7"/><path d="M595.677,335.412l1.3-.76-1.029-.593-1.3.756c-2.35-1.193-5.242-1.477-7.248-.312-2.527,1.469-.844,3,.437,4.27l-2.54,1.477c-.377-.428-.3-.848.306-1.265l-2.948-1.7c-2.007,1.253-1.541,2.841.469,4.231l-1.319.768,1.03.594,1.3-.757a7.929,7.929,0,0,0,7.337.317c2.495-1.45.739-3-.512-4.283l2.495-1.447c.3.353.234.746-.294,1.13l2.966,1.712C598.019,338.274,597.729,336.8,595.677,335.412Zm-7.2,5.4a2.544,2.544,0,0,1-2.194.054l2.279-1.324C588.955,340.048,589.055,340.48,588.477,340.816Zm1.8-3.458c-.334-.49-.379-.907.185-1.232a2.265,2.265,0,0,1,2.051-.068Z" transform="translate(-570.885 -329.018)" fill="#d9dff6"/></g><g transform="translate(25.564)"><path d="M610.516,333.079v4.11c0,5.553-8.279,10.055-18.492,10.055s-18.494-4.5-18.494-10.055v-4.11Z" transform="translate(-573.53 -323.023)" fill="#9796f7"/><path d="M599.123,345.7c-.591.2-1.2.385-1.835.54V335.891h1.835Zm-18.776.04c.591.2,1.2.385,1.835.542V335.932h-1.835Zm23.61-2.253a10.68,10.68,0,0,0,3.224-3.128v-6.922h-3.224Z" transform="translate(-571.228 -322.904)" fill="#6782ea" opacity="0.41" style="mix-blend-mode:screen;isolation:isolate"/><path d="M573.53,335.618c0,5.551,8.28,10.054,18.494,10.054s18.492-4.5,18.492-10.054-8.279-10.056-18.492-10.056S573.53,330.065,573.53,335.618Z" transform="translate(-573.53 -325.562)" fill="#d9dff6"/><path d="M576.712,334.892c0,4.175,6.374,7.559,14.237,7.559s14.236-3.384,14.236-7.559-6.373-7.557-14.236-7.557S576.712,330.719,576.712,334.892Z" transform="translate(-572.456 -324.963)" fill="#b4b9f6"/><path d="M590.949,328.383c7.53,0,13.677,3.106,14.187,7.034a4.049,4.049,0,0,0,.05-.524c0-4.172-6.373-7.557-14.236-7.557s-14.237,3.384-14.237,7.557a4.049,4.049,0,0,0,.049.524C577.271,331.489,583.419,328.383,590.949,328.383Z" transform="translate(-572.456 -324.963)" fill="#9796f7"/><path d="M595.677,331.114l1.3-.76-1.029-.594-1.3.757c-2.35-1.193-5.242-1.477-7.248-.313-2.527,1.47-.844,3,.437,4.27l-2.54,1.477c-.377-.427-.3-.848.306-1.266l-2.948-1.7c-2.007,1.254-1.541,2.841.469,4.23l-1.319.769,1.03.594,1.3-.757a7.932,7.932,0,0,0,7.337.316c2.495-1.449.739-3-.512-4.283l2.495-1.447c.3.353.234.748-.294,1.132l2.966,1.712C598.019,333.975,597.729,332.5,595.677,331.114Zm-7.2,5.4a2.544,2.544,0,0,1-2.194.052l2.279-1.323C588.955,335.749,589.055,336.182,588.477,336.518Zm1.8-3.458c-.334-.49-.379-.907.185-1.233a2.27,2.27,0,0,1,2.051-.067Z" transform="translate(-570.885 -324.245)" fill="#9796f7"/><path d="M595.677,330.759l1.3-.76-1.029-.594-1.3.757c-2.35-1.193-5.242-1.477-7.248-.312-2.527,1.469-.844,3,.437,4.269L585.3,335.6c-.377-.428-.3-.848.306-1.265l-2.948-1.7c-2.007,1.254-1.541,2.841.469,4.23l-1.319.769,1.03.594,1.3-.757a7.929,7.929,0,0,0,7.337.317c2.495-1.45.739-3-.512-4.283l2.495-1.449c.3.353.234.748-.294,1.132l2.966,1.712C598.019,333.621,597.729,332.143,595.677,330.759Zm-7.2,5.4a2.544,2.544,0,0,1-2.194.052l2.279-1.323C588.955,335.4,589.055,335.827,588.477,336.163Zm1.8-3.458c-.334-.49-.379-.907.185-1.233a2.27,2.27,0,0,1,2.051-.067Z" transform="translate(-570.885 -324.365)" fill="#d9dff6"/></g><g transform="translate(45.289 42.895)"><path d="M625.262,365.145v4.109c0,5.553-8.279,10.055-18.492,10.055s-18.494-4.5-18.494-10.055v-4.109Z" transform="translate(-588.276 -355.089)" fill="#9796f7"/><path d="M613.869,377.763c-.591.2-1.2.384-1.835.54V367.957h1.835Zm-18.776.04c.591.2,1.2.385,1.835.542V368h-1.835Zm23.611-2.254a10.7,10.7,0,0,0,3.224-3.126V365.5H618.7Z" transform="translate(-585.974 -354.97)" fill="#6782ea" opacity="0.41" style="mix-blend-mode:screen;isolation:isolate"/><path d="M588.276,367.683c0,5.552,8.28,10.054,18.494,10.054s18.492-4.5,18.492-10.054-8.279-10.055-18.492-10.055S588.276,362.131,588.276,367.683Z" transform="translate(-588.276 -357.628)" fill="#d9dff6"/><path d="M591.458,366.958c0,4.175,6.374,7.559,14.237,7.559s14.236-3.384,14.236-7.559S613.558,359.4,605.7,359.4,591.458,362.785,591.458,366.958Z" transform="translate(-587.202 -357.029)" fill="#b4b9f6"/><path d="M605.7,360.448c7.53,0,13.677,3.106,14.186,7.034a4.006,4.006,0,0,0,.05-.524c0-4.172-6.373-7.557-14.236-7.557s-14.237,3.384-14.237,7.557a4.027,4.027,0,0,0,.05.524C592.017,363.555,598.165,360.448,605.7,360.448Z" transform="translate(-587.202 -357.029)" fill="#9796f7"/><path d="M610.423,363.178l1.3-.758-1.029-.594-1.3.757c-2.35-1.193-5.242-1.477-7.248-.313-2.525,1.47-.844,3,.438,4.27l-2.541,1.477c-.377-.427-.3-.848.306-1.265l-2.948-1.7c-2.007,1.255-1.541,2.841.469,4.231l-1.319.769,1.03.594,1.3-.757a7.932,7.932,0,0,0,7.337.316c2.495-1.449.739-3-.512-4.283l2.495-1.448c.3.353.234.747-.294,1.132l2.966,1.711C612.765,366.041,612.475,364.564,610.423,363.178Zm-7.2,5.406a2.544,2.544,0,0,1-2.194.052l2.279-1.324C603.7,367.815,603.8,368.248,603.223,368.584Zm1.8-3.459c-.334-.488-.379-.906.185-1.232a2.27,2.27,0,0,1,2.051-.068Z" transform="translate(-585.631 -356.311)" fill="#9796f7"/><path d="M610.423,362.825l1.3-.76-1.029-.594-1.3.757c-2.35-1.193-5.242-1.477-7.248-.313-2.525,1.47-.844,3,.438,4.27l-2.541,1.477c-.377-.427-.3-.848.306-1.265l-2.948-1.7c-2.007,1.253-1.541,2.841.469,4.23l-1.319.769,1.03.594,1.3-.757a7.933,7.933,0,0,0,7.337.317c2.495-1.45.739-3-.512-4.285l2.495-1.447c.3.353.234.748-.294,1.132l2.966,1.712C612.765,365.686,612.475,364.209,610.423,362.825Zm-7.2,5.4a2.544,2.544,0,0,1-2.194.052l2.279-1.323C603.7,367.46,603.8,367.893,603.223,368.229Zm1.8-3.458c-.334-.489-.379-.907.185-1.233a2.27,2.27,0,0,1,2.051-.067Z" transform="translate(-585.631 -356.431)" fill="#d9dff6"/></g><g transform="translate(45.289 36.694)"><path d="M625.262,360.51v4.109c0,5.553-8.279,10.056-18.492,10.056s-18.494-4.5-18.494-10.056V360.51Z" transform="translate(-588.276 -350.454)" fill="#9796f7"/><path d="M613.869,373.128c-.591.2-1.2.384-1.835.54V363.323h1.835Zm-18.776.04c.591.2,1.2.385,1.835.54V363.363h-1.835Zm23.611-2.254a10.7,10.7,0,0,0,3.224-3.126v-6.923H618.7Z" transform="translate(-585.974 -350.335)" fill="#6782ea" opacity="0.41" style="mix-blend-mode:screen;isolation:isolate"/><path d="M588.276,363.049c0,5.551,8.28,10.054,18.494,10.054s18.492-4.5,18.492-10.054-8.279-10.055-18.492-10.055S588.276,357.5,588.276,363.049Z" transform="translate(-588.276 -352.993)" fill="#d9dff6"/><path d="M591.458,362.323c0,4.175,6.374,7.559,14.237,7.559s14.236-3.384,14.236-7.559-6.373-7.557-14.236-7.557S591.458,358.15,591.458,362.323Z" transform="translate(-587.202 -352.394)" fill="#b4b9f6"/><path d="M605.7,355.814c7.53,0,13.677,3.106,14.186,7.033a4.005,4.005,0,0,0,.05-.524c0-4.172-6.373-7.557-14.236-7.557s-14.237,3.384-14.237,7.557a4.026,4.026,0,0,0,.05.524C592.017,358.92,598.165,355.814,605.7,355.814Z" transform="translate(-587.202 -352.394)" fill="#9796f7"/><path d="M610.423,358.543l1.3-.758-1.029-.594-1.3.757c-2.35-1.193-5.242-1.477-7.248-.313-2.525,1.47-.844,3,.438,4.27l-2.541,1.477c-.377-.427-.3-.848.306-1.265l-2.948-1.7c-2.007,1.255-1.541,2.841.469,4.231l-1.319.769,1.03.594,1.3-.757a7.932,7.932,0,0,0,7.337.316c2.495-1.45.739-3-.512-4.283l2.495-1.448c.3.353.234.747-.294,1.132l2.966,1.711C612.765,361.406,612.475,359.929,610.423,358.543Zm-7.2,5.406a2.544,2.544,0,0,1-2.194.052l2.279-1.324C603.7,363.18,603.8,363.613,603.223,363.949Zm1.8-3.459c-.334-.488-.379-.906.185-1.232a2.27,2.27,0,0,1,2.051-.068Z" transform="translate(-585.631 -351.676)" fill="#9796f7"/><path d="M610.423,358.188l1.3-.758-1.029-.594-1.3.757c-2.35-1.193-5.242-1.477-7.248-.313-2.525,1.47-.844,3,.438,4.27l-2.541,1.477c-.377-.427-.3-.848.306-1.265l-2.948-1.7c-2.007,1.253-1.541,2.841.469,4.23l-1.319.769,1.03.594,1.3-.757a7.936,7.936,0,0,0,7.337.317c2.495-1.45.739-3-.512-4.285l2.495-1.447c.3.353.234.748-.294,1.132l2.966,1.712C612.765,361.051,612.475,359.574,610.423,358.188Zm-7.2,5.406a2.544,2.544,0,0,1-2.194.052l2.279-1.323C603.7,362.825,603.8,363.258,603.223,363.594Zm1.8-3.458c-.334-.49-.379-.907.185-1.233a2.265,2.265,0,0,1,2.051-.067Z" transform="translate(-585.631 -351.796)" fill="#d9dff6"/></g><g transform="translate(1.546 36.162)"><path d="M592.562,360.112v4.111c0,5.553-8.279,10.054-18.492,10.054s-18.494-4.5-18.494-10.054v-4.111Z" transform="translate(-555.576 -350.056)" fill="#9796f7"/><path d="M581.169,372.73c-.591.2-1.2.385-1.835.54V362.924h1.835Zm-18.776.042c.59.2,1.2.384,1.835.54V362.966h-1.835ZM586,370.517a10.7,10.7,0,0,0,3.224-3.128v-6.923H586Z" transform="translate(-553.274 -349.937)" fill="#6782ea" opacity="0.41" style="mix-blend-mode:screen;isolation:isolate"/><path d="M555.576,362.651c0,5.553,8.279,10.055,18.494,10.055s18.492-4.5,18.492-10.055S584.283,352.6,574.07,352.6,555.576,357.1,555.576,362.651Z" transform="translate(-555.576 -352.595)" fill="#d9dff6"/><path d="M558.758,361.925c0,4.175,6.374,7.559,14.237,7.559s14.236-3.384,14.236-7.559-6.373-7.557-14.236-7.557S558.758,357.752,558.758,361.925Z" transform="translate(-554.502 -351.996)" fill="#b4b9f6"/><path d="M572.995,355.415c7.529,0,13.677,3.106,14.186,7.034a4.028,4.028,0,0,0,.049-.524c0-4.172-6.373-7.557-14.236-7.557s-14.237,3.384-14.237,7.557a4.05,4.05,0,0,0,.049.524C559.317,358.522,565.465,355.415,572.995,355.415Z" transform="translate(-554.502 -351.996)" fill="#9796f7"/><path d="M577.723,358.147l1.3-.76L578,356.793l-1.3.757c-2.35-1.193-5.242-1.477-7.248-.313-2.527,1.47-.844,3,.438,4.27l-2.54,1.477c-.377-.427-.3-.848.306-1.265l-2.948-1.7c-2.007,1.253-1.541,2.841.469,4.231l-1.319.768,1.03.594,1.3-.757a7.929,7.929,0,0,0,7.337.317c2.494-1.45.738-3-.512-4.283l2.494-1.449c.3.353.236.748-.293,1.132l2.966,1.712C580.065,361.009,579.775,359.531,577.723,358.147Zm-7.2,5.4a2.543,2.543,0,0,1-2.194.052l2.278-1.323C571,362.782,571.1,363.215,570.523,363.551Zm1.795-3.458c-.334-.49-.378-.907.183-1.233a2.272,2.272,0,0,1,2.052-.067Z" transform="translate(-552.931 -351.278)" fill="#9796f7"/><path d="M577.723,357.792l1.3-.759-1.029-.6-1.3.757c-2.35-1.193-5.242-1.477-7.248-.312-2.527,1.469-.844,3,.438,4.27l-2.54,1.477c-.377-.428-.3-.848.306-1.265l-2.948-1.7c-2.007,1.253-1.541,2.841.469,4.231l-1.319.768,1.03.594,1.3-.757a7.929,7.929,0,0,0,7.337.317c2.494-1.45.738-3-.512-4.283l2.494-1.447c.3.353.236.747-.293,1.13l2.966,1.712C580.065,360.654,579.775,359.178,577.723,357.792Zm-7.2,5.4a2.54,2.54,0,0,1-2.194.052l2.278-1.323C571,362.428,571.1,362.86,570.523,363.2Zm1.795-3.458c-.334-.49-.378-.907.183-1.232a2.269,2.269,0,0,1,2.052-.068Z" transform="translate(-552.931 -351.398)" fill="#d9dff6"/></g><g transform="translate(1.546 30.014)"><path d="M592.562,355.515v4.111c0,5.553-8.279,10.055-18.492,10.055s-18.494-4.5-18.494-10.055v-4.111Z" transform="translate(-555.576 -345.461)" fill="#9796f7"/><path d="M581.169,368.134c-.591.2-1.2.384-1.835.54V358.328h1.835Zm-18.776.04c.59.2,1.2.385,1.835.54V358.369h-1.835ZM586,365.92a10.709,10.709,0,0,0,3.224-3.126v-6.922H586Z" transform="translate(-553.274 -345.341)" fill="#6782ea" opacity="0.41" style="mix-blend-mode:screen;isolation:isolate"/><path d="M555.576,358.053c0,5.553,8.279,10.055,18.494,10.055s18.492-4.5,18.492-10.055S584.283,348,574.07,348,555.576,352.5,555.576,358.053Z" transform="translate(-555.576 -347.999)" fill="#d9dff6"/><path d="M558.758,357.329c0,4.175,6.374,7.559,14.237,7.559s14.236-3.384,14.236-7.559-6.373-7.557-14.236-7.557S558.758,353.156,558.758,357.329Z" transform="translate(-554.502 -347.4)" fill="#b4b9f6"/><path d="M572.995,350.819c7.529,0,13.677,3.106,14.186,7.034a4.048,4.048,0,0,0,.049-.524c0-4.172-6.373-7.557-14.236-7.557s-14.237,3.384-14.237,7.557a4.069,4.069,0,0,0,.049.524C559.317,353.925,565.465,350.819,572.995,350.819Z" transform="translate(-554.502 -347.4)" fill="#9796f7"/><path d="M577.723,353.549l1.3-.759L578,352.2l-1.3.757c-2.35-1.193-5.242-1.477-7.248-.313-2.527,1.469-.844,3,.438,4.27l-2.54,1.477c-.377-.427-.3-.848.306-1.266l-2.948-1.7c-2.007,1.255-1.541,2.841.469,4.231l-1.319.769,1.03.594,1.3-.757a7.932,7.932,0,0,0,7.337.316c2.494-1.449.738-3-.512-4.283l2.494-1.447c.3.353.236.748-.293,1.132l2.966,1.711C580.065,356.412,579.775,354.935,577.723,353.549Zm-7.2,5.406a2.544,2.544,0,0,1-2.194.052l2.278-1.324C571,358.186,571.1,358.619,570.523,358.955Zm1.795-3.459c-.334-.488-.378-.906.183-1.232a2.268,2.268,0,0,1,2.052-.068Z" transform="translate(-552.931 -346.682)" fill="#9796f7"/><path d="M577.723,353.194l1.3-.759L578,351.842l-1.3.757c-2.35-1.193-5.242-1.477-7.248-.313-2.527,1.47-.844,3,.438,4.27l-2.54,1.477c-.377-.427-.3-.848.306-1.265l-2.948-1.7c-2.007,1.253-1.541,2.841.469,4.23l-1.319.769,1.03.594,1.3-.757a7.936,7.936,0,0,0,7.337.317c2.494-1.45.738-3-.512-4.283l2.494-1.449c.3.353.236.748-.293,1.132l2.966,1.712C580.065,356.057,579.775,354.58,577.723,353.194Zm-7.2,5.406a2.543,2.543,0,0,1-2.194.052l2.278-1.323C571,357.831,571.1,358.264,570.523,358.6Zm1.795-3.458c-.334-.49-.378-.907.183-1.233a2.272,2.272,0,0,1,2.052-.067Z" transform="translate(-552.931 -346.802)" fill="#d9dff6"/></g></g><g transform="translate(441.675 152.073)"><g transform="translate(28.748 68.401)"><g style="isolation:isolate"><path d="M648.117,286.968a2.765,2.765,0,0,1-.37-.4l-.028-.04a1.932,1.932,0,0,1-.242-.462l-.008-.025a1.624,1.624,0,0,1-.086-.494l.392,63.7v.021a1.676,1.676,0,0,0,.013.18,1.694,1.694,0,0,0,.036.178c.009.037.023.076.036.114l.008.025c0,.012.007.026.012.039a1.784,1.784,0,0,0,.08.18,2.041,2.041,0,0,0,.107.186l.041.056.03.039c.024.033.047.068.074.1a2.2,2.2,0,0,0,.2.214c.029.029.067.056.1.086l.091.078c.04.032.075.067.118.1a3.789,3.789,0,0,0,.424.276,4.926,4.926,0,0,0,.669.308c.076.029.158.051.237.078.119.039.234.083.357.116.058.016.119.025.178.04l.153.034c.057.012.114.028.173.039.135.025.271.047.409.063.048.007.1.011.147.016l.076.008c.046,0,.091.011.138.014.112.009.225.015.337.02s.214,0,.321,0h.051c.088,0,.175,0,.262-.007.1,0,.206-.011.308-.02s.182-.017.272-.028h.02l.016,0c.1-.012.209-.028.311-.046s.213-.037.318-.06c.051-.011.1-.026.152-.037l.065-.016c.039-.009.078-.017.117-.028.124-.033.246-.07.365-.11.071-.024.139-.052.209-.079l.109-.042c.035-.015.071-.025.1-.04a4.713,4.713,0,0,0,.562-.285,2.269,2.269,0,0,0,1.308-1.87l-.391-63.7a2.27,2.27,0,0,1-1.308,1.87,4.8,4.8,0,0,1-.666.324l-.111.043a6.208,6.208,0,0,1-.689.217l-.067.016a7.009,7.009,0,0,1-.8.146h-.019a7.942,7.942,0,0,1-.84.055h-.027c-.276,0-.55-.012-.823-.037l-.076-.008a7.117,7.117,0,0,1-.728-.118c-.052-.011-.1-.021-.154-.035-.183-.043-.36-.1-.534-.155-.079-.027-.161-.049-.237-.077a4.938,4.938,0,0,1-.67-.308,3.71,3.71,0,0,1-.541-.376Z" transform="translate(-647.383 -282.882)" fill="#9796f7"/><g transform="translate(0)"><path d="M648.749,288.078c-1.8-1.014-1.822-2.689-.066-3.734a7.116,7.116,0,0,1,6.453-.063c1.79,1.009,1.815,2.683.051,3.732A7.114,7.114,0,0,1,648.749,288.078Z" transform="translate(-647.383 -283.539)" fill="#9391ea"/></g></g></g><path d="M632.024,238.431l7.308-4.2h0c.1-.056.2-.112.3-.166s.209-.1.312-.151c.175-.09.352-.178.531-.258.158-.072.319-.136.479-.2.183-.074.366-.146.554-.213.067-.024.131-.054.2-.076.1-.033.2-.058.3-.088.187-.059.375-.115.564-.166.173-.045.348-.087.523-.127.193-.043.388-.084.585-.12.084-.015.166-.038.251-.052s.187-.021.28-.035q.317-.046.639-.08c.179-.019.36-.035.543-.047.218-.015.438-.024.66-.031.11,0,.215-.015.325-.015.071,0,.144.005.216.005.27,0,.543.012.818.025.164.009.328.015.495.027.31.024.626.062.943.1.112.015.222.02.336.036.019,0,.039.008.059.011.5.075,1.014.173,1.53.288.134.03.27.067.405.1q.6.144,1.2.325c.09.027.178.044.267.072s.19.067.284.1c.234.076.47.158.7.242.218.078.436.157.657.241.238.092.479.19.718.29.222.092.443.186.666.285.242.108.486.222.729.338.225.107.449.215.677.329.245.124.492.255.738.388.151.08.3.152.451.235s.32.179.48.272c.847.487,1.683,1.026,2.511,1.589.217.147.432.3.647.451.739.52,1.468,1.065,2.186,1.643.088.071.181.136.269.209q.963.785,1.9,1.627c.113.1.217.217.329.32.508.467,1,.959,1.5,1.451.377.375.759.738,1.128,1.126.5.528.986,1.084,1.473,1.636.285.321.582.623.862.954.071.084.138.174.21.259.144.174.285.353.429.528q.859,1.051,1.679,2.148c.158.211.318.421.475.635.1.135.2.266.3.4.521.725,1.022,1.467,1.514,2.215.108.165.214.332.321.5.194.3.393.6.585.9s.353.615.536.92c.369.614.732,1.231,1.082,1.857.13.231.274.455.4.687.158.292.294.591.448.884q.464.883.9,1.776c.129.264.273.519.4.784.133.281.243.569.372.851.273.6.536,1.2.789,1.807.119.285.257.565.372.851.1.26.186.523.286.783.256.658.494,1.316.724,1.977.109.312.239.622.342.935.124.376.235.753.352,1.132.051.167.106.334.155.5.238.8.464,1.595.664,2.393.046.183.08.366.125.551.067.28.126.556.189.836q.275,1.232.483,2.457c.041.239.088.479.126.717.017.114.043.227.059.34.095.637.147,1.266.214,1.9.039.362.095.729.125,1.09.087,1.085.136,2.162.135,3.223,0,8.878-3.143,15.123-8.2,18.021l-7.308,4.2Z" transform="translate(-623.821 -232.406)" fill="#9796f7"/><path d="M625.892,255.393c.008-17.644,12.4-24.884,27.626-16.141s27.6,30.205,27.594,47.85-12.4,24.883-27.626,16.139S625.884,273.038,625.892,255.393Zm51.467,30.142c-.276-15.41-11.2-34.354-24.355-42.231s-23.634-1.758-23.358,13.653,11.2,34.352,24.356,42.233,23.633,1.751,23.358-13.654" transform="translate(-625.892 -231.347)" fill="#d9dff6"/><path d="M676.413,284.445c.276,15.405-10.205,21.532-23.358,13.654s-24.08-26.828-24.356-42.233,10.2-21.534,23.358-13.653,24.08,26.821,24.356,42.231" transform="translate(-624.946 -230.256)" fill="#fff"/><path d="M631.462,254.07c.274,15.4,11.2,34.351,24.355,42.232,5.829,3.491,11.131,4.226,15.207,2.627-4.273,3.387-10.712,3.312-17.969-1.035-13.156-7.88-24.08-26.828-24.356-42.231-.154-8.581,3.029-14.277,8.148-16.285C633.379,242.13,631.338,247.163,631.462,254.07Z" transform="translate(-624.946 -230.051)" fill="#9391ea"/></g><g transform="translate(250.346 113.347)"><path d="M496.444,282.948l16.455,9.591a4.185,4.185,0,0,1-.037,7.253l-2.808,1.6a8.67,8.67,0,0,1-8.659-.044l-16.454-9.59a4.187,4.187,0,0,1,.036-7.254l2.809-1.6A8.671,8.671,0,0,1,496.444,282.948Z" transform="translate(-482.864 -177.01)" fill="#6642cc" opacity="0.3" style="mix-blend-mode:multiply;isolation:isolate"/><g transform="translate(3.081)"><g transform="translate(1.842 50.078)"><path d="M488.312,285.13s.677-2.261,4.7-1.521c.666.123,1.364,2.9,1.364,2.9l7.349,2.214s-13.939,5.209-13.816,2.974C488.1,288.366,488.312,285.13,488.312,285.13Z" transform="translate(-486.083 -226.517)" fill="#130159"/><path d="M486.544,240.892l2.227,59.232c1.334,1.813,5.859.288,5.859.288.227-1.747,4.539-56.347,4.539-56.347Z" transform="translate(-486.544 -240.892)" fill="#5601f3"/></g><g transform="translate(8.656 10.508)"><path d="M507.7,215.226c.947.428,1.106-.649,1.233-1.492a4.842,4.842,0,0,1,.341-1.259c.163-.084.4.931.544.642.1-.194,1.964-2.9,3.375-1.307.732.825-1.371,3.475-2.2,3.873-1.592.768-1.89.016-2.908,1.249Z" transform="translate(-486.213 -211.312)" fill="#f4c5a2"/><path d="M498.141,216.571a18.765,18.765,0,0,0,7.212,3.037L514,213.385s1.162-.483,1.58,2.37c0,0-8.858,10.077-10.817,10.322s-4.808-1.169-9.455-3.735C487.436,218,494.07,213.849,498.141,216.571Z" transform="translate(-491.638 -210.622)" fill="#00cdc4"/></g><g transform="translate(9.039 54.703)"><path d="M493.669,287.331s.678-2.261,4.7-1.52c.666.122,1.364,2.9,1.364,2.9l7.349,2.213s-13.939,5.209-13.816,2.975C493.452,290.567,493.669,287.331,493.669,287.331Z" transform="translate(-491.471 -230.399)" fill="#130159"/><path d="M491.924,244.35l2.227,57.425c1.334,1.813,5.859.288,5.859.288.227-1.746,4.539-56.347,4.539-56.347Z" transform="translate(-491.924 -244.35)" fill="#681ef7"/></g><g transform="translate(8.623)"><path d="M497.835,210.687l.877,5.421-5.124-.354,1-4.58Z" transform="translate(-490.946 -201.015)" fill="#fed4bd"/><path d="M500.721,214.112l-7.3-.912-.832,2.949,8.421.39Z" transform="translate(-491.284 -200.166)" fill="#fff"/><path d="M500.027,208.7c.375,2.586-.343,5.411-3.12,5.232a4.7,4.7,0,0,1-4.476-4.131c-.374-2.586,1.022-4.928,3.12-5.232S499.652,206.114,500.027,208.7Z" transform="translate(-491.357 -203.092)" fill="#fed4bd"/><path d="M494.878,214.718s.965.772,2.285-.424a8.262,8.262,0,0,0,.734-2.491c-.023-.666-.959-1.506-.741-2.08.425-1.11,1.458-.906,1.744,1.267.12-1.023,5.581-3.677,2.179-6.148-4.413-3.206-11.138-.384-8.809,3.754C490.3,209.156,493.233,212.907,494.878,214.718Z" transform="translate(-491.613 -203.456)" fill="#3d00bd"/></g><path d="M505.757,218.651c.88,2.907,2.115,27.1,4.017,36.1-3.537,4.529-19.941,5.525-24.607.238a189.513,189.513,0,0,1,6.24-34.419C493.482,213.545,499.81,211.184,505.757,218.651Z" transform="translate(-485.167 -199.876)" fill="#01e4d0"/><g transform="translate(11.545 14.725)"><path d="M514.2,219.734c1.354.269,1.8-1.417,2.182-2.237,1.326-2.831,1.052-.8,1.252-.757.526.122,2.908-1.026,3.211.266.338,1.447-1.544,2.472-2.613,3.043-2.061,1.1-2.042-.087-3.253,1.4Z" transform="translate(-486.906 -213.947)" fill="#f4c5a2"/><path d="M501.237,216.488c6.729,7.19,7.337,8.041,7.337,8.041l13.821-5.74s2.636.337,1.7,3.255c0,0-12.8,10.838-15.963,10.643s-7.281-4.943-11.877-10.113C490.1,215.649,496.931,211.886,501.237,216.488Z" transform="translate(-493.797 -214.464)" fill="#01e4d0"/></g></g></g><g transform="translate(0 162.659)"><path d="M372.144,261.679c-42.211,0-76.427,18.608-76.427,41.554s34.216,41.553,76.427,41.553,76.419-18.607,76.419-41.553S414.347,261.679,372.144,261.679Zm0,66.587c-30.467,0-55.163-11.21-55.163-25.032s24.7-25.034,55.163-25.034S427.3,289.41,427.3,303.233,402.6,328.266,372.144,328.266Z" transform="translate(-295.717 -233.107)" fill="#bbb8f6" opacity="0.5" style="mix-blend-mode:multiply;isolation:isolate"/><path d="M446.619,277.83s-11.309-28.037-74.871-28.037-74.87,41.1-74.87,41.1V305c0,22.48,33.519,40.709,74.874,40.709S446.619,327.481,446.619,305Zm-74.867,51.7c-29.849,0-54.043-10.981-54.043-24.524s24.194-24.525,54.043-24.525S425.787,291.458,425.787,305,401.593,329.525,371.752,329.525Z" transform="translate(-295.325 -237.121)" fill="#8285df"/><path d="M371.752,240.32c-41.355,0-74.874,18.229-74.874,40.709s33.519,40.71,74.874,40.71,74.867-18.23,74.867-40.71S413.1,240.32,371.752,240.32Zm0,65.233c-29.849,0-54.043-10.981-54.043-24.524S341.9,256.5,371.752,256.5s54.035,10.981,54.035,24.524S401.593,305.553,371.752,305.553Z" transform="translate(-295.325 -240.32)" fill="#b3b8f6"/><g transform="translate(75.02 60.614)"><path d="M398.428,290.319c-9.651,6.687-26.3,11.107-45.222,11.107-.472,0-.939-.011-1.407-.016v32.177c.469.005.935.02,1.407.02,28.046,0,52.475-8.393,65.3-20.8V285.632S400.567,290.991,398.428,290.319Z" transform="translate(-351.798 -285.632)" fill="#f6bf03"/></g><g transform="translate(75.02 54.126)"><path d="M398.428,280.782c-9.651,6.687-26.3,11.107-45.222,11.107-.472,0-.939-.011-1.407-.016v16.182c.469.005.935.02,1.407.02,28.046,0,52.475-8.393,65.3-20.805-4.56-1.469-9.11-2.978-13.662-4.473C402.711,282.1,400.567,281.454,398.428,280.782Z" transform="translate(-351.798 -280.782)" fill="#f6dd03"/></g><g transform="translate(1.552 41.755)"><path d="M370.655,310.858c-26.017.926-54.083-13.788-52.889-28.149-6.979,0-20.89-11.175-20.89-11.175v26.14c0,22.281,32.932,40.373,73.778,40.694Z" transform="translate(-296.877 -271.534)" fill="#00cdc4"/><path d="M370.643,295c-28.571-.259-51.694-10.574-52.889-23.466h-20.84c1.014,21.8,33.526,39.332,73.729,39.648Z" transform="translate(-296.865 -271.534)" fill="#01e4d0"/></g></g><path d="M408.554,315.032l2.592,1.477a3.864,3.864,0,0,1,.033,6.7l-15.191,8.856a8.01,8.01,0,0,1-8,.04l-2.592-1.477a3.865,3.865,0,0,1-.033-6.7l15.192-8.855A8.007,8.007,0,0,1,408.554,315.032Z" transform="translate(-266.09 -52.785)" fill="#bbb8f6" opacity="0.5" style="mix-blend-mode:multiply;isolation:isolate"/><g transform="translate(297.864 149.761)"><path d="M544.608,304.72,547.2,306.2a3.865,3.865,0,0,1,.034,6.7l-15.191,8.854a8.006,8.006,0,0,1-8,.04l-2.593-1.477a3.864,3.864,0,0,1-.033-6.7l15.192-8.856A8.007,8.007,0,0,1,544.608,304.72Z" transform="translate(-518.009 -206.028)" fill="#6642cc" opacity="0.3" style="mix-blend-mode:multiply;isolation:isolate"/><path d="M528.41,251.878a33.021,33.021,0,0,1-3.39-1.889c-.376-.381-1.688-1.969-2.552-2.023-.539-.033-.1.424.275,1.027.865,1.391-2.263-1.3-3.01-.219-.478.693-.055,3.288,3.584,3.964,1.533.285,3.1,1.581,3.754,1.8Z" transform="translate(-517.985 -224.84)" fill="#f4c5a2"/><path d="M536.173,247.328a57.905,57.905,0,0,0,3.167,11.772l-15.093-7.463s-3.12-.635-1.766,3.631c0,0,19.244,12.811,25.693,8.632,3.436-2.227-.985-18.717-6.334-21.4C538.991,241.592,535.023,240.9,536.173,247.328Z" transform="translate(-517.118 -226.881)" fill="#f6dd03"/><path d="M529.578,238.523v5.586l4.432-.535-1.672-5.686Z" transform="translate(-514.607 -228.243)" fill="#fed4bd"/><path d="M529.849,240.72l4.3-.613,1.028,2.406-6.273.939Z" transform="translate(-514.835 -227.493)" fill="#fffaff"/><path d="M540.4,307.012s-1.752-.732-5.327.345c-2.39.721-7.863,2.706-7.863,2.706s13.194,3.605,13.207,1.562C540.436,308.578,540.4,307.012,540.4,307.012Z" transform="translate(-515.407 -204.981)" fill="#130159"/><path d="M534.74,309.878a33.512,33.512,0,0,0-5.327.345c-1.58.19-7.863,2.7-7.863,2.7s13.194,3.607,13.207,1.564C534.778,311.444,534.74,309.878,534.74,309.878Z" transform="translate(-517.318 -203.935)" fill="#130159"/><path d="M542.759,266.032l-3.055,55.3s-2.892,1.358-6.992-.464l-.4-53.825Z" transform="translate(-513.683 -218.738)" fill="#5601f3"/><path d="M538.33,268.117l-4.31,57.838c-6.034.684-6.377-1.162-6.377-1.162.343-3.3-1.279-59.179-1.279-59.179Z" transform="translate(-515.692 -218.88)" fill="#681ef7"/><path d="M527.321,236.806c.255,2.594,1.626,5.16,4.274,4.321a4.69,4.69,0,0,0,3.347-5.071c-.257-2.6-2.17-4.529-4.274-4.321S527.065,234.212,527.321,236.806Z" transform="translate(-515.378 -230.326)" fill="#fed4bd"/><path d="M534.53,241.344s-.749.979-2.314.135a8.262,8.262,0,0,1-1.308-2.235c-.138-.653.57-1.69.22-2.192-.677-.974-1.629-.528-1.386,1.644-.361-.963-6.287-2.226-3.584-5.434,3.508-4.162,10.7-3.038,9.432,1.528C537.636,234.858,535.691,239.194,534.53,241.344Z" transform="translate(-515.999 -230.678)" fill="#3d00bd"/><path d="M525.572,245.418s1.16,22.059,1.16,34.023c4.419,3.986,18.946.573,19.918-1.756s-.461-4.362-.843-7.106c-1.217-8.771-.061-20.313-2.414-24.7C540.213,239.948,532.718,239.513,525.572,245.418Z" transform="translate(-515.959 -227.123)" fill="#f6bf03"/><g transform="translate(0 52.536)"><path d="M533.08,278.612l-14.437-8.661v13.758l14.167,8.263Z" transform="translate(-518.299 -269.951)" fill="#3d00bd"/><path d="M519.1,273.966s-.718-.459-.718-.368v4.546l.718.3Z" transform="translate(-518.386 -268.724)" fill="#7676e5"/></g><path d="M522.5,274.45c-1.21,1.578-2.127,6.4.8,6.951.858.162,2.5-3.165,2.661-5.776" transform="translate(-517.386 -215.896)" fill="#f4c5a2"/><path d="M524.995,248.416c1.225-6.41,5.925-6.492,6.632,4.109a69.563,69.563,0,0,1-.544,15c-.574,5-4.558,19.591-4.583,19.612-.538.455-4.677-1.485-4.795-3.073,2.028-6.6,2.577-8.583,3.209-17.214C525.452,259.529,524.057,253.317,524.995,248.416Z" transform="translate(-517.265 -226.178)" fill="#f6dd03"/></g><g transform="translate(88.063 179.049)"><path d="M363.893,255.739c-.405,2.472-1.26,6.455-1.665,8.926a9.6,9.6,0,0,0-.185,2.639,3.225,3.225,0,0,0,1.205,2.277,4.829,4.829,0,0,0,3.324.464l5.119-.516a9.414,9.414,0,0,0,2.59-.511,3.171,3.171,0,0,0,1.865-1.77,4.746,4.746,0,0,0-.411-3.186q-1.019-2.709-2.041-5.418a24.177,24.177,0,0,0-1.039-2.478" transform="translate(-361.393 -251.503)" fill="#3d00bd"/><path d="M387.569,317.744l-.238,5.407,10.624,4.61-5.159-8.029-1.374-3.151Z" transform="translate(-352.842 -230.957)" fill="#130159"/><path d="M393.54,315.122l-.238,5.407,11.573,1.334-6.107-4.753-1.374-3.151Z" transform="translate(-350.826 -231.842)" fill="#130159"/><path d="M368.247,282.715c-1.847,7.737,2.3,9.46,7.048,11.174,5.085,1.837,15.254,3.347,15.254,3.347l10.922,29.694c1.884,1.347,3.878.874,5.949-.865l-9.245-33.871-18.266-10.2Z" transform="translate(-359.438 -242.638)" fill="#5601f3"/><path d="M364.588,285.515c-1.847,7.737,2.3,9.462,7.048,11.175,5.085,1.837,15.254,3.347,15.254,3.347l7.523,29.111c1.577,1.435,3.723,1.221,6.214,0l-7.234-33.727-16.472-10.608Z" transform="translate(-360.674 -241.685)" fill="#681ef7"/><path d="M383.231,289.254c-.313-2.072-4.453-1.566-4.056-10.612.255-5.84-.7-13.373-3.974-15.112-2.756-1.463-8.35,1.108-9.838,2.055-3.165,2.017-1.564,3.211-2.241,6.9s-.448,20.116-.448,23.868c0,1.431,12.889,4.333,19.791-4.631" transform="translate(-361.181 -249.021)" fill="#f70083"/><g transform="translate(11.389 36.409)"><path d="M379.864,296.365l-9.71-5.648a.185.185,0,0,1,.005-.322l17.793-10.34a.192.192,0,0,1,.19,0l9.694,5.641a.189.189,0,0,1,0,.326l-17.792,10.339A.172.172,0,0,1,379.864,296.365Z" transform="translate(-370.063 -279.709)" fill="#827fde"/><path d="M397.754,285.816l-17.7,10.284a.234.234,0,0,1-.237,0l-9.6-5.586a.235.235,0,0,1,0-.407l17.7-10.286a.235.235,0,0,1,.237,0l9.6,5.586A.236.236,0,0,1,397.754,285.816Z" transform="translate(-370.05 -279.79)" fill="#dfe3ff"/></g><path d="M382.556,281.079c1.612.352,4.582,2.346,4.279,2.922s-1.869,1.989-5.545-1.461S382.556,281.079,382.556,281.079Z" transform="translate(-355.341 -243.138)" fill="#fed4bd"/><path d="M377.1,283.621l5.839,2.7c.142-1.385,1.572-2.051,3.117-2.059l-9.708-6.489-1.344-4.848s-.047,3.362,0,4.67C375.1,280.15,375.744,282.4,377.1,283.621Z" transform="translate(-357.011 -245.699)" fill="#f1539a"/><path d="M366.849,266.179c-.084,1.282,3.645.511,3.153-.5l-.742-4.076a3,3,0,0,0-.447-1.284c-1.033-1.38-1.818-.322-1.878.789C366.845,262.794,366.878,264.494,366.849,266.179Z" transform="translate(-359.759 -250.177)" fill="#fed4bd"/><path d="M372.213,260.176a6.3,6.3,0,0,0,.04-4.285,3.836,3.836,0,0,0-3.3-2.487,3.987,3.987,0,0,0-3.548,2.568,7.7,7.7,0,0,0-.19,4.578,6.049,6.049,0,0,0,1.742,3.4C369.862,266.433,371.46,262.444,372.213,260.176Z" transform="translate(-360.395 -252.292)" fill="#fed4bd"/><path d="M369.308,258.656a1.152,1.152,0,0,0,2.216.431,1.166,1.166,0,0,0,1.377.793,1.734,1.734,0,0,0,1.2-1.186,3.52,3.52,0,0,0,.033-1.746,7.4,7.4,0,0,0-.515-1.644,5.5,5.5,0,0,0-.991-1.541c-1.021-1.086-4.043-1.779-5.518-.5-3.018-.385-3.72,2.443-3.758,4.9-.207,1.363.781,2.392,1.209,3.7a1.31,1.31,0,0,0,1.595.882c.642-.094-1.076-1.438-.718-3.142.186-.885,1.066,1.085,1.369.978-.019.007.237-1.93.3-2.039C367.7,258.993,368.7,259.706,369.308,258.656Z" transform="translate(-360.95 -252.572)" fill="#3d00bd"/><path d="M374.192,285.7c1.613.352,4.582,2.345,4.281,2.92s-1.869,1.989-5.546-1.461S374.192,285.7,374.192,285.7Z" transform="translate(-358.166 -241.578)" fill="#fed4bd"/><path d="M365.081,265.412c-4.592.777-3.935,17.933-2.325,21.365s13.509,7.831,13.509,7.831c.451-1.566,1.243-2.392,2.332-2.57l-11.332-8.287s-.023-7.523.057-10.219C367.378,271.691,368.976,264.753,365.081,265.412Z" transform="translate(-361.549 -248.251)" fill="#f1539a"/><g transform="translate(21.013 31.29)"><path d="M377.269,297.062c.672-2.261,2.792-9.4,3.169-10.67a.512.512,0,0,1,.237-.3L398.038,276a.287.287,0,0,1,.419.329l-3.166,10.663a.517.517,0,0,1-.238.3l-17.364,10.09A.285.285,0,0,1,377.269,297.062Z" transform="translate(-377.257 -275.964)" fill="#8285df"/><path d="M377.609,297.215c.67-2.262,2.79-9.4,3.168-10.669a.51.51,0,0,1,.237-.3l17.365-10.09a.285.285,0,0,1,.417.329l-3.166,10.662a.52.52,0,0,1-.238.3l-17.363,10.09A.285.285,0,0,1,377.609,297.215Z" transform="translate(-377.142 -275.912)" fill="#d9dff6"/></g></g><g transform="translate(103.381 257.305)"><path d="M459.207,312.772a6.463,6.463,0,0,1,5.867,0L578.611,378.75c1.613.938,1.6,2.459-.024,3.4L493.609,430.59a6.466,6.466,0,0,1-5.867,0L374.2,364.612c-1.612-.936-1.6-2.459.024-3.4Z" transform="translate(-373 -310.737)" fill="#bbb8f6" opacity="0.5" style="mix-blend-mode:multiply;isolation:isolate"/><g transform="translate(1.739)"><path d="M459.057,311.766a6.354,6.354,0,0,1,5.768,0l111.63,64.872c1.585.922,1.577,2.417-.024,3.342L492.88,427.6a6.357,6.357,0,0,1-5.769,0L375.483,362.735c-1.585-.922-1.577-2.417.024-3.341Z" transform="translate(-374.3 -311.072)" fill="#b4b9f6"/><path d="M458.432,314.84a5.909,5.909,0,0,1,5.357,0l103.67,60.247c1.473.855,1.465,2.245-.023,3.1L489.844,422.42a5.909,5.909,0,0,1-5.357,0L380.817,362.175c-1.473-.855-1.465-2.245.022-3.1Z" transform="translate(-372.47 -310.017)" fill="#fff"/><path d="M442.52,314.433a4.547,4.547,0,0,1,4.127,0l4.338,2.655a1.263,1.263,0,0,1-.017,2.39l-59.783,34.079a4.543,4.543,0,0,1-4.127,0L382.72,350.9a1.263,1.263,0,0,1,.017-2.391Z" transform="translate(-371.742 -310.105)" fill="#9796f7"/><g transform="translate(28.994 13.553)"><path d="M472.822,407.916a1.271,1.271,0,0,1-1.1-.625,1.241,1.241,0,0,1,.464-1.708l67.234-38.25a1.279,1.279,0,0,1,1.732.459,1.242,1.242,0,0,1-.464,1.707l-67.236,38.25A1.277,1.277,0,0,1,472.822,407.916Zm-9.447-5.745a1.271,1.271,0,0,1-1.1-.625,1.242,1.242,0,0,1,.463-1.708l67.236-38.249a1.276,1.276,0,0,1,1.731.457,1.242,1.242,0,0,1-.463,1.708L464.008,402A1.281,1.281,0,0,1,463.375,402.171Zm-9.448-5.746a1.268,1.268,0,0,1-1.1-.625,1.242,1.242,0,0,1,.463-1.708l67.237-38.25a1.278,1.278,0,0,1,1.731.457,1.241,1.241,0,0,1-.464,1.708l-67.236,38.25A1.276,1.276,0,0,1,453.927,396.426Zm-9.447-5.744a1.272,1.272,0,0,1-1.1-.626,1.242,1.242,0,0,1,.464-1.707L511.08,350.1a1.278,1.278,0,0,1,1.731.458,1.241,1.241,0,0,1-.464,1.708l-67.234,38.25A1.279,1.279,0,0,1,444.48,390.682Zm-9.448-5.745a1.274,1.274,0,0,1-1.1-.625,1.243,1.243,0,0,1,.464-1.708l67.237-38.252a1.277,1.277,0,0,1,1.731.458,1.241,1.241,0,0,1-.464,1.708l-67.235,38.252A1.277,1.277,0,0,1,435.032,384.936Zm-9.447-5.745a1.274,1.274,0,0,1-1.1-.625,1.242,1.242,0,0,1,.464-1.708l67.235-38.251a1.278,1.278,0,0,1,1.731.459,1.239,1.239,0,0,1-.464,1.707l-67.235,38.252A1.269,1.269,0,0,1,425.585,379.191Zm-9.447-5.747a1.273,1.273,0,0,1-1.1-.625,1.242,1.242,0,0,1,.464-1.708l67.235-38.25a1.277,1.277,0,0,1,1.731.459,1.241,1.241,0,0,1-.464,1.708L416.77,373.277A1.268,1.268,0,0,1,416.139,373.444ZM406.69,367.7a1.273,1.273,0,0,1-1.1-.625,1.242,1.242,0,0,1,.464-1.708l67.237-38.249a1.277,1.277,0,0,1,1.731.457,1.243,1.243,0,0,1-.464,1.708l-67.237,38.249A1.277,1.277,0,0,1,406.69,367.7Zm-9.447-5.745a1.273,1.273,0,0,1-1.1-.625,1.243,1.243,0,0,1,.464-1.708l67.236-38.249a1.278,1.278,0,0,1,1.731.458,1.242,1.242,0,0,1-.464,1.708l-67.235,38.249A1.275,1.275,0,0,1,397.243,361.953Z" transform="translate(-395.974 -321.204)" fill="#dfe3ff"/></g></g></g><g transform="translate(253.936 338.608)"><path d="M531.631,446.205l-44.46-25.669a3.248,3.248,0,0,1,0-5.625l65.289-37.694a11.78,11.78,0,0,1,11.78,0l40.223,23.224a5.706,5.706,0,0,1,0,9.884l-62.144,35.88A10.69,10.69,0,0,1,531.631,446.205Z" transform="translate(-485.548 -370.571)" fill="#bbb8f6" opacity="0.5" style="mix-blend-mode:multiply;isolation:isolate"/><path d="M605.086,399.517l-2.725.4-44.832-25.884-66.846,38.594v-.744l-3.787-.123v3.815a4.55,4.55,0,0,0,2.269,3.936l42.2,24.425a10.966,10.966,0,0,0,10.954.016L602.6,409.255a4.965,4.965,0,0,0,2.488-4.3Z" transform="translate(-485.092 -371.115)" fill="#9796f7"/><path d="M531.737,440.234,488.393,415.21a2.993,2.993,0,0,1,0-5.185L551.9,373.359a11.253,11.253,0,0,1,11.254,0L602.4,396.015a5.374,5.374,0,0,1,0,9.309l-60.466,34.91A10.194,10.194,0,0,1,531.737,440.234Z" transform="translate(-485.092 -371.851)" fill="#b4b9f6"/><g transform="translate(6.284 4.271)"><path d="M581.574,396.659l-34.8-20.091a11.373,11.373,0,0,0-11.374,0h0a3.777,3.777,0,0,0,0,6.543L570.2,403.2a11.374,11.374,0,0,0,11.374,0h0A3.777,3.777,0,0,0,581.574,396.659Z" transform="translate(-475.634 -375.044)" fill="#d9dff6"/><path d="M525.786,393.225l-7.438-4.294a1.17,1.17,0,0,1,0-2.026l7.438-4.293a1.173,1.173,0,0,1,1.17,0l7.436,4.294a1.169,1.169,0,0,1,0,2.027l-7.436,4.293A1.166,1.166,0,0,1,525.786,393.225Z" transform="translate(-480.952 -372.541)" fill="#9796f7"/><path d="M534.866,398.468l-7.436-4.294a1.17,1.17,0,0,1,0-2.027l7.436-4.294a1.172,1.172,0,0,1,1.17,0l7.438,4.294a1.17,1.17,0,0,1,0,2.027l-7.438,4.294A1.173,1.173,0,0,1,534.866,398.468Z" transform="translate(-477.885 -370.771)" fill="#9796f7"/><path d="M543.947,403.71l-7.438-4.294a1.169,1.169,0,0,1,0-2.025l7.438-4.294a1.164,1.164,0,0,1,1.169,0l7.437,4.294a1.169,1.169,0,0,1,0,2.025l-7.437,4.294A1.163,1.163,0,0,1,543.947,403.71Z" transform="translate(-474.819 -369.001)" fill="#9796f7"/><path d="M553.027,408.953l-7.438-4.294a1.17,1.17,0,0,1,0-2.027l7.438-4.294a1.173,1.173,0,0,1,1.171,0l7.436,4.294a1.17,1.17,0,0,1,0,2.027l-7.436,4.294A1.173,1.173,0,0,1,553.027,408.953Z" transform="translate(-471.752 -367.23)" fill="#01e4d0"/><path d="M516.613,398.521l-7.438-4.293a1.17,1.17,0,0,1,0-2.026l7.438-4.294a1.172,1.172,0,0,1,1.17,0l7.436,4.294a1.17,1.17,0,0,1,0,2.026l-7.436,4.293A1.166,1.166,0,0,1,516.613,398.521Z" transform="translate(-484.049 -370.752)" fill="#d9dff6"/><path d="M525.693,403.764l-7.438-4.294a1.17,1.17,0,0,1,0-2.027l7.438-4.294a1.173,1.173,0,0,1,1.17,0l7.436,4.294a1.169,1.169,0,0,1,0,2.027l-7.436,4.294A1.172,1.172,0,0,1,525.693,403.764Z" transform="translate(-480.983 -368.982)" fill="#d9dff6"/><path d="M534.773,409.006l-7.436-4.294a1.169,1.169,0,0,1,0-2.025l7.436-4.294a1.172,1.172,0,0,1,1.17,0l7.438,4.294a1.169,1.169,0,0,1,0,2.025l-7.438,4.294A1.165,1.165,0,0,1,534.773,409.006Z" transform="translate(-477.916 -367.212)" fill="#d9dff6"/><path d="M543.854,414.249l-7.438-4.294a1.17,1.17,0,0,1,0-2.027l7.438-4.294a1.17,1.17,0,0,1,1.169,0l7.438,4.294a1.17,1.17,0,0,1,0,2.027l-7.437,4.294A1.17,1.17,0,0,1,543.854,414.249Z" transform="translate(-474.85 -365.442)" fill="#d9dff6"/><path d="M507.44,403.818,500,399.524a1.17,1.17,0,0,1,0-2.027l7.438-4.294a1.17,1.17,0,0,1,1.169,0l7.438,4.294a1.17,1.17,0,0,1,0,2.027l-7.438,4.294A1.17,1.17,0,0,1,507.44,403.818Z" transform="translate(-487.147 -368.964)" fill="#d9dff6"/><path d="M516.52,409.06l-7.437-4.294a1.17,1.17,0,0,1,0-2.027l7.437-4.293a1.166,1.166,0,0,1,1.17,0l7.436,4.293a1.17,1.17,0,0,1,0,2.027l-7.436,4.294A1.173,1.173,0,0,1,516.52,409.06Z" transform="translate(-484.081 -367.194)" fill="#d9dff6"/><path d="M525.6,414.3l-7.438-4.294a1.17,1.17,0,0,1,0-2.026l7.438-4.294a1.173,1.173,0,0,1,1.171,0l7.438,4.294a1.17,1.17,0,0,1,0,2.026l-7.438,4.294A1.173,1.173,0,0,1,525.6,414.3Z" transform="translate(-481.014 -365.423)" fill="#d9dff6"/><path d="M524.627,426.077l-6.37-3.677a1.319,1.319,0,0,1,0-2.285L536.9,409.351a2.859,2.859,0,0,1,2.856,0l6.372,3.679a1.32,1.32,0,0,1,0,2.285l-18.642,10.762A2.851,2.851,0,0,1,524.627,426.077Z" transform="translate(-481.008 -363.587)" fill="#f6bf03"/><path d="M498.266,409.114l-7.436-4.294a1.17,1.17,0,0,1,0-2.027l7.436-4.294a1.172,1.172,0,0,1,1.171,0l7.437,4.294a1.17,1.17,0,0,1,0,2.027l-7.437,4.294A1.173,1.173,0,0,1,498.266,409.114Z" transform="translate(-490.245 -367.176)" fill="#d9dff6"/><path d="M507.347,414.356l-7.438-4.294a1.17,1.17,0,0,1,0-2.027l7.438-4.293a1.164,1.164,0,0,1,1.169,0l7.438,4.294a1.169,1.169,0,0,1,0,2.025l-7.438,4.294A1.17,1.17,0,0,1,507.347,414.356Z" transform="translate(-487.179 -365.405)" fill="#d9dff6"/><path d="M516.427,419.6l-7.437-4.294a1.17,1.17,0,0,1,0-2.027l7.437-4.294a1.173,1.173,0,0,1,1.171,0l7.436,4.294a1.17,1.17,0,0,1,0,2.027L517.6,419.6A1.173,1.173,0,0,1,516.427,419.6Z" transform="translate(-484.112 -363.635)" fill="#d9dff6"/></g></g><g transform="translate(150.824 151.211)"><g transform="translate(0 16.389)"><path d="M410.112,277.612c0,5.111,7.8,9.254,17.43,9.254s17.429-4.143,17.429-9.254-7.8-9.253-17.429-9.253S410.112,272.5,410.112,277.612Z" transform="translate(-407.91 -235.792)" fill="#bbb8f6" opacity="0.5" style="mix-blend-mode:multiply;isolation:isolate"/><path d="M408.466,255.976l3.82,23.272c.352,5.432,7.341,9.66,15.626,9.66s15.272-4.227,15.625-9.66l3.82-23.272Z" transform="translate(-408.466 -239.974)" fill="#b3b8f6"/><path d="M408.466,252.715v6.014c0,6.428,8.706,11.639,19.446,11.639s19.445-5.212,19.445-11.639v-6.014Z" transform="translate(-408.466 -241.075)" fill="#9796f7"/><ellipse cx="19.445" cy="11.641" rx="19.445" ry="11.641" transform="translate(0.001)" fill="#d9dff6"/><g transform="translate(1.467 1.979)"><ellipse cx="17.978" cy="9.662" rx="17.978" ry="9.662" fill="#fff"/><ellipse cx="17.978" cy="9.662" rx="17.978" ry="9.662" fill="#b3b8f6"/></g><path d="M427.234,250.419c-8.058,0-14.253,2.946-16.762,6.366,2.508,3.42,8.7,6.366,16.762,6.366s14.254-2.946,16.763-6.366C441.488,253.365,435.293,250.419,427.234,250.419Z" transform="translate(-407.789 -241.85)" fill="#8285df"/></g><path d="M417.488,241.292a16.776,16.776,0,0,1,1.455-5.91,5.694,5.694,0,0,1,10.263-.733,16.146,16.146,0,0,1,2.337,6.12,78.36,78.36,0,0,1,1.791,17c-.009,2.065-.135,4.246-1.261,5.978a7.912,7.912,0,0,1-6.648,3.165c-1.83.011-6-.3-7.361-1.707-1.33-1.368-.928-5.153-1.029-6.959A102.877,102.877,0,0,1,417.488,241.292Z" transform="translate(-405.627 -231.762)" fill="#603eff"/><path d="M413.574,246.428a12.824,12.824,0,0,1-.922-9.126c.254-.922.844-1.98,1.8-1.945.821.03,1.376.914,1.433,1.735a13.573,13.573,0,0,1-.32,2.44,5.523,5.523,0,0,0,2.682,5.3,22.757,22.757,0,0,1,2.871,1.446,3.723,3.723,0,0,1,1.371,3.388C421.586,256.053,414.826,248.893,413.574,246.428Z" transform="translate(-407.204 -230.548)" fill="#603eff"/><path d="M433.268,248.255a11.618,11.618,0,0,0,3.576-6.874,3.077,3.077,0,0,0-.658-2.77,2.307,2.307,0,0,0-3,.294,5.162,5.162,0,0,0-1.283,3,17.085,17.085,0,0,1-.586,3.26,3.265,3.265,0,0,1-2.258,2.225c-1.206.229-2.612-.5-3.605.23-1.953,1.426-.091,3.56,1.587,3.6C429.183,251.273,431.769,249.647,433.268,248.255Z" transform="translate(-403.012 -229.596)" fill="#603eff"/></g><g transform="translate(94.315 324.627)"><path d="M368.657,364.624h0a4.811,4.811,0,0,1,4.8.023l74.4,43.234a4.812,4.812,0,0,1-.04,8.344h0a4.812,4.812,0,0,1-4.8-.024l-74.4-43.233A4.812,4.812,0,0,1,368.657,364.624Z" transform="translate(-366.222 -360.523)" fill="#bbb8f6" opacity="0.5" style="mix-blend-mode:multiply;isolation:isolate"/><g transform="translate(1.576)"><path d="M438.448,400.169a3.106,3.106,0,0,1,.641-.139l.057-.005a2.265,2.265,0,0,1,.629.032l.031.007a1.925,1.925,0,0,1,.563.213l-66.314-38.614-.021-.012c-.064-.035-.13-.067-.2-.095a2.1,2.1,0,0,0-.206-.074c-.046-.013-.094-.021-.141-.032l-.031-.007-.048-.011a2.261,2.261,0,0,0-.237-.028,2.4,2.4,0,0,0-.258,0c-.028,0-.056.007-.084.009l-.058.005c-.049.005-.1.007-.148.015a3.01,3.01,0,0,0-.344.073c-.048.013-.1.035-.149.051L372,361.6c-.059.021-.115.036-.175.06a4.785,4.785,0,0,0-.545.272,5.969,5.969,0,0,0-.729.505c-.078.061-.15.132-.226.2-.114.1-.23.19-.34.3-.051.051-.1.107-.15.159l-.128.138c-.048.052-.1.1-.146.155-.108.124-.214.254-.317.385-.036.047-.07.1-.106.144l-.055.074c-.033.046-.067.088-.1.135-.078.11-.154.223-.226.337s-.136.219-.2.33l-.016.028-.015.027c-.052.091-.1.182-.153.274q-.088.165-.168.333c-.048.1-.093.2-.137.3l-.009.021-.009.019c-.051.116-.1.233-.143.35s-.091.245-.133.368c-.02.059-.036.119-.055.179l-.024.079c-.013.047-.029.092-.041.138-.042.149-.078.3-.11.445-.019.09-.031.178-.046.266-.008.047-.017.092-.024.139s-.017.088-.023.132a5.859,5.859,0,0,0-.049.757,2.733,2.733,0,0,0,1.14,2.5l66.314,38.613a2.73,2.73,0,0,1-1.138-2.5,5.788,5.788,0,0,1,.072-.888c.007-.047.016-.094.024-.14a7.3,7.3,0,0,1,.2-.848l.024-.079a8.466,8.466,0,0,1,.338-.918l.01-.02a9.65,9.65,0,0,1,.457-.906l.016-.028a9.519,9.519,0,0,1,.543-.829c.017-.025.036-.051.055-.075a8.529,8.529,0,0,1,.567-.683c.043-.047.086-.092.13-.138.157-.165.322-.313.49-.459.075-.065.148-.136.225-.2a6.1,6.1,0,0,1,.729-.506,4.381,4.381,0,0,1,.721-.332Z" transform="translate(-367.4 -361.399)" fill="#b4b9f6"/><path d="M367.449,367.893c.005-.044.016-.088.023-.132s.016-.092.024-.139c.015-.088.027-.177.046-.266.032-.148.068-.3.11-.445.012-.045.028-.091.041-.138l.024-.079c.019-.06.035-.12.055-.181.042-.122.086-.245.133-.368s.092-.233.143-.349l.009-.019.009-.021c.044-.1.088-.2.137-.3s.11-.223.168-.333c.049-.092.1-.183.153-.274l.015-.027.016-.028c.066-.111.133-.222.2-.33s.149-.227.226-.337c.032-.047.066-.09.1-.135l.055-.074c.036-.048.07-.1.106-.144.1-.131.209-.261.317-.385.047-.053.1-.1.146-.155l.128-.138c.051-.052.1-.108.15-.159.11-.108.226-.2.34-.3.076-.067.149-.138.226-.2a5.969,5.969,0,0,1,.729-.505,4.785,4.785,0,0,1,.545-.272c.06-.024.116-.039.175-.06l.136-.047c.049-.016.1-.037.149-.051a3.01,3.01,0,0,1,.344-.073c.049-.008.1-.009.148-.015l.058-.005c.028,0,.056-.008.084-.009a2.4,2.4,0,0,1,.258,0,2.261,2.261,0,0,1,.237.028l.048.011.031.007c.047.011.095.019.141.032a2.1,2.1,0,0,1,.206.074c.067.028.132.06.2.095l.021.012,3.532,2.057h-.013c-.031,0-.062.007-.091.008l-.061.007c-.054.005-.106.008-.161.016a3.209,3.209,0,0,0-.368.079c-.052.013-.106.037-.159.055s-.1.032-.146.05-.123.039-.187.065a5.038,5.038,0,0,0-.585.29,6.534,6.534,0,0,0-.781.542c-.083.067-.16.143-.242.214-.122.106-.247.2-.364.32-.056.055-.107.115-.162.171s-.091.1-.136.147-.107.108-.158.167c-.116.133-.229.272-.339.412-.039.051-.076.1-.114.154l-.059.08c-.036.048-.072.1-.107.145-.083.119-.163.239-.242.361s-.146.235-.217.355l-.016.031-.016.028c-.056.1-.111.2-.165.294-.063.118-.122.237-.181.356s-.1.214-.146.321l-.011.023-.009.02c-.053.124-.106.25-.154.375s-.1.264-.14.395c-.021.064-.04.13-.059.194l-.027.084c-.015.049-.031.1-.044.147-.045.161-.084.32-.118.479-.02.095-.032.189-.049.284-.008.051-.018.1-.025.15s-.019.1-.024.142a6.259,6.259,0,0,0-.054.812,4,4,0,0,0,.331,1.671l-3.449-2.008a2.733,2.733,0,0,1-1.14-2.5A5.859,5.859,0,0,1,367.449,367.893Z" transform="translate(-367.4 -361.399)" fill="#9796f7"/><g transform="translate(66.315 38.614)"><path d="M420.851,390.8a2.765,2.765,0,0,1,2.761-.281c.708.4,9.492,13.08,9.492,13.08s-14.273-3.17-14.979-3.575a2.72,2.72,0,0,1-1.15-2.509A8.562,8.562,0,0,1,420.851,390.8Z" transform="translate(-416.974 -390.265)" fill="#fff"/></g><path d="M426.943,396.4c1.934,2.741,3.594,5.137,3.594,5.137s-2.588-.575-5.612-1.266C423.716,398.484,425.928,395.986,426.943,396.4Z" transform="translate(-348.093 -349.594)" fill="#9796f7"/></g></g></g></g></g></svg>