<?xml version="1.0" encoding="utf-8"?>
<svg xmlns="http://www.w3.org/2000/svg" xmlns:xlink="http://www.w3.org/1999/xlink" width="224" height="224" viewBox="0 0 224 224"><defs><filter id="a" x="0" y="0" width="224" height="224" filterUnits="userSpaceOnUse"><feOffset dy="20" input="SourceAlpha"/><feGaussianBlur stdDeviation="25" result="b"/><feFlood flood-opacity="0.161"/><feComposite operator="in" in2="b"/><feComposite in="SourceGraphic"/></filter></defs><g transform="translate(-107 -4597.759)"><g transform="matrix(1, 0, 0, 1, 107, 4597.76)" filter="url(#a)"><rect width="74" height="74" rx="37" transform="translate(75 55)" fill="#14c293"/></g><path d="M-12.954-70.533a3.8,3.8,0,0,1-3-1.343,6.127,6.127,0,0,1-1.167-4.1,11.216,11.216,0,0,1,1.874-6.4,8.422,8.422,0,0,1,5.833-3.5l.283,1.838q-4.454,1.2-4.454,4.171a1.339,1.339,0,0,0,1.2,1.485q3.464.566,3.464,3.818a3.809,3.809,0,0,1-1.167,2.969A4.1,4.1,0,0,1-12.954-70.533Zm11.029,0a3.8,3.8,0,0,1-3-1.343,6.127,6.127,0,0,1-1.167-4.1,11.216,11.216,0,0,1,1.874-6.4,8.422,8.422,0,0,1,5.833-3.5l.283,1.838q-4.454,1.2-4.454,4.171a1.339,1.339,0,0,0,1.2,1.485q3.464.566,3.464,3.818A3.809,3.809,0,0,1,.939-71.594,4.1,4.1,0,0,1-1.925-70.533Z" transform="translate(225.175 4768.592)" fill="#fff"/></g></svg>