<?xml version="1.0" encoding="utf-8"?>
<svg xmlns="http://www.w3.org/2000/svg" xmlns:xlink="http://www.w3.org/1999/xlink" width="226.454" height="296.198" viewBox="0 0 226.454 296.198"><defs><clipPath id="a"><path d="M133.242-80.938c6.721,0,63.5,71.339,63.5,80.938H134.8S110.23-18.29,106.628-24.8,133.242-80.938,133.242-80.938Z" fill="none" clip-rule="evenodd"/></clipPath><clipPath id="b"><path d="M-664,1037H776V-2638H-664Z" fill="none"/></clipPath><clipPath id="c"><path d="M67.677-94.715C66.874-89.495,52.084,0,52.084,0h51.061s28.213-55.631,30.738-80.695C120.271-89.286,67.677-94.715,67.677-94.715Z" fill="none" clip-rule="evenodd"/></clipPath><clipPath id="e"><path d="M108.293-204.919C74.417-206.047,65.362-100.464,68.017-94.828c3.154,6.756,52,20.114,66.065,14.093C141.109-83.74,164.957-203.035,108.293-204.919Z" fill="none" clip-rule="evenodd"/></clipPath><clipPath id="g"><path d="M107.839-204.919C73.974-206.044,63.433-101.334,67.576-95.156S127.6-76.406,133.6-81.106,164.485-203.04,107.839-204.919Z" fill="none" clip-rule="evenodd"/></clipPath><clipPath id="i"><path d="M138.512-173.432c2.59,0,15.871,3.791,26.737,10.084,27.289-24.771,34.013-48.008,48.587-47.6,6.886,0,13.04.965,13.04,6.372s-6.4,9.608-16.6,9.608c-1.7,6.857-24.546,59.787-40.895,59.787-11.335,0-43.244-12.586-43.244-15.412S136.355-173.432,138.512-173.432Z" fill="none" clip-rule="evenodd"/></clipPath><clipPath id="k"><path d="M105.384-183.015c-5.3,6.605,18.075,38.535,23.4,38.359s23.975-23.193,22.2-29.794S113.407-193.006,105.384-183.015Z" fill="none" clip-rule="evenodd"/></clipPath><clipPath id="m"><path d="M101.984-229.9c0,1.016-.4,23.318-3.4,29.978,0,1.941,21.526,3.21,21.526-.484v-16.232" fill="none" clip-rule="evenodd"/></clipPath><clipPath id="o"><path d="M118.815-214.4c-9.749,0-17.651-11.758-17.651-26.262s7.9-26.262,17.651-26.262,17.651,11.758,17.651,26.262S128.564-214.4,118.815-214.4Z" fill="none" clip-rule="evenodd"/></clipPath><clipPath id="q"><path d="M104.306-228.176h.434V-240.9c1.3-1.755,13.894-5.7,16.934-7.018s8.25-3.07,11.724-8.334c.794,1.206,2.666,7.233,3.161,12.26,1.3-1.316,3.352-3.487,3.352-10.505,0-12.721-12.592-20.178-23.447-20.178-17.368,0-27.355,17.984-27.355,25.88C89.109-237.388,96.925-228.176,104.306-228.176Z" fill="#002352" clip-rule="evenodd"/></clipPath><clipPath id="r"><path d="M-664,1037H776V-2638H-664Z" fill="#002352"/></clipPath><clipPath id="s"><path d="M105.9-231.62a4.736,4.736,0,0,1-4.736-4.736,4.736,4.736,0,0,1,4.736-4.736,4.736,4.736,0,0,1,4.736,4.736A4.736,4.736,0,0,1,105.9-231.62Z" fill="none" clip-rule="evenodd"/></clipPath><clipPath id="u"><path d="M77.876-296.2c-2.827,0-25.227,7.507-31.122,7.507S29.189-290.1,25.413-290.1C18-290.1.422-281.608.422-266.756c0,10.35,8.052,16.084,17.092,20.647,3.523,1.772,6.647,9.322,19.219,9.322,20.269,0,31.993-28.328,50.223-28.328,2.122,0,8.971.932,8.971,3.483S100.3-262.9,100.3-264.1C100.285-274.28,94.05-296.2,77.876-296.2Z" fill="#002352" clip-rule="evenodd"/></clipPath></defs><g transform="translate(-0.422 296.198)"><g clip-path="url(#a)"><g clip-path="url(#b)"><path d="M101.33,5H201.739V-85.938H101.33Z" fill="#55cad7"/></g></g><g clip-path="url(#c)"><g clip-path="url(#b)"><path d="M47.084,5h91.8V-99.715h-91.8Z" fill="#74d4dd"/></g></g><g clip-path="url(#e)"><g clip-path="url(#b)"><path d="M62.583-74.216h87.494V-209.928H62.583Z" fill="#fdd384"/></g></g><g clip-path="url(#g)"><g clip-path="url(#b)"><path d="M61.722-75.077h87.494V-209.928H61.722Z" fill="#fdd384"/></g></g><g clip-path="url(#i)"><g clip-path="url(#b)"><path d="M121.134-130.184H231.876v-85.772H121.134Z" fill="#dd8d67"/></g></g><g clip-path="url(#k)"><g clip-path="url(#b)"><path d="M99.608-139.655h56.5v-52.191h-56.5Z" fill="#fdd791"/></g></g><g clip-path="url(#m)"><g clip-path="url(#b)"><path d="M93.581-193.04h31.526V-234.9H93.581Z" fill="#d37b58"/></g></g><g clip-path="url(#o)"><g clip-path="url(#b)"><path d="M96.164-209.4h45.3v-62.524h-45.3Z" fill="#dd8d67"/></g></g><g clip-path="url(#q)"><g clip-path="url(#r)"><path d="M84.109-223.176h60.8v-56.5h-60.8Z" fill="#002352"/></g></g><g clip-path="url(#s)"><g clip-path="url(#b)"><path d="M96.164-226.62h19.471v-19.471H96.164Z" fill="#dd8d67"/></g></g><g clip-path="url(#u)"><g clip-path="url(#r)"><path d="M-4.578-231.787H105.3V-301.2H-4.578Z" fill="#002352"/></g></g></g></svg>