<?xml version="1.0" encoding="utf-8"?>
<svg xmlns="http://www.w3.org/2000/svg" width="73" height="73" viewBox="0 0 73 73"><g transform="translate(-242 -4725)"><circle cx="36.5" cy="36.5" r="36.5" transform="translate(242 4725)" fill="#29aeff"/><path d="M10.993-15.737a9.442,9.442,0,0,1-2.26,2.33q.014.2.014.586a12.8,12.8,0,0,1-.53,3.62A13.083,13.083,0,0,1,6.606-5.734,13.628,13.628,0,0,1,4.032-2.8,11.46,11.46,0,0,1,.432-.76,13.173,13.173,0,0,1-4.074,0a12.513,12.513,0,0,1-6.92-2.023,9.644,9.644,0,0,0,1.088.056A8.822,8.822,0,0,0-4.311-3.892a4.393,4.393,0,0,1-2.623-.9,4.408,4.408,0,0,1-1.59-2.225,5.709,5.709,0,0,0,.851.07A4.662,4.662,0,0,0-6.487-7.1,4.433,4.433,0,0,1-9.075-8.657,4.354,4.354,0,0,1-10.1-11.523v-.056a4.47,4.47,0,0,0,2.037.572,4.5,4.5,0,0,1-1.465-1.6,4.391,4.391,0,0,1-.544-2.148,4.415,4.415,0,0,1,.614-2.274A12.774,12.774,0,0,0-5.35-13.707,12.556,12.556,0,0,0-.167-12.319a5.005,5.005,0,0,1-.112-1.032,4.343,4.343,0,0,1,1.318-3.188,4.343,4.343,0,0,1,3.188-1.318A4.344,4.344,0,0,1,7.52-16.434a8.836,8.836,0,0,0,2.86-1.088A4.375,4.375,0,0,1,8.4-15.039,8.979,8.979,0,0,0,10.993-15.737Z" transform="translate(279 4769)" fill="#fff"/></g></svg>