<?xml version="1.0" encoding="utf-8" ?>
<svg width="190px" height="190px" viewBox="0 0 190 190" version="1.1" xmlns="http://www.w3.org/2000/svg" xmlns:xlink="http://www.w3.org/1999/xlink">
<rect fill="#7436AC" x="0" y="0" width="190" height="190" rx="77"></rect>
<path d="M141.5,121.1 C142.433338,121.700003 142.866667,122.61666 142.8,123.85 C142.733333,125.083339 142.166672,126.133329 141.1,127 L131.6,136.5 C130.733329,137.366671 129.766672,137.8 128.7,137.8 C127.633328,137.8 126.633338,137.366671 125.7,136.5 L87.8,98.6 C82.933309,100.466676 77.966692,100.900005 72.9,99.9 C67.633307,98.833328 63.033353,96.333353 59.1,92.4 C56.366653,89.666653 54.300007,86.5166845 52.9,82.95 C51.499993,79.3833155 50.8499995,75.7500185 50.95,72.05 C51.0500005,68.3499815 51.933325,64.83335 53.6,61.5 L72,79.5 L84.5,67 L66.5,49 C69.83335,47.466659 73.366648,46.6500005 77.1,46.55 C80.833352,46.4499995 84.433316,47.033327 87.9,48.3 C91.500018,49.700007 94.666653,51.766653 97.4,54.5 C101.333353,58.433353 103.833328,62.9833075 104.9,68.15 C105.966672,73.3166925 105.533343,78.333309 103.6,83.2 L141.5,121.1 Z" fill="#FFFFFF" fill-rule="nonzero"></path>
</svg>