<?xml version="1.0" encoding="utf-8" ?>
<svg width="190px" height="190px" viewBox="0 0 190 190" version="1.1" xmlns="http://www.w3.org/2000/svg" xmlns:xlink="http://www.w3.org/1999/xlink">
	<rect fill="#3657AC" x="0" y="0" width="190" height="190" rx="77"></rect>
	<path d="M70.5,116.4 L70.5,120.5 L120.5,120.5 L120.5,116.4 C120.5,113.799987 118.966682,111.433344 115.9,109.3 C113.299987,107.499991 109.900021,106.066672 105.7,105 C101.966648,103.999995 98.566682,103.5 95.5,103.5 C92.433318,103.5 89.033352,103.999995 85.3,105 C81.099979,106.066672 77.700013,107.499991 75.1,109.3 C72.033318,111.433344 70.5,113.799987 70.5,116.4 Z M108,83 C108,80.799989 107.433339,78.733343 106.3,76.8 C105.166661,74.866657 103.633343,73.333339 101.7,72.2 C99.766657,71.066661 97.700011,70.5 95.5,70.5 C93.299989,70.5 91.233343,71.066661 89.3,72.2 C87.366657,73.333339 85.833339,74.866657 84.7,76.8 C83.566661,78.733343 83,80.799989 83,83 C83,85.200011 83.566661,87.266657 84.7,89.2 C85.833339,91.133343 87.366657,92.666661 89.3,93.8 C91.233343,94.933339 93.299989,95.5 95.5,95.5 C97.700011,95.5 99.766657,94.933339 101.7,93.8 C103.633343,92.666661 105.166661,91.133343 106.3,89.2 C107.433339,87.266657 108,85.200011 108,83 Z M58,66.4 C58,64.133322 58.8166585,62.166675 60.45,60.5 C62.0833415,58.833325 64.066655,58 66.4,58 L124.6,58 C126.866678,58 128.833325,58.833325 130.5,60.5 C132.166675,62.166675 133,64.133322 133,66.4 L133,124.6 C133,126.866678 132.166675,128.833325 130.5,130.5 C128.833325,132.166675 126.866678,133 124.6,133 L66.4,133 C64.066655,133 62.0833415,132.166675 60.45,130.5 C58.8166585,128.833325 58,126.866678 58,124.6 L58,66.4 Z" fill="#FFFFFF" fill-rule="nonzero"></path>
</svg>