<?xml version="1.0" encoding="utf-8" ?>
<svg width="190px" height="190px" viewBox="0 0 190 190" version="1.1" xmlns="http://www.w3.org/2000/svg" xmlns:xlink="http://www.w3.org/1999/xlink">
	<rect fill="#36AC91" x="0" y="0" width="190" height="190" rx="77"></rect>
	<path d="M115.9,115.9 L115.9,99.1 L107.5,99.1 L107.5,115.9 L115.9,115.9 Z M99.1,115.9 L99.1,74.1 L90.9,74.1 L90.9,115.9 L99.1,115.9 Z M82.5,115.9 L82.5,86.6 L74.1,86.6 L74.1,115.9 L82.5,115.9 Z M124.1,57.5 C126.366678,57.5 128.333325,58.333325 130,60 C131.666675,61.666675 132.5,63.633322 132.5,65.9 L132.5,124.1 C132.5,126.366678 131.666675,128.333325 130,130 C128.333325,131.666675 126.366678,132.5 124.1,132.5 L65.9,132.5 C63.633322,132.5 61.666675,131.666675 60,130 C58.333325,128.333325 57.5,126.366678 57.5,124.1 L57.5,65.9 C57.5,63.633322 58.333325,61.666675 60,60 C61.666675,58.333325 63.633322,57.5 65.9,57.5 L124.1,57.5 Z" fill="#FFFFFF" fill-rule="nonzero"></path>
</svg>