<?xml version="1.0" encoding="utf-8"?>
<svg xmlns="http://www.w3.org/2000/svg" width="53.992" height="32.093" viewBox="0 0 53.992 32.093"><path d="M13.141-6.681a6.116,6.116,0,0,0-2.006-4.879,8.084,8.084,0,0,0-5.508-1.751H1.547V0H5.576A7.943,7.943,0,0,0,11.1-1.836,6.2,6.2,0,0,0,13.141-6.681Zm-2.822,0A3.76,3.76,0,0,1,9.044-3.672,5.076,5.076,0,0,1,5.661-2.6H4.3V-10.71H5.7A5.058,5.058,0,0,1,9.027-9.639,3.572,3.572,0,0,1,10.319-6.681ZM17.34.17a3.113,3.113,0,0,0,2.72-1.309l.034.017V0h2.448V-5.627c0-2.38-1.547-3.655-3.944-3.655a4.321,4.321,0,0,0-4.165,2.159l2.023,1.207A2.184,2.184,0,0,1,18.479-7.14c.952,0,1.462.493,1.462,1.122q0,.663-.714.663h-.9a6.1,6.1,0,0,0-2.7.544A2.365,2.365,0,0,0,14.28-2.567v.034a2.432,2.432,0,0,0,.884,1.972A3.3,3.3,0,0,0,17.34.17ZM18.1-1.768c-.68,0-1.156-.306-1.156-.918,0-.68.612-1.037,1.377-1.037h1.6v.2A1.687,1.687,0,0,1,18.1-1.768ZM33.065,0V-5.644a3.947,3.947,0,0,0-.833-2.567,2.909,2.909,0,0,0-2.448-1.037,2.954,2.954,0,0,0-1.666.476,2.369,2.369,0,0,0-.9.884H27.2v-1.19H24.565V0h2.652V-5.032A1.59,1.59,0,0,1,28.849-6.8c1.037,0,1.581.7,1.581,1.768V0ZM36.4-13.889a1.658,1.658,0,0,0-1.632,1.649A1.643,1.643,0,0,0,36.4-10.608a1.64,1.64,0,0,0,1.666-1.632A1.633,1.633,0,0,0,36.4-13.889ZM37.757,0V-9.078H35.088V0ZM48.6-3.808c.017-.2.034-.527.034-.952a4.46,4.46,0,0,0-1.258-3.281A4.42,4.42,0,0,0,44.115-9.3a4.686,4.686,0,0,0-3.4,1.394A4.561,4.561,0,0,0,39.3-4.556a4.515,4.515,0,0,0,1.428,3.434A5.061,5.061,0,0,0,44.285.2a4.085,4.085,0,0,0,3.91-2.057L46.274-3.111a2.431,2.431,0,0,1-2.023,1.088,2.13,2.13,0,0,1-2.244-1.785ZM42.075-5.559a1.851,1.851,0,0,1,.612-1.054,1.845,1.845,0,0,1,1.36-.527,1.794,1.794,0,0,1,1.938,1.581Zm10.778-8.3H50.184V0h2.669ZM6.375,4.689V13.75a1.581,1.581,0,0,1-1.666,1.785,2,2,0,0,1-1.887-1.513L.493,15.314A4.237,4.237,0,0,0,4.76,18.17a4.552,4.552,0,0,0,3.111-1.1,3.972,3.972,0,0,0,1.258-3.111V4.689ZM13.94,18.17a3.113,3.113,0,0,0,2.72-1.309l.034.017V18h2.448V12.373c0-2.38-1.547-3.655-3.944-3.655a4.321,4.321,0,0,0-4.165,2.159l2.023,1.207a2.184,2.184,0,0,1,2.023-1.224c.952,0,1.462.493,1.462,1.122q0,.663-.714.663h-.9a6.1,6.1,0,0,0-2.7.544,2.365,2.365,0,0,0-1.343,2.244v.034a2.432,2.432,0,0,0,.884,1.972A3.3,3.3,0,0,0,13.94,18.17Zm.765-1.938c-.68,0-1.156-.306-1.156-.918,0-.68.612-1.037,1.377-1.037h1.6v.2A1.687,1.687,0,0,1,14.7,16.232ZM31.178,11.2q1.479,0,1.479,1.734V18h2.652V12.339c0-2.193-1.071-3.621-3.2-3.621A3.66,3.66,0,0,0,29.1,10.163a2.737,2.737,0,0,0-2.652-1.445A3.021,3.021,0,0,0,23.8,10.112h-.034V8.922h-2.6V18h2.652V12.968A1.547,1.547,0,0,1,25.432,11.2c.986,0,1.479.6,1.479,1.768V18h2.635V12.934A1.548,1.548,0,0,1,31.178,11.2ZM46.07,14.192c.017-.2.034-.527.034-.952A4.315,4.315,0,0,0,41.582,8.7a4.686,4.686,0,0,0-3.4,1.394,4.561,4.561,0,0,0-1.411,3.349A4.515,4.515,0,0,0,38.2,16.878,5.061,5.061,0,0,0,41.752,18.2a4.085,4.085,0,0,0,3.91-2.057l-1.921-1.258a2.431,2.431,0,0,1-2.023,1.088,2.13,2.13,0,0,1-2.244-1.785Zm-6.528-1.751a2.022,2.022,0,0,1,1.972-1.581,1.794,1.794,0,0,1,1.938,1.581Zm14.943,2.822c0-1.581-1.207-2.482-3.5-2.958-.8-.17-1.19-.442-1.19-.833,0-.357.408-.663.952-.663a1.761,1.761,0,0,1,1.649.867l1.921-1.139a3.769,3.769,0,0,0-3.5-1.836,3.877,3.877,0,0,0-2.465.816,2.5,2.5,0,0,0-1.02,2.057c0,1.479,1.071,2.465,3.23,2.941,1.156.255,1.445.527,1.445.884s-.442.663-1.1.663a2.09,2.09,0,0,1-2.04-1.105L46.9,16.113A4.077,4.077,0,0,0,50.864,18.2C53.108,18.2,54.485,17.014,54.485,15.263Z" transform="translate(-0.493 13.889)" fill="#fff"/></svg>